<svg width="87" height="87" viewBox="0 0 87 87" fill="none" xmlns="http://www.w3.org/2000/svg">
<path d="M37.5315 41.9199L37.7463 40.4775L35.1992 40.631C35.414 40.723 35.6288 40.8151 35.813 40.9379C36.4267 41.214 36.9791 41.5516 37.5315 41.9199Z" fill="white"/>
<path d="M34.923 60.0561C33.4806 60.6391 31.9156 60.946 30.197 61.0074C29.5219 61.0381 28.632 60.9767 27.5272 60.8846C26.4224 60.7926 25.3177 60.5778 24.2129 60.2709C23.0775 59.964 22.1261 59.5037 21.3283 58.9206C20.4997 58.2762 20.0394 57.4476 20.0087 56.4349C19.978 55.7291 20.1621 55.054 20.5304 54.4402C20.5611 54.4095 20.5611 54.3788 20.5918 54.3481C20.2542 54.5323 19.9166 54.7164 19.5484 54.9312C18.4436 55.5757 17.3082 56.2815 16.1727 57.0794C15.0373 57.8466 14.0859 58.6751 13.3187 59.5344C12.5822 60.3323 12.2447 61.0995 12.2754 61.8053C12.306 62.5725 12.6743 63.1862 13.4108 63.7079C14.2087 64.2603 15.1907 64.6899 16.3261 65.0275C17.4923 65.3651 18.6277 65.6106 19.7325 65.7333C20.8373 65.8561 21.7272 65.9175 22.3717 65.8868C24.5198 65.8254 26.8521 65.3651 29.2764 64.5672C31.0563 63.9841 32.8669 63.2169 34.6161 62.327L34.923 60.0561Z" fill="white"/>
<path d="M21.6347 34.0022C22.6474 35.107 23.9363 36.0276 25.5321 36.7027C27.1279 37.4086 28.8464 38.1144 30.657 38.7281C31.0252 38.8509 31.3935 39.0043 31.7617 39.1271C31.8231 38.9736 31.9459 38.8202 32.0993 38.6974C32.3448 38.5133 32.7437 38.1758 33.3268 37.7154C33.9099 37.2551 34.585 36.7334 35.2601 36.2117C35.966 35.69 36.6411 35.2297 37.2242 34.8308C38.022 34.3091 38.513 34.0943 38.9734 34.0636H39.0347C38.8813 34.0022 38.7279 33.9715 38.5744 33.9101C36.7945 33.3578 35.076 32.744 33.4802 32.0382C31.8538 31.3324 30.4728 30.3504 29.3988 29.1228C28.294 27.8953 27.7109 26.1768 27.6496 24.0594C27.5575 21.635 28.0485 19.6403 29.0612 18.1673C30.0739 16.6943 31.4548 15.5895 33.2041 14.9144C34.9226 14.2392 36.8866 13.8403 39.0654 13.7789C39.403 13.7789 39.9861 13.7789 40.876 13.8403C41.766 13.9017 42.6866 13.9937 43.6379 14.1165C44.6199 14.2699 45.4792 14.4847 46.2157 14.7609C47.0443 15.0985 47.4739 15.5588 47.5046 16.1726C47.5046 16.4795 47.4432 16.7863 47.2898 17.1239C47.3818 17.0625 47.4432 17.0318 47.5353 16.9705C48.6093 16.326 49.7448 15.5895 50.9723 14.7609C52.1691 13.9631 53.2125 13.1652 54.0411 12.398C55.0845 11.4467 55.2072 10.9863 55.2072 10.8329C55.2072 10.4953 54.9003 10.2191 54.2866 9.97364C53.5808 9.69745 52.7215 9.48263 51.7088 9.32919C50.6961 9.17575 49.7141 9.053 48.8242 9.02231C47.9035 8.96094 47.2898 8.96094 46.9215 8.96094C45.203 9.02231 43.239 9.42125 41.0601 10.1578C38.8506 10.8943 36.5797 11.8763 34.3088 13.1345C32.0072 14.362 29.8591 15.8043 27.8337 17.3694C25.7776 19.0265 24.0591 20.7144 22.7088 22.4943C21.3586 24.2435 20.53 26.0234 20.1924 27.8033C20.0697 28.4477 20.039 29.1228 20.0697 29.7673C20.131 31.5165 20.6527 32.9281 21.6347 34.0022Z" fill="white"/>
<path d="M43.6387 54.7167L44.5286 54.6553C44.6821 54.4712 44.8662 54.2564 45.0196 54.0723H43.7307L43.6387 54.7167Z" fill="white"/>
<path d="M49.0082 43.3311C48.9775 42.0115 48.7013 40.8454 48.241 39.894L45.7553 40.0475L44.7119 47.2898H48.5786C48.9161 46.0009 49.0389 44.6813 49.0082 43.3311Z" fill="white"/>
<path d="M37.8076 35.8128C37.2246 36.181 36.6108 36.6414 35.905 37.1324C35.1992 37.6541 34.5854 38.1451 34.0023 38.6054C33.7262 38.8202 33.4806 39.035 33.2658 39.1884C33.2351 39.2191 33.2045 39.2191 33.1738 39.2498C33.1431 39.2498 33.1431 39.2805 33.1124 39.2805C33.0817 39.3112 33.051 39.3419 33.0203 39.3419C32.9896 39.3419 32.9896 39.3726 32.959 39.3726C32.959 39.3726 32.9283 39.3726 32.9283 39.4033C32.8976 39.4339 32.8669 39.4646 32.8362 39.4953L32.8055 39.526L32.7748 39.5567L32.7441 39.5874L39.0351 39.2498L38.5441 42.7175L37.8997 47.29H41.4595H43.5463L44.7431 38.9429L47.5357 38.7895L49.3463 38.6974C49.7452 38.6668 50.1748 38.6668 50.6045 38.6668C51.3103 38.6668 52.0468 38.6974 52.814 38.7588C54.0415 38.8509 55.2383 39.0964 56.3738 39.4953C57.5092 39.8943 58.4299 40.508 59.1664 41.3366C59.9029 42.1652 60.3018 43.2699 60.3939 44.6816C60.4246 45.234 60.3939 45.817 60.3018 46.4001C60.2404 46.707 60.1791 47.0138 60.1177 47.29H64.8129C64.9664 47.0138 65.1505 46.7376 65.2732 46.4615C66.2859 44.5895 66.7156 42.5334 66.5928 40.3239C66.5008 38.7895 66.1018 37.6234 65.3346 36.7641C64.5981 35.9048 63.6468 35.3218 62.5113 34.9535C61.3759 34.5853 60.1484 34.3705 58.8595 34.3398C58.2764 34.3091 57.724 34.3091 57.1717 34.3091C56.4965 34.3091 55.8214 34.3398 55.2076 34.3705L39.0045 35.2911C38.7896 35.2604 38.3907 35.4445 37.8076 35.8128Z" fill="white"/>
<path d="M73.4056 71.3801C72.9146 71.5949 72.4236 71.7176 71.9019 71.7483C71.8712 71.7483 71.8098 71.7483 71.7791 71.7483C70.9812 71.7483 70.0606 71.3187 69.0786 70.4594C68.0352 69.5695 66.8998 68.4033 65.6722 67.0224C64.4447 65.6414 63.2172 64.1991 61.9283 62.7261C60.6394 61.2531 59.3812 59.9335 58.123 58.7674C56.8648 57.6319 55.6373 56.8647 54.4405 56.4965C55.0543 56.1589 55.668 55.7906 56.3125 55.3917C56.9876 54.9621 57.6627 54.5017 58.3072 54.0107H54.0722C53.704 54.1642 53.3051 54.3176 52.9368 54.4711C51.0342 55.1155 49.1315 55.4838 47.1982 55.6065L43.4236 55.8213L42.2881 55.8827L42.5643 54.0107H40.9992H36.9178L34.5241 70.6742C34.3093 72.0859 33.9717 73.3748 33.45 74.5716C32.959 75.7684 32.1918 76.8732 31.1484 77.8859L40.7844 77.3335C41.3368 77.3028 42.0119 76.9959 42.7484 76.3822C43.4849 75.7684 44.2215 75.124 44.9887 74.4488C45.7558 73.7737 46.431 73.2827 47.0447 73.0372L37.6849 73.5589C38.7283 72.2393 39.4955 70.8277 39.9865 69.3547C40.4775 67.8816 40.8151 66.3472 41.0299 64.7515C41.2447 63.1557 41.4595 61.5906 41.7051 59.9949C42.1347 59.9642 42.595 59.9335 42.9939 59.9028L42.9633 59.9335C43.7918 59.9335 44.5897 59.9028 45.4183 59.9028C45.449 59.9028 45.449 59.9028 45.4797 59.9028C46.2775 59.9028 47.0754 59.9335 47.8733 59.9949C49.1008 60.1176 50.1135 60.3324 50.85 60.7314C51.6172 61.0996 52.2924 61.6213 52.9061 62.2658C53.5199 62.9102 54.1643 63.7081 54.9008 64.6287L62.358 74.0806C62.7262 74.5716 63.1558 75.0626 63.5548 75.5229C63.923 75.9525 64.4447 76.1674 65.0892 76.1674C65.1506 76.1674 65.2119 76.1674 65.2733 76.1674C67.0532 76.0753 68.8331 75.4615 70.5516 74.3568C72.2701 73.252 73.6818 72.0245 74.7558 70.6129C74.3569 70.9197 73.8966 71.1652 73.4056 71.3801Z" fill="white"/>
<path d="M30.166 48.2416C30.166 48.2723 30.1353 48.3337 30.0739 48.395C30.0125 48.4564 29.9205 48.5178 29.8284 48.6099C29.7363 48.6712 29.6136 48.7326 29.5215 48.794C29.4295 48.8554 29.3681 48.886 29.3374 48.9167C29.3681 48.886 29.3988 48.8554 29.4295 48.8247C29.4601 48.794 29.4601 48.7326 29.4601 48.7019C29.4601 48.6712 29.4295 48.6405 29.3374 48.6099C29.276 48.5792 29.184 48.5485 29.0919 48.5485C28.9998 48.5178 28.9078 48.5178 28.8464 48.5178C28.785 48.5178 28.7236 48.5178 28.693 48.5178C28.5088 48.5178 28.3247 48.5485 28.1713 48.6099C28.0178 48.6712 27.9258 48.7633 27.8337 48.886C27.7723 49.0088 27.7416 49.1929 27.7723 49.4077C27.803 49.5919 27.8644 49.7453 27.9564 49.8374C28.0485 49.9601 28.2019 50.0522 28.3554 50.1136C28.5088 50.1749 28.6623 50.2363 28.8464 50.2977C28.9998 50.3591 29.184 50.4204 29.3374 50.4818C29.4908 50.5432 29.6136 50.6352 29.7363 50.758C29.8284 50.8807 29.9205 51.0342 29.9205 51.2183C29.9512 51.4331 29.9205 51.6479 29.8591 51.8628C29.767 52.0776 29.6443 52.231 29.4908 52.4151C29.3374 52.5686 29.1533 52.722 28.9385 52.8448C28.7236 52.9675 28.5088 53.0596 28.294 53.121C28.0792 53.1823 27.8644 53.213 27.6803 53.213C27.6189 53.213 27.5268 53.213 27.4348 53.1823C27.3427 53.1517 27.2199 53.1517 27.0972 53.0903C26.9744 53.0596 26.8824 52.9982 26.821 52.9675C26.7289 52.9062 26.6982 52.8448 26.6982 52.7527C26.6982 52.6913 26.7289 52.5993 26.7903 52.5379C26.8517 52.4765 26.9437 52.3845 27.0358 52.3231C27.1279 52.2617 27.2199 52.2003 27.312 52.139C27.4041 52.0776 27.4961 52.0469 27.5268 52.0162C27.4961 52.0469 27.4654 52.1083 27.4348 52.139C27.4041 52.2003 27.4041 52.231 27.4041 52.2924C27.4041 52.3845 27.4654 52.4458 27.5268 52.5072C27.5882 52.5686 27.6803 52.5993 27.803 52.63C27.8951 52.6606 28.0178 52.6913 28.1099 52.6913C28.2019 52.6913 28.294 52.722 28.3554 52.722C28.6623 52.722 28.9078 52.63 29.0612 52.4458C29.2453 52.2617 29.3067 52.0162 29.276 51.7093C29.2453 51.5252 29.184 51.3718 29.0612 51.249C28.9385 51.1263 28.8157 51.0342 28.6623 50.9421C28.5088 50.8501 28.3554 50.7887 28.1713 50.7273C27.9871 50.6659 27.8337 50.6046 27.6803 50.5125C27.5268 50.4511 27.4041 50.3591 27.2813 50.2363C27.1892 50.1442 27.0972 49.9908 27.0972 49.8374C27.0972 49.776 27.0972 49.7146 27.0972 49.6532C27.0972 49.4998 27.1586 49.3157 27.2813 49.1622C27.4041 49.0088 27.5268 48.8554 27.7109 48.7019C27.8951 48.5485 28.0792 48.4257 28.2633 48.3337C28.4474 48.2416 28.6623 48.1495 28.8464 48.0882C29.0305 48.0268 29.2146 47.9961 29.3681 47.9961C29.3988 47.9961 29.4601 47.9961 29.5522 47.9961C29.6443 47.9961 29.7363 48.0268 29.8284 48.0268C29.9205 48.0575 30.0125 48.0575 30.0739 48.0882C30.1353 48.1495 30.166 48.1802 30.166 48.2416Z" fill="white"/>
<path d="M35.414 48.1185C35.322 48.1492 35.2299 48.1799 35.1379 48.2719C35.0458 48.364 34.923 48.4254 34.831 48.4868C34.7389 48.5481 34.6468 48.5788 34.5855 48.5788H32.4373L32.3146 50.236H34.7389C34.6775 50.236 34.6162 50.2667 34.5548 50.328C34.4934 50.3587 34.432 50.4201 34.3707 50.4508C34.34 50.4815 34.2786 50.5122 34.2172 50.5428C34.1558 50.5735 34.0945 50.6042 34.0331 50.6349C33.9717 50.6656 33.9103 50.6963 33.8797 50.6963H32.2839L32.2225 51.801C32.2225 51.8624 32.1918 51.9545 32.1918 52.0772C32.1611 52.1693 32.1304 52.292 32.0998 52.3841C32.0691 52.4762 32.0077 52.5376 31.9463 52.5682H34.5241C34.6469 52.5682 34.7696 52.5376 34.8924 52.5069C35.0458 52.4762 35.1379 52.4148 35.2606 52.3841C35.2299 52.4148 35.1379 52.4762 35.0151 52.5375C34.8924 52.5989 34.7696 52.691 34.6469 52.7524C34.5241 52.8137 34.3707 52.8751 34.2479 52.9365C34.1252 52.9979 34.0331 52.9979 33.9717 52.9979H31.1791C31.3019 52.8444 31.4246 52.6603 31.4553 52.5069C31.486 52.3534 31.5474 52.1386 31.5474 51.9238L31.6394 50.6656H31.1484L31.6701 50.2973L31.7929 48.5481H31.1484C31.1791 48.5174 31.2405 48.4868 31.3019 48.4254C31.3633 48.364 31.4553 48.3333 31.5474 48.2719C31.6394 48.2106 31.7008 48.1799 31.7929 48.1185C31.8543 48.0878 31.9156 48.0571 31.9463 48.0571H35.414V48.1185Z" fill="white"/>
<path d="M37.4695 53.3356C37.1319 53.3356 36.8557 53.2743 36.6102 53.1208C36.3647 52.9674 36.1806 52.7832 36.0579 52.5377C35.9351 52.2922 35.843 52.0161 35.7817 51.7092C35.751 51.5864 35.751 51.4637 35.751 51.3409C35.751 51.2182 35.751 51.0954 35.751 51.0034C35.7817 50.6044 35.8737 50.2055 36.0272 49.8065C36.1192 49.5917 36.242 49.3462 36.3954 49.1314C36.5489 48.9166 36.733 48.7018 36.9478 48.5176C37.1626 48.3335 37.3774 48.1801 37.6229 48.088C37.8684 47.9959 38.1446 47.9346 38.4208 47.9346C38.7277 47.9346 39.0039 48.0266 39.2494 48.1801C39.4949 48.3335 39.679 48.5483 39.8018 48.7938C39.9552 49.0393 40.0473 49.3155 40.078 49.5917C40.078 49.6838 40.1086 49.7758 40.1086 49.8679C40.1086 49.96 40.1086 50.052 40.1086 50.1441C40.1086 50.3589 40.0473 50.5737 40.0166 50.7885C39.9552 51.0034 39.8938 51.2182 39.8018 51.4023C39.7097 51.6171 39.587 51.8319 39.4335 52.0467C39.2801 52.2616 39.096 52.4764 38.9118 52.6605C38.697 52.8446 38.4822 52.9981 38.2674 53.1208C37.9912 53.2743 37.715 53.3356 37.4695 53.3356ZM37.8684 48.4256C37.5922 48.4256 37.3774 48.487 37.1933 48.6097C37.0092 48.7325 36.8864 48.9166 36.7637 49.1007C36.6409 49.3155 36.5795 49.5303 36.5182 49.7758C36.4568 50.0213 36.4568 50.2668 36.4261 50.543C36.4261 50.7885 36.4261 51.034 36.4568 51.2182C36.4875 51.4944 36.5795 51.7706 36.6716 52.0161C36.7944 52.2616 36.9478 52.4764 37.1626 52.6298C37.3774 52.7832 37.6229 52.8446 37.9605 52.8446C38.206 52.8446 38.4208 52.7833 38.5743 52.6605C38.7584 52.5377 38.8811 52.3536 39.0039 52.1388C39.1266 51.924 39.188 51.7092 39.2494 51.4637C39.3108 51.2182 39.3415 51.0034 39.3415 50.8192C39.3415 50.6965 39.3415 50.543 39.3415 50.4203C39.3415 50.2975 39.3415 50.1441 39.3108 50.0213C39.2801 49.7452 39.188 49.469 39.0653 49.2235C38.9425 48.978 38.7891 48.7938 38.5743 48.6404C38.4515 48.5176 38.1753 48.4256 37.8684 48.4256Z" fill="white"/>
<path d="M42.226 51.0339C42.226 51.2181 42.1953 51.4022 42.1953 51.5863C42.1953 51.7704 42.1646 51.9546 42.1032 52.108C42.0725 52.2921 41.9805 52.4456 41.8577 52.599H42.9625C42.9011 52.6297 42.809 52.6911 42.717 52.7524C42.6249 52.8138 42.5635 52.9059 42.4715 52.9673C42.3794 53.0286 42.318 53.0593 42.2567 53.0593H41.1212C41.244 52.9366 41.3053 52.8138 41.3667 52.6911C41.4281 52.5683 41.4588 52.4149 41.4588 52.2307L41.7043 48.5789H40.9678C40.9985 48.5482 41.0291 48.5175 41.0905 48.4561C41.1519 48.3948 41.2133 48.3641 41.3053 48.3027C41.3667 48.2413 41.4588 48.2106 41.5202 48.1493C41.5815 48.1186 41.6429 48.0879 41.6429 48.0879H43.5455C43.6683 48.0879 43.8217 48.0879 43.9752 48.1186C44.1286 48.1186 44.2821 48.18 44.4048 48.2106C44.5582 48.272 44.6503 48.3334 44.7424 48.4561C44.8344 48.5482 44.8958 48.7016 44.9265 48.8858C44.9572 49.1313 44.9265 49.3768 44.8344 49.5916C44.7424 49.8064 44.5889 49.9905 44.4048 50.1747C44.2207 50.3281 44.0366 50.4815 43.8524 50.6043C43.7911 50.635 43.699 50.6964 43.6376 50.727C43.7911 50.7884 43.9445 50.8805 44.0979 51.0032C44.2514 51.1567 44.4355 51.3101 44.5889 51.4942C44.7424 51.6784 44.9265 51.8625 45.0799 52.0159C45.2334 52.2001 45.3868 52.3228 45.5096 52.4456C45.6323 52.5683 45.7551 52.599 45.8471 52.599C45.9085 52.599 45.9699 52.599 46.0313 52.5683C46.0926 52.5376 46.1233 52.5069 46.1847 52.4763C46.062 52.6297 45.9085 52.7831 45.7244 52.8752C45.5403 52.9979 45.3254 53.0593 45.1106 53.0593C45.0186 53.0593 44.9572 53.0286 44.8958 52.9673C44.8344 52.9059 44.8038 52.8445 44.7424 52.7831L43.7604 51.617C43.6683 51.4942 43.5762 51.4022 43.5149 51.3408C43.4228 51.2487 43.3614 51.1874 43.2694 51.1567C43.1773 51.0953 43.0545 51.0646 42.9011 51.0646C42.809 51.0646 42.717 51.0339 42.6249 51.0339C42.5329 51.0339 42.4408 51.0339 42.3487 51.0339C42.3487 51.0339 42.2874 51.0339 42.226 51.0339ZM42.3794 48.5789L42.2567 50.5429H42.8397C43.0545 50.5429 43.3 50.5122 43.5149 50.4509C43.7297 50.3895 43.9138 50.2974 44.0672 50.144C44.2207 49.9905 44.2821 49.8064 44.3127 49.5609C44.3127 49.4995 44.3127 49.4382 44.3127 49.3461C44.2821 49.1927 44.2207 49.0392 44.1286 48.9472C44.0366 48.8551 43.9138 48.763 43.7911 48.7016C43.6683 48.6403 43.5149 48.6096 43.3614 48.5789C43.208 48.5482 43.0852 48.5482 42.9625 48.5482H42.3794V48.5789Z" fill="white"/>
<path d="M48.4256 53.3356C48.088 53.3356 47.8118 53.2743 47.5663 53.1208C47.3208 52.9674 47.1367 52.7832 47.0139 52.5377C46.8912 52.2922 46.7991 52.0161 46.7377 51.7092C46.707 51.5864 46.707 51.4637 46.707 51.3409C46.707 51.2182 46.707 51.0954 46.707 51.0034C46.7377 50.6044 46.8298 50.2055 46.9832 49.8065C47.0753 49.5917 47.198 49.3462 47.3515 49.1314C47.5049 48.9166 47.689 48.7018 47.9039 48.5176C48.1187 48.3335 48.3335 48.1801 48.579 48.088C48.8245 47.9959 49.1007 47.9346 49.3769 47.9346C49.6838 47.9346 49.9599 48.0266 50.2054 48.1801C50.4509 48.3335 50.6351 48.5483 50.7578 48.7938C50.9113 49.0393 51.0033 49.3155 51.034 49.5917C51.034 49.6838 51.0647 49.7758 51.0647 49.8679C51.0647 49.96 51.0647 50.052 51.0647 50.1441C51.0647 50.3589 51.0033 50.5737 50.9726 50.7885C50.9113 51.0034 50.8499 51.2182 50.7578 51.4023C50.6658 51.6171 50.543 51.8319 50.3896 52.0467C50.2361 52.2616 50.052 52.4764 49.8679 52.6605C49.6531 52.8446 49.4382 52.9981 49.2234 53.1208C48.9166 53.2743 48.6711 53.3356 48.4256 53.3356ZM48.7938 48.4256C48.5176 48.4256 48.3028 48.487 48.1187 48.6097C47.9345 48.7325 47.8118 48.9166 47.689 49.1007C47.5663 49.3155 47.5049 49.5303 47.4435 49.7758C47.3822 50.0213 47.3822 50.2668 47.3515 50.543C47.3208 50.8192 47.3515 51.034 47.3822 51.2182C47.4129 51.4944 47.5049 51.7706 47.597 52.0161C47.7197 52.2616 47.8732 52.4764 48.088 52.6298C48.3028 52.7832 48.5483 52.8446 48.8859 52.8446C49.1314 52.8446 49.3462 52.7833 49.4996 52.6605C49.6838 52.5377 49.8065 52.3536 49.9293 52.1388C50.052 51.924 50.1134 51.7092 50.1748 51.4637C50.2361 51.2182 50.2668 51.0034 50.2668 50.8192C50.2668 50.6965 50.2668 50.543 50.2668 50.4203C50.2668 50.2975 50.2668 50.1441 50.2361 50.0213C50.2054 49.7452 50.1134 49.469 49.9906 49.2235C49.8679 48.978 49.7144 48.7938 49.4996 48.6404C49.3769 48.5176 49.1314 48.4256 48.7938 48.4256Z" fill="white"/>
<path d="M55.0234 48.2416C55.0234 48.2723 54.9927 48.3337 54.9313 48.395C54.8699 48.4564 54.7779 48.5178 54.6858 48.6099C54.5938 48.6712 54.471 48.7326 54.3789 48.794C54.2869 48.8554 54.2255 48.886 54.1948 48.9167C54.2255 48.886 54.2562 48.8554 54.2869 48.8247C54.3176 48.794 54.3176 48.7326 54.3176 48.7019C54.3176 48.6712 54.2869 48.6405 54.1948 48.6099C54.1334 48.5792 54.0414 48.5485 53.9493 48.5485C53.8573 48.5178 53.7652 48.5178 53.7038 48.5178C53.6117 48.5178 53.5811 48.5178 53.5504 48.5178C53.3662 48.5178 53.1821 48.5485 53.0287 48.6099C52.8752 48.6712 52.7832 48.7633 52.6911 48.886C52.6297 49.0088 52.5991 49.1929 52.6297 49.4077C52.6604 49.5919 52.7218 49.7453 52.8139 49.8374C52.9059 49.9601 53.0594 50.0522 53.2128 50.1136C53.3662 50.1749 53.5197 50.2363 53.7038 50.2977C53.8573 50.3591 54.0414 50.4204 54.1948 50.4818C54.3483 50.5432 54.471 50.6352 54.5938 50.758C54.6858 50.8807 54.7779 51.0342 54.7779 51.2183C54.8086 51.4331 54.7779 51.6479 54.7165 51.8628C54.6244 52.0776 54.5017 52.231 54.3483 52.4151C54.1948 52.5686 54.0107 52.722 53.7959 52.8448C53.5811 52.9675 53.3662 53.0596 53.1514 53.121C52.9366 53.1823 52.7218 53.213 52.5377 53.213C52.4763 53.213 52.3842 53.213 52.2922 53.1823C52.2001 53.1517 52.0774 53.1517 51.9546 53.0903C51.8319 53.0596 51.7398 52.9982 51.6784 52.9675C51.5864 52.9062 51.5557 52.8448 51.5557 52.7527C51.5557 52.6913 51.5864 52.5993 51.6477 52.5379C51.7091 52.4765 51.8012 52.3845 51.8932 52.3231C51.9853 52.2617 52.0774 52.2003 52.1694 52.139C52.2615 52.0776 52.3535 52.0469 52.3842 52.0162C52.3535 52.0469 52.3229 52.1083 52.2922 52.139C52.2615 52.2003 52.2615 52.231 52.2615 52.2924C52.2615 52.3845 52.3229 52.4458 52.3842 52.5072C52.4456 52.5686 52.5377 52.5993 52.6604 52.63C52.7525 52.6606 52.8752 52.6913 52.9673 52.6913C53.0594 52.6913 53.1514 52.722 53.2128 52.722C53.5197 52.722 53.7652 52.63 53.9186 52.4458C54.1028 52.2617 54.1641 52.0162 54.1334 51.7093C54.1028 51.5252 54.0414 51.3718 53.9186 51.249C53.7959 51.1263 53.6731 51.0342 53.5197 50.9421C53.3662 50.8501 53.2128 50.7887 53.0287 50.7273C52.8446 50.6659 52.6911 50.6046 52.5377 50.5125C52.3842 50.4511 52.2615 50.3591 52.1387 50.2363C52.0467 50.1442 51.9546 49.9908 51.9546 49.8374C51.9546 49.776 51.9546 49.7146 51.9546 49.6532C51.9546 49.4998 52.016 49.3157 52.1387 49.1622C52.2615 49.0088 52.3842 48.8554 52.5684 48.7019C52.7525 48.5485 52.9366 48.4257 53.1207 48.3337C53.3049 48.2416 53.5197 48.1495 53.7038 48.0882C53.8879 48.0268 54.0721 47.9961 54.2255 47.9961C54.2562 47.9961 54.3176 47.9961 54.4096 47.9961C54.5017 47.9961 54.5938 48.0268 54.6858 48.0268C54.7779 48.0575 54.8699 48.0575 54.9313 48.0882C54.9927 48.1495 55.0234 48.1802 55.0234 48.2416Z" fill="white"/>
<path d="M60.301 48.1187C60.2703 48.1187 60.2089 48.1493 60.1476 48.2107C60.0862 48.2721 60.0555 48.3028 59.9941 48.3335C59.9634 48.3642 59.9327 48.3948 59.8714 48.4255C59.81 48.4562 59.7793 48.5176 59.7179 48.5483C59.6566 48.579 59.6259 48.6097 59.5645 48.6097H58.1529L57.938 51.7705C57.938 51.8626 57.9073 51.9546 57.9073 52.0774C57.8767 52.2001 57.846 52.2922 57.8153 52.4149C57.7539 52.507 57.7232 52.5991 57.6312 52.6605H58.7666C58.7052 52.6605 58.6745 52.6911 58.6132 52.7525C58.5518 52.8139 58.4904 52.8446 58.429 52.906C58.3677 52.9673 58.3063 53.0287 58.2449 53.0594C58.1835 53.0901 58.1222 53.1208 58.0915 53.1208H56.8946C57.0481 52.998 57.1402 52.8753 57.2015 52.7525C57.2629 52.6298 57.2936 52.4763 57.2936 52.2922L57.5391 48.6403H55.7285C55.7592 48.6097 55.7899 48.579 55.882 48.5176C55.9433 48.4562 56.0047 48.4255 56.0968 48.3642C56.1888 48.3028 56.2502 48.2721 56.3116 48.2107C56.373 48.18 56.4343 48.1493 56.465 48.1493H60.301V48.1187Z" fill="white"/>
</svg>
