<svg class="svg-standalone-icon" width="100%"
     viewBox="181.27372588886394 115.00000000000001 187.4525482222721 183.3422105890105">
    <g data-paper-data="{&quot;fillRule&quot;:&quot;nonzero&quot;,&quot;fillRuleOriginal&quot;:&quot;nonzero&quot;,&quot;isIcon&quot;:true,&quot;iconStyle&quot;:&quot;standalone&quot;,&quot;selectedEffects&quot;:{&quot;container&quot;:&quot;enclosed_circle_outline2&quot;,&quot;transformation&quot;:&quot;&quot;,&quot;pattern&quot;:&quot;&quot;},&quot;bounds&quot;:{&quot;x&quot;:181.27372588886394,&quot;y&quot;:115.00000000000001,&quot;width&quot;:187.4525482222721,&quot;height&quot;:183.3422105890105},&quot;widthRatioIconToContainer&quot;:0.9816606208052187,&quot;heightRatioIconToContainer&quot;:0.645083543808996,&quot;relativeBoundsIconToContainer&quot;:{&quot;top&quot;:-0.03179314833435314,&quot;left&quot;:-0.009169689597390654},&quot;iconType&quot;:&quot;icon&quot;,&quot;rawIconId&quot;:&quot;37848342-8331-461d-9d8f-1b74e71edfed&quot;,&quot;blockLetter&quot;:&quot;O&quot;,&quot;suitableAsStandaloneIcon&quot;:true}"
       fill-rule="nonzero">
        <path d="M210.07899,166.1063l28.46638,2.88053v-27.28028h27.7886v45.74954l46.7662,-43.03845l1.01666,-1.01666c1.01666,-1.01666 2.03332,-1.69443 3.21941,-1.69443h35.41353l-5.76105,5.76105c-0.16945,0.16944 -0.16945,0.16944 -0.50833,0.33889l-42.53012,37.61629l10.16656,15.41929v-0.16944l22.87477,10.33601l-0.84721,1.69443l-29.3136,-12.7082l-0.84721,2.03331l12.53876,5.42217l8.98047,13.72486zM238.54536,193.21715l36.93851,17.28315l-9.14991,8.13325v5.08328l-54.05223,-26.60251l1.35554,-2.88053l-32.36355,-15.41929l1.01666,-1.86387l21.68866,10.16656l58.45773,27.7886l1.01666,-2.03331l-24.90808,-11.86099zM266.33397,226.08905v33.88854h-27.7886v-47.44397zM334.78882,259.97758h-15.75817l-1.01666,-1.01666c-0.16944,-0.16944 -0.3389,-0.50832 -0.67777,-1.1861l-4.06662,-5.93049l-29.99137,-13.55542l0.84721,-2.03331zM348.85257,253.53876c0.3389,0.33889 0.50833,0.67777 0.67777,1.01666l3.55829,5.42217h-13.04709l-31.68579,-15.58873l-17.96093,-26.94139l50.15505,23.55254h0.16944l24.5692,12.19988l-20.33313,-5.59162zM212.23391,141.84983c8.4578,-8.45783 18.17051,-15.00619 29.13811,-19.64506c11.35603,-4.80318 23.25041,-7.20477 35.68313,-7.20477c12.43272,0 24.32709,2.40159 35.68313,7.20477c8.38176,3.54522 16.03062,8.20567 22.94658,13.98135h-6.11294c-5.63355,-4.21216 -11.73714,-7.70843 -18.31078,-10.48883c-10.88395,-4.60344 -22.28595,-6.90517 -34.20599,-6.90517c-11.92004,0 -23.32204,2.30172 -34.20599,6.90517c-10.51337,4.44682 -19.82464,10.72481 -27.9338,18.83397c-8.10917,8.10914 -14.38716,17.42045 -18.83399,27.93393c-0.23782,0.56226 -0.46949,1.12591 -0.69503,1.69095l-2.39366,1.71439l-1.97259,-0.92465c0.49085,-1.3265 1.01377,-2.64581 1.56876,-3.95793c4.63888,-10.9676 11.18723,-20.68031 19.64507,-29.13811zM361.5213,170.98795c4.80331,11.35593 7.20497,23.25031 7.20497,35.68313c0,12.43272 -2.40166,24.32709 -7.20497,35.68313c-0.32813,0.77577 -0.6658,1.54527 -1.01304,2.30848l-1.00512,-0.49918l-2.39319,-1.18819c0.31459,-0.69401 0.62095,-1.39342 0.91908,-2.09823c4.60335,-10.88395 6.90501,-22.28595 6.90501,-34.20599c0,-11.92015 -2.30167,-23.32211 -6.90501,-34.2059c-2.77209,-6.55372 -6.25569,-12.64028 -10.45084,-18.2597l0.00221,-0.00196l1.37849,-1.2191l0.89685,-0.79348l0.19527,-0.13l0.40852,-0.33508c4.44746,5.92106 8.13471,12.34175 11.06175,19.26207zM341.87624,271.49216c-8.4578,8.4578 -18.17046,15.00616 -29.13796,19.64507c-11.35603,4.80331 -23.25041,7.20497 -35.68313,7.20497c-12.43272,0 -24.32709,-2.40166 -35.68313,-7.20497c-10.96753,-4.63891 -20.68023,-11.18726 -29.13811,-19.64507c-8.4578,-8.4578 -15.00616,-18.17046 -19.64507,-29.13796c-4.80318,-11.35603 -7.20477,-23.25041 -7.20477,-35.68313c0,-6.43223 0.64281,-12.72035 1.92845,-18.86436l3.52833,1.68108c-1.10977,5.60284 -1.66464,11.33061 -1.66464,17.18328c0,11.92004 2.30172,23.32204 6.90517,34.20599c4.44682,10.51354 10.72482,19.82474 18.83399,27.93361c8.1092,8.1092 17.42047,14.38729 27.9338,18.83429c10.88395,4.60335 22.28595,6.90501 34.20599,6.90501c11.92004,0 23.32204,-2.30167 34.20599,-6.90501c10.5132,-4.44699 19.82441,-10.72509 27.93361,-18.83429c1.08277,-1.08277 2.13289,-2.18697 3.15037,-3.3126h5.0296c-1.73314,2.06353 -3.56597,4.06156 -5.49848,5.99408z"
              data-paper-data="{&quot;isPathIcon&quot;:true}"></path>
    </g>
</svg>