<svg width="204" height="225" viewBox="0 0 204 225" fill="none" xmlns="http://www.w3.org/2000/svg">
<path d="M82.2997 107.6L82.9997 102.9L74.6997 103.4C75.3997 103.7 76.0997 104 76.6997 104.4C78.6997 105.3 80.4997 106.4 82.2997 107.6Z" fill="black"/>
<path d="M73.7999 166.7C69.0999 168.6 63.9999 169.6 58.3999 169.8C56.1999 169.9 53.2999 169.7 49.6999 169.4C46.0999 169.1 42.4999 168.4 38.8999 167.4C35.1999 166.4 32.0999 164.9 29.4999 163C26.7999 160.9 25.2999 158.2 25.1999 154.9C25.0999 152.6 25.6999 150.4 26.8999 148.4C26.9999 148.3 26.9999 148.2 27.0999 148.1C25.9999 148.7 24.8999 149.3 23.6999 150C20.0999 152.1 16.3999 154.4 12.6999 157C8.9999 159.5 5.8999 162.2 3.3999 165C0.999897 167.6 -0.100105 170.1 -0.000104878 172.4C0.0998951 174.9 1.2999 176.9 3.6999 178.6C6.2999 180.4 9.4999 181.8 13.1999 182.9C16.9999 184 20.6999 184.8 24.2999 185.2C27.8999 185.6 30.7999 185.8 32.8999 185.7C39.8999 185.5 47.4999 184 55.3999 181.4C61.1999 179.5 67.0999 177 72.7999 174.1L73.7999 166.7Z" fill="black"/>
<path d="M30.4998 81.8C33.7998 85.4 37.9998 88.3999 43.1998 90.5999C48.3998 92.8999 53.9998 95.2 59.8998 97.2C61.0998 97.6 62.2998 98.1 63.4998 98.5C63.6998 98 64.0998 97.4999 64.5998 97.0999C65.3998 96.4999 66.6998 95.3999 68.5998 93.8999C70.4998 92.3999 72.6998 90.7 74.8998 89C77.1998 87.3 79.3998 85.8 81.2998 84.5C83.8998 82.8 85.4998 82.1 86.9998 82H87.1998C86.6998 81.8 86.1998 81.7 85.6998 81.5C79.8998 79.7 74.2998 77.7 69.0998 75.3999C63.7998 73.0999 59.2998 69.8999 55.7998 65.8999C52.1998 61.8999 50.2998 56.3 50.0998 49.4C49.7998 41.5 51.3998 35 54.6998 30.2C57.9998 25.4 62.4998 21.7999 68.1998 19.5999C73.7998 17.3999 80.1998 16.1 87.2998 15.9C88.3998 15.9 90.2998 15.8999 93.1998 16.0999C96.0998 16.2999 99.0998 16.6 102.2 17C105.4 17.5 108.2 18.1999 110.6 19.0999C113.3 20.1999 114.7 21.7 114.8 23.7C114.8 24.7 114.6 25.6999 114.1 26.7999C114.4 26.5999 114.6 26.5 114.9 26.2999C118.4 24.1999 122.1 21.7999 126.1 19.0999C130 16.4999 133.4 13.9 136.1 11.4C139.5 8.29995 139.9 6.79995 139.9 6.29995C139.9 5.19995 138.9 4.29995 136.9 3.49995C134.6 2.59995 131.8 1.89995 128.5 1.39995C125.2 0.89995 122 0.49995 119.1 0.39995C116.1 0.19995 114.1 0.199951 112.9 0.199951C107.3 0.399951 100.9 1.69995 93.7998 4.09995C86.5998 6.49995 79.1998 9.69995 71.7998 13.7999C64.2998 17.7999 57.2998 22.4999 50.6998 27.5999C43.9998 33 38.3998 38.5 33.9998 44.3C29.5998 50 26.8998 55.7999 25.7998 61.5999C25.3998 63.6999 25.2998 65.9 25.3998 68C25.5998 73.7 27.2998 78.3 30.4998 81.8Z" fill="black"/>
<path d="M102.2 149.3L105.1 149.1C105.6 148.5 106.2 147.8 106.7 147.2H102.5L102.2 149.3Z" fill="black"/>
<path d="M119.7 112.2C119.6 107.9 118.7 104.1 117.2 101L109.1 101.5L105.7 125.1H118.3C119.4 120.9 119.8 116.6 119.7 112.2Z" fill="black"/>
<path d="M83.1997 87.7C81.2997 88.9 79.2997 90.4 76.9997 92C74.6997 93.7 72.6997 95.3 70.7997 96.8C69.8997 97.5 69.0997 98.2 68.3997 98.7C68.2997 98.8 68.1997 98.8 68.0997 98.9C67.9997 98.9 67.9997 99 67.8997 99C67.7997 99.1 67.6997 99.2 67.5997 99.2C67.4997 99.2 67.4997 99.3 67.3997 99.3C67.3997 99.3 67.2997 99.3 67.2997 99.4C67.1997 99.5 67.0997 99.6 66.9997 99.7L66.8997 99.8L66.7997 99.9L66.6997 100L87.1997 98.9L85.5997 110.2L83.4997 125.1H95.0997H101.9L105.8 97.9L114.9 97.4L120.8 97.1C122.1 97 123.5 97 124.9 97C127.2 97 129.6 97.1 132.1 97.3C136.1 97.6 140 98.4 143.7 99.7C147.4 101 150.4 103 152.8 105.7C155.2 108.4 156.5 112 156.8 116.6C156.9 118.4 156.8 120.3 156.5 122.2C156.3 123.2 156.1 124.2 155.9 125.1H171.2C171.7 124.2 172.3 123.3 172.7 122.4C176 116.3 177.4 109.6 177 102.4C176.7 97.4 175.4 93.6 172.9 90.8C170.5 88 167.4 86.1 163.7 84.9C160 83.7 156 83 151.8 82.9C149.9 82.8 148.1 82.8 146.3 82.8C144.1 82.8 141.9 82.9 139.9 83L87.0997 86C86.3997 85.9 85.0997 86.5 83.1997 87.7Z" fill="black"/>
<path d="M199.2 203.6C197.6 204.3 196 204.7 194.3 204.8C194.2 204.8 194 204.8 193.9 204.8C191.3 204.8 188.3 203.4 185.1 200.6C181.7 197.7 178 193.9 174 189.4C170 184.9 166 180.2 161.8 175.4C157.6 170.6 153.5 166.3 149.4 162.5C145.3 158.8 141.3 156.3 137.4 155.1C139.4 154 141.4 152.8 143.5 151.5C145.7 150.1 147.9 148.6 150 147H136.2C135 147.5 133.7 148 132.5 148.5C126.3 150.6 120.1 151.8 113.8 152.2L101.5 152.9L97.8 153.1L98.7 147H93.6H80.3L72.5 201.3C71.8 205.9 70.7 210.1 69 214C67.4 217.9 64.9 221.5 61.5 224.8L92.9 223C94.7 222.9 96.9 221.9 99.3 219.9C101.7 217.9 104.1 215.8 106.6 213.6C109.1 211.4 111.3 209.8 113.3 209L82.8 210.7C86.2 206.4 88.7 201.8 90.3 197C91.9 192.2 93 187.2 93.7 182C94.4 176.8 95.1 171.7 95.9 166.5C97.3 166.4 98.8 166.3 100.1 166.2L100 166.3C102.7 166.3 105.3 166.2 108 166.2C108.1 166.2 108.1 166.2 108.2 166.2C110.8 166.2 113.4 166.3 116 166.5C120 166.9 123.3 167.6 125.7 168.9C128.2 170.1 130.4 171.8 132.4 173.9C134.4 176 136.5 178.6 138.9 181.6L163.2 212.4C164.4 214 165.8 215.6 167.1 217.1C168.3 218.5 170 219.2 172.1 219.2C172.3 219.2 172.5 219.2 172.7 219.2C178.5 218.9 184.3 216.9 189.9 213.3C195.5 209.7 200.1 205.7 203.6 201.1C202.3 202.1 200.8 202.9 199.2 203.6Z" fill="black"/>
<path d="M58.3 128.2C58.3 128.3 58.2 128.5 58 128.7C57.8 128.9 57.5 129.1 57.2 129.4C56.9 129.6 56.5 129.8 56.2 130C55.9 130.2 55.7 130.3 55.6 130.4C55.7 130.3 55.8 130.2 55.9 130.1C56 130 56 129.8 56 129.7C56 129.6 55.9 129.5 55.6 129.4C55.4 129.3 55.1 129.2 54.8 129.2C54.5 129.1 54.2 129.1 54 129.1C53.8 129.1 53.6 129.1 53.5 129.1C52.9 129.1 52.3 129.2 51.8 129.4C51.3 129.6 51 129.9 50.7 130.3C50.5 130.7 50.4 131.3 50.5 132C50.6 132.6 50.8 133.1 51.1 133.4C51.4 133.8 51.9 134.1 52.4 134.3C52.9 134.5 53.4 134.7 54 134.9C54.5 135.1 55.1 135.3 55.6 135.5C56.1 135.7 56.5 136 56.9 136.4C57.2 136.8 57.5 137.3 57.5 137.9C57.6 138.6 57.5 139.3 57.3 140C57 140.7 56.6 141.2 56.1 141.8C55.6 142.3 55 142.8 54.3 143.2C53.6 143.6 52.9 143.9 52.2 144.1C51.5 144.3 50.8 144.4 50.2 144.4C50 144.4 49.7 144.4 49.4 144.3C49.1 144.2 48.7 144.2 48.3 144C47.9 143.9 47.6 143.7 47.4 143.6C47.1 143.4 47 143.2 47 142.9C47 142.7 47.1 142.4 47.3 142.2C47.5 142 47.8 141.7 48.1 141.5C48.4 141.3 48.7 141.1 49 140.9C49.3 140.7 49.6 140.6 49.7 140.5C49.6 140.6 49.5 140.8 49.4 140.9C49.3 141.1 49.3 141.2 49.3 141.4C49.3 141.7 49.5 141.9 49.7 142.1C49.9 142.3 50.2 142.4 50.6 142.5C50.9 142.6 51.3 142.7 51.6 142.7C51.9 142.7 52.2 142.8 52.4 142.8C53.4 142.8 54.2 142.5 54.7 141.9C55.3 141.3 55.5 140.5 55.4 139.5C55.3 138.9 55.1 138.4 54.7 138C54.3 137.6 53.9 137.3 53.4 137C52.9 136.7 52.4 136.5 51.8 136.3C51.2 136.1 50.7 135.9 50.2 135.6C49.7 135.4 49.3 135.1 48.9 134.7C48.6 134.4 48.3 133.9 48.3 133.4C48.3 133.2 48.3 133 48.3 132.8C48.3 132.3 48.5 131.7 48.9 131.2C49.3 130.7 49.7 130.2 50.3 129.7C50.9 129.2 51.5 128.8 52.1 128.5C52.7 128.2 53.4 127.9 54 127.7C54.6 127.5 55.2 127.4 55.7 127.4C55.8 127.4 56 127.4 56.3 127.4C56.6 127.4 56.9 127.5 57.2 127.5C57.5 127.6 57.8 127.6 58 127.7C58.2 127.9 58.3 128 58.3 128.2Z" fill="black"/>
<path d="M75.4 127.8C75.1 127.9 74.8 128 74.5 128.3C74.2 128.6 73.8 128.8 73.5 129C73.2 129.2 72.9 129.3 72.7 129.3H65.7L65.3 134.7H73.2C73 134.7 72.8 134.8 72.6 135C72.4 135.1 72.2 135.3 72 135.4C71.9 135.5 71.7 135.6 71.5 135.7C71.3 135.8 71.1 135.9 70.9 136C70.7 136.1 70.5 136.2 70.4 136.2H65.2L65 139.8C65 140 64.9 140.3 64.9 140.7C64.8 141 64.7 141.4 64.6 141.7C64.5 142 64.3 142.2 64.1 142.3H72.5C72.9 142.3 73.3 142.2 73.7 142.1C74.2 142 74.5 141.8 74.9 141.7C74.8 141.8 74.5 142 74.1 142.2C73.7 142.4 73.3 142.7 72.9 142.9C72.5 143.1 72 143.3 71.6 143.5C71.2 143.7 70.9 143.7 70.7 143.7H61.6C62 143.2 62.4 142.6 62.5 142.1C62.6 141.6 62.8 140.9 62.8 140.2L63.1 136.1H61.5L63.2 134.9L63.6 129.2H61.5C61.6 129.1 61.8 129 62 128.8C62.2 128.6 62.5 128.5 62.8 128.3C63.1 128.1 63.3 128 63.6 127.8C63.8 127.7 64 127.6 64.1 127.6H75.4V127.8Z" fill="black"/>
<path d="M82.1 144.8C81 144.8 80.1 144.6 79.3 144.1C78.5 143.6 77.9 143 77.5 142.2C77.1 141.4 76.8 140.5 76.6 139.5C76.5 139.1 76.5 138.7 76.5 138.3C76.5 137.9 76.5 137.5 76.5 137.2C76.6 135.9 76.9 134.6 77.4 133.3C77.7 132.6 78.1 131.8 78.6 131.1C79.1 130.4 79.7 129.7 80.4 129.1C81.1 128.5 81.8 128 82.6 127.7C83.4 127.4 84.3 127.2 85.2 127.2C86.2 127.2 87.1 127.5 87.9 128C88.7 128.5 89.3 129.2 89.7 130C90.2 130.8 90.5 131.7 90.6 132.6C90.6 132.9 90.7 133.2 90.7 133.5C90.7 133.8 90.7 134.1 90.7 134.4C90.7 135.1 90.5 135.8 90.4 136.5C90.2 137.2 90 137.9 89.7 138.5C89.4 139.2 89 139.9 88.5 140.6C88 141.3 87.4 142 86.8 142.6C86.1 143.2 85.4 143.7 84.7 144.1C83.8 144.6 82.9 144.8 82.1 144.8ZM83.4 128.8C82.5 128.8 81.8 129 81.2 129.4C80.6 129.8 80.2 130.4 79.8 131C79.4 131.7 79.2 132.4 79 133.2C78.8 134 78.8 134.8 78.7 135.7C78.7 136.5 78.7 137.3 78.8 137.9C78.9 138.8 79.2 139.7 79.5 140.5C79.9 141.3 80.4 142 81.1 142.5C81.8 143 82.6 143.2 83.7 143.2C84.5 143.2 85.2 143 85.7 142.6C86.3 142.2 86.7 141.6 87.1 140.9C87.5 140.2 87.7 139.5 87.9 138.7C88.1 137.9 88.2 137.2 88.2 136.6C88.2 136.2 88.2 135.7 88.2 135.3C88.2 134.9 88.2 134.4 88.1 134C88 133.1 87.7 132.2 87.3 131.4C86.9 130.6 86.4 130 85.7 129.5C85.3 129.1 84.4 128.8 83.4 128.8Z" fill="black"/>
<path d="M97.6 137.3C97.6 137.9 97.5 138.5 97.5 139.1C97.5 139.7 97.4 140.3 97.2 140.8C97.1 141.4 96.8 141.9 96.4 142.4H100C99.8 142.5 99.5 142.7 99.2 142.9C98.9 143.1 98.7 143.4 98.4 143.6C98.1 143.8 97.9 143.9 97.7 143.9H94C94.4 143.5 94.6 143.1 94.8 142.7C95 142.3 95.1 141.8 95.1 141.2L95.9 129.3H93.5C93.6 129.2 93.7 129.1 93.9 128.9C94.1 128.7 94.3 128.6 94.6 128.4C94.8 128.2 95.1 128.1 95.3 127.9C95.5 127.8 95.7 127.7 95.7 127.7H101.9C102.3 127.7 102.8 127.7 103.3 127.8C103.8 127.8 104.3 128 104.7 128.1C105.2 128.3 105.5 128.5 105.8 128.9C106.1 129.2 106.3 129.7 106.4 130.3C106.5 131.1 106.4 131.9 106.1 132.6C105.8 133.3 105.3 133.9 104.7 134.5C104.1 135 103.5 135.5 102.9 135.9C102.7 136 102.4 136.2 102.2 136.3C102.7 136.5 103.2 136.8 103.7 137.2C104.2 137.7 104.8 138.2 105.3 138.8C105.8 139.4 106.4 140 106.9 140.5C107.4 141.1 107.9 141.5 108.3 141.9C108.7 142.3 109.1 142.4 109.4 142.4C109.6 142.4 109.8 142.4 110 142.3C110.2 142.2 110.3 142.1 110.5 142C110.1 142.5 109.6 143 109 143.3C108.4 143.7 107.7 143.9 107 143.9C106.7 143.9 106.5 143.8 106.3 143.6C106.1 143.4 106 143.2 105.8 143L102.6 139.2C102.3 138.8 102 138.5 101.8 138.3C101.5 138 101.3 137.8 101 137.7C100.7 137.5 100.3 137.4 99.8 137.4C99.5 137.4 99.2 137.3 98.9 137.3C98.6 137.3 98.3 137.3 98 137.3C98 137.3 97.8 137.3 97.6 137.3ZM98.1 129.3L97.7 135.7H99.6C100.3 135.7 101.1 135.6 101.8 135.4C102.5 135.2 103.1 134.9 103.6 134.4C104.1 133.9 104.3 133.3 104.4 132.5C104.4 132.3 104.4 132.1 104.4 131.8C104.3 131.3 104.1 130.8 103.8 130.5C103.5 130.2 103.1 129.9 102.7 129.7C102.3 129.5 101.8 129.4 101.3 129.3C100.8 129.2 100.4 129.2 100 129.2H98.1V129.3Z" fill="black"/>
<path d="M117.8 144.8C116.7 144.8 115.8 144.6 115 144.1C114.2 143.6 113.6 143 113.2 142.2C112.8 141.4 112.5 140.5 112.3 139.5C112.2 139.1 112.2 138.7 112.2 138.3C112.2 137.9 112.2 137.5 112.2 137.2C112.3 135.9 112.6 134.6 113.1 133.3C113.4 132.6 113.8 131.8 114.3 131.1C114.8 130.4 115.4 129.7 116.1 129.1C116.8 128.5 117.5 128 118.3 127.7C119.1 127.4 120 127.2 120.9 127.2C121.9 127.2 122.8 127.5 123.6 128C124.4 128.5 125 129.2 125.4 130C125.9 130.8 126.2 131.7 126.3 132.6C126.3 132.9 126.4 133.2 126.4 133.5C126.4 133.8 126.4 134.1 126.4 134.4C126.4 135.1 126.2 135.8 126.1 136.5C125.9 137.2 125.7 137.9 125.4 138.5C125.1 139.2 124.7 139.9 124.2 140.6C123.7 141.3 123.1 142 122.5 142.6C121.8 143.2 121.1 143.7 120.4 144.1C119.4 144.6 118.6 144.8 117.8 144.8ZM119 128.8C118.1 128.8 117.4 129 116.8 129.4C116.2 129.8 115.8 130.4 115.4 131C115 131.7 114.8 132.4 114.6 133.2C114.4 134 114.4 134.8 114.3 135.7C114.2 136.6 114.3 137.3 114.4 137.9C114.5 138.8 114.8 139.7 115.1 140.5C115.5 141.3 116 142 116.7 142.5C117.4 143 118.2 143.2 119.3 143.2C120.1 143.2 120.8 143 121.3 142.6C121.9 142.2 122.3 141.6 122.7 140.9C123.1 140.2 123.3 139.5 123.5 138.7C123.7 137.9 123.8 137.2 123.8 136.6C123.8 136.2 123.8 135.7 123.8 135.3C123.8 134.9 123.8 134.4 123.7 134C123.6 133.1 123.3 132.2 122.9 131.4C122.5 130.6 122 130 121.3 129.5C120.9 129.1 120.1 128.8 119 128.8Z" fill="black"/>
<path d="M139.3 128.2C139.3 128.3 139.2 128.5 139 128.7C138.8 128.9 138.5 129.1 138.2 129.4C137.9 129.6 137.5 129.8 137.2 130C136.9 130.2 136.7 130.3 136.6 130.4C136.7 130.3 136.8 130.2 136.9 130.1C137 130 137 129.8 137 129.7C137 129.6 136.9 129.5 136.6 129.4C136.4 129.3 136.1 129.2 135.8 129.2C135.5 129.1 135.2 129.1 135 129.1C134.7 129.1 134.6 129.1 134.5 129.1C133.9 129.1 133.3 129.2 132.8 129.4C132.3 129.6 132 129.9 131.7 130.3C131.5 130.7 131.4 131.3 131.5 132C131.6 132.6 131.8 133.1 132.1 133.4C132.4 133.8 132.9 134.1 133.4 134.3C133.9 134.5 134.4 134.7 135 134.9C135.5 135.1 136.1 135.3 136.6 135.5C137.1 135.7 137.5 136 137.9 136.4C138.2 136.8 138.5 137.3 138.5 137.9C138.6 138.6 138.5 139.3 138.3 140C138 140.7 137.6 141.2 137.1 141.8C136.6 142.3 136 142.8 135.3 143.2C134.6 143.6 133.9 143.9 133.2 144.1C132.5 144.3 131.8 144.4 131.2 144.4C131 144.4 130.7 144.4 130.4 144.3C130.1 144.2 129.7 144.2 129.3 144C128.9 143.9 128.6 143.7 128.4 143.6C128.1 143.4 128 143.2 128 142.9C128 142.7 128.1 142.4 128.3 142.2C128.5 142 128.8 141.7 129.1 141.5C129.4 141.3 129.7 141.1 130 140.9C130.3 140.7 130.6 140.6 130.7 140.5C130.6 140.6 130.5 140.8 130.4 140.9C130.3 141.1 130.3 141.2 130.3 141.4C130.3 141.7 130.5 141.9 130.7 142.1C130.9 142.3 131.2 142.4 131.6 142.5C131.9 142.6 132.3 142.7 132.6 142.7C132.9 142.7 133.2 142.8 133.4 142.8C134.4 142.8 135.2 142.5 135.7 141.9C136.3 141.3 136.5 140.5 136.4 139.5C136.3 138.9 136.1 138.4 135.7 138C135.3 137.6 134.9 137.3 134.4 137C133.9 136.7 133.4 136.5 132.8 136.3C132.2 136.1 131.7 135.9 131.2 135.6C130.7 135.4 130.3 135.1 129.9 134.7C129.6 134.4 129.3 133.9 129.3 133.4C129.3 133.2 129.3 133 129.3 132.8C129.3 132.3 129.5 131.7 129.9 131.2C130.3 130.7 130.7 130.2 131.3 129.7C131.9 129.2 132.5 128.8 133.1 128.5C133.7 128.2 134.4 127.9 135 127.7C135.6 127.5 136.2 127.4 136.7 127.4C136.8 127.4 137 127.4 137.3 127.4C137.6 127.4 137.9 127.5 138.2 127.5C138.5 127.6 138.8 127.6 139 127.7C139.2 127.9 139.3 128 139.3 128.2Z" fill="black"/>
<path d="M156.5 127.8C156.4 127.8 156.2 127.9 156 128.1C155.8 128.3 155.7 128.4 155.5 128.5C155.4 128.6 155.3 128.7 155.1 128.8C154.9 128.9 154.8 129.1 154.6 129.2C154.4 129.3 154.3 129.4 154.1 129.4H149.5L148.8 139.7C148.8 140 148.7 140.3 148.7 140.7C148.6 141.1 148.5 141.4 148.4 141.8C148.2 142.1 148.1 142.4 147.8 142.6H151.5C151.3 142.6 151.2 142.7 151 142.9C150.8 143.1 150.6 143.2 150.4 143.4C150.2 143.6 150 143.8 149.8 143.9C149.6 144 149.4 144.1 149.3 144.1H145.4C145.9 143.7 146.2 143.3 146.4 142.9C146.6 142.5 146.7 142 146.7 141.4L147.5 129.5H141.6C141.7 129.4 141.8 129.3 142.1 129.1C142.3 128.9 142.5 128.8 142.8 128.6C143.1 128.4 143.3 128.3 143.5 128.1C143.7 128 143.9 127.9 144 127.9H156.5V127.8Z" fill="black"/>
</svg>
