<svg width="16" height="17" viewBox="0 0 16 17" fill="none" xmlns="http://www.w3.org/2000/svg">
<path d="M1.3335 8.33293H14.6668M1.3335 8.33293C1.3335 12.0148 4.31826 14.9996 8.00016 14.9996M1.3335 8.33293C1.3335 4.65103 4.31826 1.66626 8.00016 1.66626M14.6668 8.33293C14.6668 12.0148 11.6821 14.9996 8.00016 14.9996M14.6668 8.33293C14.6668 4.65103 11.6821 1.66626 8.00016 1.66626M8.00016 1.66626C9.66768 3.49183 10.6153 5.86095 10.6668 8.33293C10.6153 10.8049 9.66768 13.174 8.00016 14.9996M8.00016 1.66626C6.33264 3.49183 5.38499 5.86095 5.3335 8.33293C5.38499 10.8049 6.33264 13.174 8.00016 14.9996" stroke="#B87CFF" stroke-linecap="round" stroke-linejoin="round"/>
</svg>
