<svg width="16" height="17" viewBox="0 0 16 17" fill="none" xmlns="http://www.w3.org/2000/svg">
<path d="M5.58685 6.23524C6.05085 7.20166 6.68337 8.10742 7.48443 8.90847C8.28548 9.70952 9.19124 10.342 10.1577 10.806C10.2408 10.846 10.2823 10.8659 10.3349 10.8812C10.5218 10.9357 10.7513 10.8966 10.9096 10.7833C10.9542 10.7514 10.9923 10.7133 11.0685 10.637C11.3016 10.404 11.4181 10.2874 11.5353 10.2112C11.9772 9.92392 12.5469 9.92392 12.9889 10.2112C13.106 10.2874 13.2226 10.404 13.4556 10.637L13.5856 10.767C13.9398 11.1213 14.117 11.2984 14.2132 11.4887C14.4046 11.867 14.4046 12.3139 14.2132 12.6922C14.117 12.8825 13.9399 13.0596 13.5856 13.4139L13.4805 13.519C13.1274 13.8721 12.9508 14.0487 12.7108 14.1835C12.4445 14.3331 12.0308 14.4407 11.7253 14.4398C11.45 14.4389 11.2619 14.3855 10.8856 14.2787C8.86333 13.7048 6.95509 12.6218 5.36311 11.0298C3.77112 9.4378 2.68814 7.52956 2.11416 5.5073C2.00735 5.131 1.95395 4.94285 1.95313 4.66755C1.95222 4.36207 2.0598 3.94841 2.20941 3.68207C2.34424 3.44205 2.52078 3.26551 2.87386 2.91243L2.97895 2.80734C3.33325 2.45305 3.5104 2.2759 3.70065 2.17967C4.07903 1.98829 4.52587 1.98829 4.90424 2.17967C5.0945 2.2759 5.27164 2.45304 5.62594 2.80734L5.75585 2.93725C5.98892 3.17032 6.10546 3.28686 6.18165 3.40404C6.46898 3.84597 6.46898 4.41569 6.18165 4.85762C6.10546 4.9748 5.98892 5.09134 5.75585 5.32441C5.67964 5.40062 5.64154 5.43872 5.60965 5.48326C5.4963 5.64155 5.45717 5.87106 5.51165 6.05796C5.52698 6.11055 5.54694 6.15212 5.58685 6.23524Z" stroke="#B87CFF" stroke-linecap="round" stroke-linejoin="round"/>
</svg>
