<svg width="16" height="17" viewBox="0 0 16 17" fill="none" xmlns="http://www.w3.org/2000/svg">
<path d="M1.3335 4.99976L6.77678 8.81005C7.21756 9.1186 7.43795 9.27287 7.67767 9.33263C7.88943 9.38541 8.1109 9.38541 8.32265 9.33263C8.56238 9.27287 8.78277 9.1186 9.22355 8.81005L14.6668 4.99976M4.5335 13.6664H11.4668C12.5869 13.6664 13.147 13.6664 13.5748 13.4484C13.9511 13.2567 14.2571 12.9507 14.4488 12.5744C14.6668 12.1466 14.6668 11.5865 14.6668 10.4664V6.19976C14.6668 5.07965 14.6668 4.5196 14.4488 4.09177C14.2571 3.71545 13.9511 3.40949 13.5748 3.21774C13.147 2.99976 12.5869 2.99976 11.4668 2.99976H4.5335C3.41339 2.99976 2.85334 2.99976 2.42552 3.21774C2.04919 3.40949 1.74323 3.71545 1.55148 4.09177C1.3335 4.5196 1.3335 5.07965 1.3335 6.19976V10.4664C1.3335 11.5865 1.3335 12.1466 1.55148 12.5744C1.74323 12.9507 2.04919 13.2567 2.42552 13.4484C2.85334 13.6664 3.41339 13.6664 4.5335 13.6664Z" stroke="#B87CFF" stroke-linecap="round" stroke-linejoin="round"/>
</svg>
