<svg width="16" height="17" viewBox="0 0 16 17" fill="none" xmlns="http://www.w3.org/2000/svg">
<path d="M13.3332 14.333C13.3332 13.4026 13.3332 12.9374 13.2183 12.5589C12.9598 11.7066 12.2929 11.0397 11.4406 10.7812C11.0621 10.6663 10.5969 10.6663 9.6665 10.6663H6.33317C5.4028 10.6663 4.93761 10.6663 4.55908 10.7812C3.70681 11.0397 3.03986 11.7066 2.78133 12.5589C2.6665 12.9374 2.6665 13.4026 2.6665 14.333M10.9998 5.33301C10.9998 6.98986 9.65669 8.33301 7.99984 8.33301C6.34298 8.33301 4.99984 6.98986 4.99984 5.33301C4.99984 3.67615 6.34298 2.33301 7.99984 2.33301C9.65669 2.33301 10.9998 3.67615 10.9998 5.33301Z" stroke="#B87CFF" stroke-linecap="round" stroke-linejoin="round"/>
</svg>
