<svg width="46" height="46" viewBox="0 0 46 46" fill="none" xmlns="http://www.w3.org/2000/svg">
<g clip-path="url(#clip0_63_304)">
<path fill-rule="evenodd" clip-rule="evenodd" d="M45.0378 23.9423V23.9624C45.0378 24.2691 44.8844 24.5307 44.6592 24.7061L26.5094 42.8559C26.1442 43.2211 25.5529 43.2211 25.1859 42.8559C24.8208 42.4898 24.8208 41.8976 25.1859 41.5325L43.1211 23.5973V17.254C43.1211 16.725 43.5514 16.2957 44.0794 16.2957C44.6094 16.2957 45.0378 16.725 45.0378 17.254V23.9365C45.0378 23.9384 45.0378 23.9394 45.0378 23.9423ZM18.9807 44.6346C18.95 44.6806 18.9299 44.7323 18.8897 44.7726C18.7009 44.9604 18.4517 45.0476 18.2044 45.0419C17.9572 45.0476 17.708 44.9604 17.5192 44.7726C17.479 44.7323 17.4598 44.6806 17.4282 44.6346L1.36557 28.571C1.31957 28.5403 1.26878 28.5202 1.22757 28.48C1.03878 28.2912 0.953485 28.043 0.958277 27.7957C0.952527 27.5485 1.03878 27.2993 1.22757 27.1105C1.26878 27.0703 1.31957 27.0511 1.36557 27.0195L23.2117 5.1733C23.3871 4.94905 23.6478 4.79476 23.9544 4.79476H23.9746C23.9765 4.79476 23.9784 4.79476 23.9803 4.79476H27.8414C27.9689 3.35534 28.5564 2.09226 29.4419 1.26522L29.4572 1.28247C29.6441 1.08409 29.9009 0.961426 30.1836 0.961426C30.7509 0.961426 31.2109 1.45209 31.2109 2.0568C31.2109 2.41618 31.0384 2.71901 30.7883 2.91834C30.3293 3.34193 30.0025 4.00988 29.8932 4.79476H34.4693C34.4712 4.79476 34.4731 4.79476 34.4769 4.79476H34.4961C34.8028 4.79476 35.0654 4.94809 35.2388 5.1733L40.8259 10.7604C41.0502 10.9358 41.2044 11.1974 41.2044 11.5041V11.5242C41.2044 11.5261 41.2044 11.528 41.2044 11.5299V22.0189C41.2044 22.0208 41.2044 22.0227 41.2044 22.0256V22.0457C41.2044 22.3524 41.0511 22.614 40.8259 22.7884L18.9807 44.6346ZM39.2878 11.8692L34.131 6.71238H30.0935C30.2622 7.13788 30.4999 7.50013 30.7883 7.76655C30.8276 7.79818 30.8765 7.81734 30.91 7.85472L30.9273 7.83747C31.9249 8.76993 32.5804 10.241 32.5804 11.9142C32.5804 11.9545 32.5708 11.9899 32.5689 12.0292C33.716 12.6914 34.4971 13.9171 34.4971 15.3374C34.4971 17.4543 32.7807 19.1707 30.6637 19.1707C28.5468 19.1707 26.8304 17.4543 26.8304 15.3374C26.8304 13.2798 28.4548 11.6143 30.4912 11.5213C30.405 10.6703 30.0686 9.94197 29.5818 9.49155C29.5425 9.45993 29.4936 9.44076 29.4582 9.40338L29.4428 9.42063C28.7298 8.75459 28.2037 7.80584 27.9545 6.71238H24.3196L3.23624 27.7957L18.2044 42.7639L39.2878 21.6806V11.8692ZM29.5808 14.3378C29.8185 14.1184 30.013 13.8232 30.1721 13.4916C29.3527 13.7101 28.7461 14.45 28.7461 15.3364C28.7461 16.3944 29.6048 17.2531 30.6628 17.2531C31.7217 17.2531 32.5794 16.3944 32.5794 15.3364C32.5794 14.8831 32.4165 14.473 32.153 14.1443C31.5636 15.6249 30.91 15.9737 30.91 15.9737C30.7251 16.1721 30.4682 16.2938 30.1836 16.2938C29.6163 16.2938 29.1582 15.8031 29.1582 15.1984C29.1582 14.841 29.3297 14.5381 29.5808 14.3378ZM11.7702 26.1522C12.1363 25.7871 12.7285 25.7871 13.0937 26.1522L19.8489 32.9075C20.2141 33.2726 20.2141 33.8648 19.8489 34.2309C19.4838 34.5961 18.8906 34.5961 18.5255 34.2309L11.7702 27.4756C11.4051 27.1105 11.4051 26.5183 11.7702 26.1522ZM15.6035 22.3188C15.9696 21.9537 16.5619 21.9537 16.927 22.3188L23.6823 29.0741C24.0464 29.4393 24.0464 30.0315 23.6823 30.3976C23.3172 30.7627 22.7239 30.7627 22.3588 30.3976L15.6035 23.6423C15.2384 23.2772 15.2384 22.6849 15.6035 22.3188Z" fill="url(#paint0_linear_63_304)"/>
</g>
<defs>
<linearGradient id="paint0_linear_63_304" x1="0.958008" y1="23.0018" x2="45.0378" y2="23.0018" gradientUnits="userSpaceOnUse">
<stop stop-color="#903BE9"/>
<stop offset="1" stop-color="#406EF7"/>
</linearGradient>
<clipPath id="clip0_63_304">
<rect width="46" height="46" fill="white"/>
</clipPath>
</defs>
</svg>
