<svg width="172" height="188" viewBox="0 0 172 188" fill="none" xmlns="http://www.w3.org/2000/svg">
<mask id="mask0_63_3170" style="mask-type:alpha" maskUnits="userSpaceOnUse" x="0" y="0" width="172" height="188">
<rect width="172" height="188" fill="#D9D9D9"/>
</mask>
<g mask="url(#mask0_63_3170)">
<path d="M17.7879 145.216C17.7021 145.087 17.6163 145.001 17.5305 144.872C16.8869 144.486 16.2862 144.014 15.6855 143.542L17.7879 145.216Z" fill="#F3F4F9"/>
<path d="M126.808 56.7462C121.445 41.1718 107.072 30.1024 90.2536 32.8054C73.3921 35.5084 58.2039 48.5085 49.5801 62.7957C49.4084 63.0532 49.2797 63.3535 49.1081 63.6109C43.745 72.8783 40.3127 83.0896 35.2928 92.5286C29.6723 103.126 19.6756 111.321 15.7283 123.077C12.7679 131.915 12.6821 143.928 23.0221 147.704C34.306 151.823 47.6923 152.852 59.6197 153.196C78.6694 153.711 97.6332 148.176 111.019 134.103C122.69 121.875 129.168 105.271 130.541 88.5385C131.485 77.8123 130.284 66.9146 126.808 56.7462Z" fill="#F3F4F9"/>
<path d="M112.135 42.416H65.7123C62.7947 42.416 60.3921 44.7757 60.3921 47.7361V136.334C60.3921 139.252 62.7518 141.654 65.7123 141.654H112.135C115.053 141.654 117.455 139.295 117.455 136.334V47.7361C117.455 44.8186 115.053 42.416 112.135 42.416Z" fill="#021A58"/>
<path d="M109.003 50.4391H68.8442C66.3128 50.4391 64.2534 52.4985 64.2534 55.0299V131.786C64.2534 134.318 66.3128 136.377 68.8442 136.377H109.003C111.534 136.377 113.594 134.318 113.594 131.786V55.0299C113.594 52.4985 111.534 50.4391 109.003 50.4391Z" fill="#BBBAF6"/>
<path d="M93.9435 46.3632H83.9468V47.4358H93.9435V46.3632Z" fill="#BBBAF6"/>
<path d="M88.9235 76.3106C93.1887 76.3106 96.6463 72.853 96.6463 68.5878C96.6463 64.3226 93.1887 60.8649 88.9235 60.8649C84.6583 60.8649 81.2007 64.3226 81.2007 68.5878C81.2007 72.853 84.6583 76.3106 88.9235 76.3106Z" fill="white"/>
<path d="M102.781 97.4626H75.1079V84.1192C75.1079 79.7859 78.6261 76.2677 82.9595 76.2677H94.9728C99.3061 76.2677 102.824 79.7859 102.824 84.1192V97.4626H102.781Z" fill="white"/>
<path d="M108.359 102.826H69.1445V106.473H108.359V102.826Z" fill="#CACBF7"/>
<path d="M108.359 109.304H69.1445V112.951H108.359V109.304Z" fill="#CACBF7"/>
<path d="M108.359 115.783H69.1445V119.43H108.359V115.783Z" fill="#CACBF7"/>
<path d="M52.5858 70.1433C53.7794 64.317 50.024 58.6262 44.1978 57.4326C38.3715 56.2389 32.6807 59.9943 31.487 65.8206C30.2934 71.6468 34.0488 77.3376 39.8751 78.5313C45.7013 79.725 51.3921 75.9695 52.5858 70.1433Z" fill="#4F66F5"/>
<path d="M48.821 73.1449C51.6744 69.3313 50.896 63.9267 47.0824 61.0733C43.2688 58.2199 37.8642 58.9982 35.0108 62.8118C32.1574 66.6254 32.9358 72.0301 36.7493 74.8835C40.5629 77.7369 45.9676 76.9585 48.821 73.1449Z" fill="#BBBAF6"/>
<path d="M49.3388 75.2456L46.9702 77.0216L54.9491 87.6632L57.3178 85.8873L49.3388 75.2456Z" fill="#4F66F5"/>
<mask id="mask1_63_3170" style="mask-type:luminance" maskUnits="userSpaceOnUse" x="33" y="58" width="18" height="18">
<path d="M50.9405 66.2217C50.5357 61.4225 46.3972 57.7799 41.6968 58.0858C36.9965 58.3917 33.5142 62.5302 33.919 67.3294C34.3237 72.1287 38.4623 75.7713 43.1626 75.4654C47.863 75.1595 51.3452 71.021 50.9405 66.2217Z" fill="white"/>
</mask>
<g mask="url(#mask1_63_3170)">
<path d="M47.7708 57.6439L30.5874 72.6155L33.3181 75.7446L50.5015 60.773L47.7708 57.6439Z" fill="#D2D2F7"/>
</g>
<mask id="mask2_63_3170" style="mask-type:luminance" maskUnits="userSpaceOnUse" x="32" y="60" width="18" height="18">
<path d="M49.6558 68.6015C49.251 63.8022 45.1125 60.1596 40.4122 60.4655C35.7118 60.7714 32.2295 64.9099 32.6343 69.7092C33.0391 74.5084 37.1776 78.151 41.8779 77.8451C46.5783 77.5392 50.0606 73.4007 49.6558 68.6015Z" fill="white"/>
</mask>
<g mask="url(#mask2_63_3170)">
<path d="M51.0124 61.3352L33.8052 76.3323L35.1868 77.916L52.394 62.9189L51.0124 61.3352Z" fill="#D2D2F7"/>
</g>
<path d="M53.0979 121.318H30.7017V122.347H53.0979V121.318Z" fill="#021A58"/>
<path d="M36.794 109.433H31.2593V119.859H36.794V109.433Z" fill="#BBBAF6"/>
<path d="M44.6885 103.641H39.1538V119.859H44.6885V103.641Z" fill="#BBBAF6"/>
<path d="M52.5825 97.3766H47.0479V119.816H52.5825V97.3766Z" fill="#BBBAF6"/>
<path d="M52.2402 45.2478C53.1643 45.2478 53.9134 44.4987 53.9134 43.5745C53.9134 42.6504 53.1643 41.9012 52.2402 41.9012C51.316 41.9012 50.5669 42.6504 50.5669 43.5745C50.5669 44.4987 51.316 45.2478 52.2402 45.2478Z" fill="#4F66F5"/>
<path d="M46.834 41.3434C46.834 41.3434 51.4248 36.1949 57.646 41.3434" stroke="#4F66F5" stroke-width="2" stroke-miterlimit="10" stroke-linecap="round" stroke-linejoin="round"/>
<path d="M43.7451 38.5117C43.7451 38.5117 50.996 30.4457 60.7783 38.5117" stroke="#4F66F5" stroke-width="3" stroke-miterlimit="10" stroke-linecap="round" stroke-linejoin="round"/>
<path d="M40.8276 34.9935C40.8276 34.9935 50.5241 24.1386 63.6529 34.9935" stroke="#4F66F5" stroke-width="5" stroke-miterlimit="10" stroke-linecap="round" stroke-linejoin="round"/>
<path d="M129.211 28H112.092C110.033 28 108.359 29.6733 108.359 31.7327V40.3136C108.359 41.9011 109.346 43.2311 110.719 43.7889L112.907 48.1652L115.267 44.0892H129.211C131.27 44.0892 132.944 42.4159 132.944 40.3565V31.7756C132.944 29.6733 131.27 28 129.211 28Z" fill="#BBBAF6"/>
<path d="M113.937 38.4259C115.287 38.4259 116.382 37.3309 116.382 35.9803C116.382 34.6296 115.287 33.5347 113.937 33.5347C112.586 33.5347 111.491 34.6296 111.491 35.9803C111.491 37.3309 112.586 38.4259 113.937 38.4259Z" fill="#8FC5FF"/>
<path d="M120.63 38.4258C121.981 38.4258 123.076 37.3309 123.076 35.9802C123.076 34.6296 121.981 33.5347 120.63 33.5347C119.279 33.5347 118.185 34.6296 118.185 35.9802C118.185 37.3309 119.279 38.4258 120.63 38.4258Z" fill="#8FC5FF"/>
<path d="M127.323 38.4258C128.674 38.4258 129.769 37.3309 129.769 35.9802C129.769 34.6296 128.674 33.5347 127.323 33.5347C125.972 33.5347 124.877 34.6296 124.877 35.9802C124.877 37.3309 125.972 38.4258 127.323 38.4258Z" fill="#8FC5FF"/>
<path d="M57.0884 141.998H37.8672V145.13H57.0884V141.998Z" fill="#4F66F5"/>
<path d="M57.0884 150.579H37.8672V153.711H57.0884V150.579Z" fill="#4F66F5"/>
<path d="M61.7222 146.288H42.501V149.42H61.7222V146.288Z" fill="#4F66F5"/>
<path d="M131.828 144.744H124.835V137.536H121.317V144.744H114.323V148.262H121.317V155.041H124.835V148.262H131.828V144.744Z" fill="#BBBAF6"/>
<g opacity="0.41">
<mask id="mask3_63_3170" style="mask-type:luminance" maskUnits="userSpaceOnUse" x="53" y="43" width="85" height="97">
<path d="M87.9812 44.5948L55.3197 64.6793C53.2609 65.9453 52.7185 68.7569 54.1107 70.9468L96.3235 137.349C97.7156 139.539 100.523 140.291 102.582 139.025L135.244 118.94C137.302 117.674 137.845 114.863 136.453 112.673L94.2397 46.2703C92.8476 44.0804 90.04 43.3288 87.9812 44.5948Z" fill="white"/>
</mask>
<g mask="url(#mask3_63_3170)">
<path d="M118.742 51.6183L49.2842 94.593L59.9124 111.415L129.37 68.4401L118.742 51.6183Z" fill="#D2D2F7"/>
</g>
<mask id="mask4_63_3170" style="mask-type:luminance" maskUnits="userSpaceOnUse" x="43" y="47" width="85" height="97">
<path d="M78.6194 48.5136L45.9579 68.5981C43.8991 69.8641 43.3567 72.6757 44.7489 74.8656L86.9617 141.268C88.3538 143.458 91.1614 144.21 93.2202 142.944L125.882 122.859C127.941 121.593 128.483 118.782 127.091 116.592L84.8779 50.1892C83.4858 47.9993 80.6782 47.2476 78.6194 48.5136Z" fill="white"/>
</mask>
<g mask="url(#mask4_63_3170)">
<path d="M124.565 75.1361L54.7051 118.605L58.3576 124.419L128.218 80.95L124.565 75.1361Z" fill="#D2D2F7"/>
</g>
</g>
<path d="M124.148 107.116C124.148 107.588 123.762 107.931 123.333 107.931C122.861 107.931 122.518 107.545 122.518 107.116C122.518 106.644 122.904 106.301 123.333 106.301C123.805 106.301 124.148 106.644 124.148 107.116Z" fill="#BBBAF6"/>
<path d="M127.751 107.116C127.751 107.588 127.365 107.931 126.936 107.931C126.507 107.931 126.121 107.545 126.121 107.116C126.121 106.644 126.507 106.301 126.936 106.301C127.365 106.301 127.751 106.644 127.751 107.116Z" fill="#BBBAF6"/>
<path d="M131.313 107.116C131.313 107.588 130.926 107.931 130.497 107.931C130.068 107.931 129.682 107.545 129.682 107.116C129.682 106.644 130.068 106.301 130.497 106.301C130.926 106.301 131.313 106.644 131.313 107.116Z" fill="#BBBAF6"/>
<path d="M134.917 107.116C134.917 107.588 134.531 107.931 134.102 107.931C133.63 107.931 133.287 107.545 133.287 107.116C133.287 106.644 133.673 106.301 134.102 106.301C134.531 106.301 134.917 106.644 134.917 107.116Z" fill="#BBBAF6"/>
<path d="M124.148 110.377C124.148 110.849 123.762 111.192 123.333 111.192C122.861 111.192 122.518 110.806 122.518 110.377C122.518 109.905 122.904 109.562 123.333 109.562C123.805 109.519 124.148 109.905 124.148 110.377Z" fill="#BBBAF6"/>
<path d="M127.751 110.377C127.751 110.849 127.365 111.192 126.936 111.192C126.507 111.192 126.121 110.806 126.121 110.377C126.121 109.905 126.507 109.562 126.936 109.562C127.365 109.562 127.751 109.905 127.751 110.377Z" fill="#BBBAF6"/>
<path d="M131.313 110.377C131.313 110.849 130.926 111.192 130.497 111.192C130.068 111.192 129.682 110.806 129.682 110.377C129.682 109.905 130.068 109.562 130.497 109.562C130.926 109.562 131.313 109.905 131.313 110.377Z" fill="#BBBAF6"/>
<path d="M134.917 110.377C134.917 110.849 134.531 111.192 134.102 111.192C133.63 111.192 133.287 110.806 133.287 110.377C133.287 109.905 133.673 109.562 134.102 109.562C134.531 109.519 134.917 109.905 134.917 110.377Z" fill="#BBBAF6"/>
<path d="M124.148 113.595C124.148 114.067 123.762 114.41 123.333 114.41C122.861 114.41 122.518 114.024 122.518 113.595C122.518 113.123 122.904 112.78 123.333 112.78C123.805 112.78 124.148 113.123 124.148 113.595Z" fill="#BBBAF6"/>
<path d="M127.751 113.595C127.751 114.067 127.365 114.41 126.936 114.41C126.507 114.41 126.121 114.024 126.121 113.595C126.121 113.123 126.507 112.78 126.936 112.78C127.365 112.78 127.751 113.123 127.751 113.595Z" fill="#BBBAF6"/>
<path d="M131.313 113.595C131.313 114.067 130.926 114.41 130.497 114.41C130.068 114.41 129.682 114.024 129.682 113.595C129.682 113.123 130.068 112.78 130.497 112.78C130.926 112.78 131.313 113.123 131.313 113.595Z" fill="#BBBAF6"/>
<path d="M134.917 113.595C134.917 114.067 134.531 114.41 134.102 114.41C133.63 114.41 133.287 114.024 133.287 113.595C133.287 113.123 133.673 112.78 134.102 112.78C134.531 112.78 134.917 113.123 134.917 113.595Z" fill="#BBBAF6"/>
<path d="M124.148 116.856C124.148 117.327 123.762 117.671 123.333 117.671C122.861 117.671 122.518 117.285 122.518 116.856C122.518 116.384 122.904 116.04 123.333 116.04C123.805 115.997 124.148 116.384 124.148 116.856Z" fill="#BBBAF6"/>
<path d="M127.751 116.855C127.751 117.327 127.365 117.671 126.936 117.671C126.507 117.671 126.121 117.284 126.121 116.855C126.121 116.383 126.507 116.04 126.936 116.04C127.365 116.04 127.751 116.383 127.751 116.855Z" fill="#BBBAF6"/>
<path d="M130.497 117.671C130.948 117.671 131.313 117.306 131.313 116.855C131.313 116.405 130.948 116.04 130.497 116.04C130.047 116.04 129.682 116.405 129.682 116.855C129.682 117.306 130.047 117.671 130.497 117.671Z" fill="#BBBAF6"/>
<path d="M134.917 116.855C134.917 117.327 134.531 117.671 134.102 117.671C133.63 117.671 133.287 117.284 133.287 116.855C133.287 116.383 133.673 116.04 134.102 116.04C134.531 115.997 134.917 116.383 134.917 116.855Z" fill="#BBBAF6"/>
<path d="M88.6661 29.8879C88.6661 30.1453 88.4516 30.3599 88.1941 30.3599C87.9367 30.3599 87.7222 30.1453 87.7222 29.8879C87.7222 29.6305 87.9367 29.416 88.1941 29.416C88.4516 29.416 88.6661 29.5876 88.6661 29.8879Z" fill="#BBBAF6"/>
<path d="M90.7256 29.888C90.7256 30.1454 90.5111 30.3599 90.2537 30.3599C89.9963 30.3599 89.7817 30.1454 89.7817 29.888C89.7817 29.6305 89.9963 29.416 90.2537 29.416C90.5111 29.416 90.7256 29.5876 90.7256 29.888Z" fill="#BBBAF6"/>
<path d="M92.7422 29.888C92.7422 30.1454 92.5277 30.3599 92.2703 30.3599C92.0129 30.3599 91.7983 30.1454 91.7983 29.888C91.7983 29.6305 92.0129 29.416 92.2703 29.416C92.5277 29.416 92.7422 29.5876 92.7422 29.888Z" fill="#BBBAF6"/>
<path d="M94.8013 29.888C94.8013 30.1454 94.5868 30.3599 94.3294 30.3599C94.072 30.3599 93.8574 30.1454 93.8574 29.888C93.8574 29.6305 94.072 29.416 94.3294 29.416C94.5868 29.416 94.8013 29.5876 94.8013 29.888Z" fill="#BBBAF6"/>
<path d="M88.1941 32.2048C88.4548 32.2048 88.6661 31.9935 88.6661 31.7329C88.6661 31.4722 88.4548 31.2609 88.1941 31.2609C87.9335 31.2609 87.7222 31.4722 87.7222 31.7329C87.7222 31.9935 87.9335 32.2048 88.1941 32.2048Z" fill="#BBBAF6"/>
<path d="M90.2537 32.2048C90.5144 32.2048 90.7256 31.9935 90.7256 31.7329C90.7256 31.4722 90.5144 31.2609 90.2537 31.2609C89.9931 31.2609 89.7817 31.4722 89.7817 31.7329C89.7817 31.9935 89.9931 32.2048 90.2537 32.2048Z" fill="#BBBAF6"/>
<path d="M92.7422 31.7329C92.7422 31.9903 92.5277 32.2048 92.2703 32.2048C92.0129 32.2048 91.7983 31.9903 91.7983 31.7329C91.7983 31.4755 92.0129 31.2609 92.2703 31.2609C92.5277 31.2609 92.7422 31.4755 92.7422 31.7329Z" fill="#BBBAF6"/>
<path d="M94.8013 31.7329C94.8013 31.9903 94.5868 32.2048 94.3294 32.2048C94.072 32.2048 93.8574 31.9903 93.8574 31.7329C93.8574 31.4755 94.072 31.2609 94.3294 31.2609C94.5868 31.2609 94.8013 31.4755 94.8013 31.7329Z" fill="#BBBAF6"/>
<path d="M88.6661 33.5777C88.6661 33.8352 88.4516 34.0497 88.1941 34.0497C87.9367 34.0497 87.7222 33.8352 87.7222 33.5777C87.7222 33.3203 87.9367 33.1058 88.1941 33.1058C88.4516 33.1058 88.6661 33.3203 88.6661 33.5777Z" fill="#BBBAF6"/>
<path d="M90.7256 33.5777C90.7256 33.8352 90.5111 34.0497 90.2537 34.0497C89.9963 34.0497 89.7817 33.8352 89.7817 33.5777C89.7817 33.3203 89.9963 33.1058 90.2537 33.1058C90.5111 33.1058 90.7256 33.3203 90.7256 33.5777Z" fill="#BBBAF6"/>
<path d="M92.7422 33.5777C92.7422 33.8352 92.5277 34.0497 92.2703 34.0497C92.0129 34.0497 91.7983 33.8352 91.7983 33.5777C91.7983 33.3203 92.0129 33.1058 92.2703 33.1058C92.5277 33.1058 92.7422 33.3203 92.7422 33.5777Z" fill="#BBBAF6"/>
<path d="M94.8013 33.5777C94.8013 33.8352 94.5868 34.0497 94.3294 34.0497C94.072 34.0497 93.8574 33.8352 93.8574 33.5777C93.8574 33.3203 94.072 33.1058 94.3294 33.1058C94.5868 33.1058 94.8013 33.3203 94.8013 33.5777Z" fill="#BBBAF6"/>
<path d="M88.1941 35.8946C88.4548 35.8946 88.6661 35.6833 88.6661 35.4227C88.6661 35.162 88.4548 34.9507 88.1941 34.9507C87.9335 34.9507 87.7222 35.162 87.7222 35.4227C87.7222 35.6833 87.9335 35.8946 88.1941 35.8946Z" fill="#BBBAF6"/>
<path d="M90.2537 35.8946C90.5144 35.8946 90.7256 35.6833 90.7256 35.4226C90.7256 35.162 90.5144 34.9507 90.2537 34.9507C89.9931 34.9507 89.7817 35.162 89.7817 35.4226C89.7817 35.6833 89.9931 35.8946 90.2537 35.8946Z" fill="#BBBAF6"/>
<path d="M92.7422 35.4226C92.7422 35.6801 92.5277 35.8946 92.2703 35.8946C92.0129 35.8946 91.7983 35.6801 91.7983 35.4226C91.7983 35.1652 92.0129 34.9507 92.2703 34.9507C92.5277 34.9507 92.7422 35.1652 92.7422 35.4226Z" fill="#BBBAF6"/>
<path d="M94.8013 35.4226C94.8013 35.6801 94.5868 35.8946 94.3294 35.8946C94.072 35.8946 93.8574 35.6801 93.8574 35.4226C93.8574 35.1652 94.072 34.9507 94.3294 34.9507C94.5868 34.9507 94.8013 35.1652 94.8013 35.4226Z" fill="#BBBAF6"/>
<path d="M20.2331 85.621C20.2331 86.3075 19.6753 86.8652 18.9889 86.8652C18.3024 86.8652 17.7446 86.3075 17.7446 85.621C17.7446 84.9345 18.3024 84.3768 18.9889 84.3768C19.7182 84.3768 20.2331 84.9345 20.2331 85.621Z" fill="#BBBAF6"/>
<path d="M25.5529 85.6211C25.5529 86.3075 24.9952 86.8653 24.3087 86.8653C23.6222 86.8653 23.0645 86.3075 23.0645 85.6211C23.0645 84.9346 23.6222 84.3768 24.3087 84.3768C24.9952 84.3768 25.5529 84.9346 25.5529 85.6211Z" fill="#BBBAF6"/>
<path d="M30.8303 85.6211C30.8303 86.3075 30.2725 86.8653 29.586 86.8653C28.8996 86.8653 28.3418 86.3075 28.3418 85.6211C28.3418 84.9346 28.8996 84.3768 29.586 84.3768C30.3154 84.3768 30.8303 84.9346 30.8303 85.6211Z" fill="#BBBAF6"/>
<path d="M36.1506 85.6211C36.1506 86.3075 35.5928 86.8653 34.9064 86.8653C34.2199 86.8653 33.6621 86.3075 33.6621 85.6211C33.6621 84.9346 34.2199 84.3768 34.9064 84.3768C35.5928 84.3768 36.1506 84.9346 36.1506 85.6211Z" fill="#BBBAF6"/>
<path d="M20.2331 90.3834C20.2331 91.0699 19.6753 91.6276 18.9889 91.6276C18.3024 91.6276 17.7446 91.0699 17.7446 90.3834C17.7446 89.6969 18.3024 89.1392 18.9889 89.1392C19.7182 89.1821 20.2331 89.7398 20.2331 90.3834Z" fill="#BBBAF6"/>
<path d="M25.5529 90.3834C25.5529 91.0699 24.9952 91.6276 24.3087 91.6276C23.6222 91.6276 23.0645 91.0699 23.0645 90.3834C23.0645 89.6969 23.6222 89.1392 24.3087 89.1392C24.9952 89.1821 25.5529 89.7398 25.5529 90.3834Z" fill="#BBBAF6"/>
<path d="M30.8303 90.3834C30.8303 91.0699 30.2725 91.6276 29.586 91.6276C28.8996 91.6276 28.3418 91.0699 28.3418 90.3834C28.3418 89.6969 28.8996 89.1392 29.586 89.1392C30.3154 89.1821 30.8303 89.7398 30.8303 90.3834Z" fill="#BBBAF6"/>
<path d="M36.1506 90.3834C36.1506 91.0699 35.5928 91.6276 34.9064 91.6276C34.2199 91.6276 33.6621 91.0699 33.6621 90.3834C33.6621 89.6969 34.2199 89.1392 34.9064 89.1392C35.5928 89.1821 36.1506 89.7398 36.1506 90.3834Z" fill="#BBBAF6"/>
<path d="M20.2331 95.1888C20.2331 95.8753 19.6753 96.433 18.9889 96.433C18.3024 96.433 17.7446 95.8753 17.7446 95.1888C17.7446 94.5023 18.3024 93.9446 18.9889 93.9446C19.7182 93.9875 20.2331 94.5023 20.2331 95.1888Z" fill="#BBBAF6"/>
<path d="M25.5529 95.1888C25.5529 95.8753 24.9952 96.433 24.3087 96.433C23.6222 96.433 23.0645 95.8753 23.0645 95.1888C23.0645 94.5023 23.6222 93.9446 24.3087 93.9446C24.9952 93.9875 25.5529 94.5023 25.5529 95.1888Z" fill="#BBBAF6"/>
<path d="M30.8303 95.1888C30.8303 95.8753 30.2725 96.433 29.586 96.433C28.8996 96.433 28.3418 95.8753 28.3418 95.1888C28.3418 94.5023 28.8996 93.9446 29.586 93.9446C30.3154 93.9875 30.8303 94.5023 30.8303 95.1888Z" fill="#BBBAF6"/>
<path d="M36.1506 95.1888C36.1506 95.8753 35.5928 96.433 34.9064 96.433C34.2199 96.433 33.6621 95.8753 33.6621 95.1888C33.6621 94.5023 34.2199 93.9446 34.9064 93.9446C35.5928 93.9875 36.1506 94.5023 36.1506 95.1888Z" fill="#BBBAF6"/>
<path d="M20.2331 99.9941C20.2331 100.681 19.6753 101.238 18.9889 101.238C18.3024 101.238 17.7446 100.681 17.7446 99.9941C17.7446 99.3076 18.3024 98.7499 18.9889 98.7499C19.7182 98.7499 20.2331 99.3076 20.2331 99.9941Z" fill="#BBBAF6"/>
<path d="M25.5529 99.9941C25.5529 100.681 24.9952 101.238 24.3087 101.238C23.6222 101.238 23.0645 100.681 23.0645 99.9941C23.0645 99.3076 23.6222 98.7499 24.3087 98.7499C24.9952 98.7499 25.5529 99.3076 25.5529 99.9941Z" fill="#BBBAF6"/>
<path d="M30.8303 99.9941C30.8303 100.681 30.2725 101.238 29.586 101.238C28.8996 101.238 28.3418 100.681 28.3418 99.9941C28.3418 99.3076 28.8996 98.7499 29.586 98.7499C30.3154 98.7499 30.8303 99.3076 30.8303 99.9941Z" fill="#BBBAF6"/>
<path d="M36.1506 99.9941C36.1506 100.681 35.5928 101.238 34.9064 101.238C34.2199 101.238 33.6621 100.681 33.6621 99.9941C33.6621 99.3076 34.2199 98.7499 34.9064 98.7499C35.5928 98.7499 36.1506 99.3076 36.1506 99.9941Z" fill="#BBBAF6"/>
<path d="M46.5766 47.7363H25.5533C25.0814 47.7363 24.6523 47.3501 24.6523 46.8353C24.6523 46.3633 25.0385 45.9343 25.5533 45.9343H46.5766C47.0486 45.9343 47.4776 46.3204 47.4776 46.8353C47.4776 47.3501 47.0915 47.7363 46.5766 47.7363Z" fill="#8FC5FF"/>
<path d="M41.4711 50.4392H20.4479C19.9759 50.4392 19.5469 50.0531 19.5469 49.5382C19.5469 49.0663 19.933 48.6372 20.4479 48.6372H41.4711C41.9431 48.6372 42.3721 49.0234 42.3721 49.5382C42.3721 50.0531 41.986 50.4392 41.4711 50.4392Z" fill="#8FC5FF"/>
<path d="M109.689 156.328H88.6661C88.1942 156.328 87.7651 155.942 87.7651 155.427C87.7651 154.955 88.1513 154.526 88.6661 154.526H109.689C110.161 154.526 110.59 154.912 110.59 155.427C110.59 155.942 110.204 156.328 109.689 156.328Z" fill="#8FC5FF"/>
<path d="M104.627 159.503H83.6036C83.1317 159.503 82.7026 159.117 82.7026 158.602C82.7026 158.13 83.0888 157.701 83.6036 157.701H104.627C105.099 157.701 105.528 158.087 105.528 158.602C105.485 159.117 105.099 159.503 104.627 159.503Z" fill="#8FC5FF"/>
<path d="M104.627 153.024H83.6036C83.1317 153.024 82.7026 152.638 82.7026 152.123C82.7026 151.651 83.0888 151.222 83.6036 151.222H104.627C105.099 151.222 105.528 151.608 105.528 152.123C105.485 152.638 105.099 153.024 104.627 153.024Z" fill="#8FC5FF"/>
<path d="M156.928 78.1556H131.399C130.799 78.1556 130.327 77.6837 130.327 77.083C130.327 76.4823 130.799 76.0104 131.399 76.0104H156.928C157.528 76.0104 158 76.4823 158 77.083C158 77.6837 157.528 78.1556 156.928 78.1556Z" fill="#8FC5FF"/>
<path d="M150.749 81.4593H125.221C124.62 81.4593 124.148 80.9873 124.148 80.3866C124.148 79.786 124.62 79.314 125.221 79.314H150.749C151.35 79.314 151.822 79.786 151.822 80.3866C151.822 80.9444 151.35 81.4593 150.749 81.4593Z" fill="#8FC5FF"/>
</g>
</svg>
