<svg width="172" height="188" viewBox="0 0 172 188" fill="none" xmlns="http://www.w3.org/2000/svg">
<mask id="mask0_63_3174" style="mask-type:alpha" maskUnits="userSpaceOnUse" x="0" y="0" width="172" height="188">
<rect width="172" height="188" fill="#D9D9D9"/>
</mask>
<g mask="url(#mask0_63_3174)">
<path d="M29.3412 154.677C21.8361 148.816 15.5954 138.89 14.2494 127.121C12.8626 115.352 17.3493 102.07 25.4663 97.9583C28.8109 96.2567 32.4411 96.1622 35.9489 95.595C44.5145 94.1771 53.2432 89.356 58.3826 79.8084C61.4825 74.0894 63.1549 66.9523 66.785 61.8477C70.3336 56.8376 75.3506 54.427 80.286 52.9145C89.5043 50.1259 99.9461 50.5513 107.37 58.5864C114.426 66.1961 118.179 79.9975 126.744 83.4951C132.251 85.7639 138.247 82.9752 143.916 84.2986C149.912 85.7166 155.174 92.0974 156.928 100.18C158.722 108.451 156.887 117.904 152.645 124.285C151.584 125.892 150.402 127.357 149.627 129.248C148.852 131.138 148.648 133.691 149.627 135.392C150.075 136.196 150.728 136.716 151.258 137.425C153.869 140.781 152.93 147.209 150.238 150.47C147.546 153.731 143.794 154.582 140.245 155.055C134.127 155.953 127.927 156.189 121.809 155.811L29.3412 154.677Z" fill="#DEE8FE"/>
<path d="M31.5142 153.303V131.033H37.1777V118.335H43.3302V131.033H51.8459V100.756H74.8667L90.5535 118.998H109.663V98.8137H121.846V107.011H131.258V98.8137H138.755H140.71V124.258H145.681V152.639L31.5142 153.303Z" fill="#C2D2EF"/>
<path d="M106.293 151.321C103.22 137.614 108.939 134.778 107.9 131.138C106.86 127.499 111.492 121.071 114.8 119.464C118.156 117.857 121.181 115.919 122.315 120.409C123.639 125.608 114.848 127.83 115.887 131.517C116.974 135.156 114.753 135.156 112.721 137.756C110.735 140.402 107.285 141.253 107.616 144.609C108.041 147.918 106.293 151.321 106.293 151.321Z" fill="#5E9154"/>
<path d="M116.643 121.922C110.215 131.753 104.685 143.569 106.292 151.273" stroke="white" stroke-width="0.6739" stroke-miterlimit="10"/>
<path d="M115.981 150.848C119.006 137.141 122.079 137.188 122.646 133.454C123.26 129.721 132.335 125.467 136.495 124.38C140.087 123.434 143.584 125.041 143.632 129.673C143.679 134.305 133.706 133.218 133.139 136.999C132.572 140.733 130.539 139.788 127.609 141.348C124.678 142.86 121.228 142.199 120.094 145.365C119.006 148.532 115.981 150.848 115.981 150.848Z" fill="#79BA6E"/>
<path d="M137.865 128.681C127.892 134.872 117.872 143.191 116.029 150.848" stroke="white" stroke-width="0.6739" stroke-miterlimit="10"/>
<path d="M91.5931 152.03C90.5532 146.358 92.1603 140.213 95.8942 135.77C96.3669 135.203 97.2649 134.731 97.6903 135.298C97.7848 135.44 97.8321 135.676 97.8321 135.865C98.0212 137.992 97.8793 140.119 97.4067 142.151C97.9266 140.166 98.4938 138.181 99.5336 136.432C100.573 134.683 102.228 133.218 104.26 132.84C104.544 135.014 104.118 137.33 103.031 139.221C104.26 139.126 104.969 137.425 106.151 137.567C106.718 137.614 107.143 138.086 107.38 138.559C107.947 139.646 107.805 141.017 107.285 142.151C106.765 143.286 105.962 144.231 105.158 145.176C102.889 147.823 100.621 150.47 98.352 153.117C98.2102 153.259 98.0684 153.448 97.9266 153.542C97.643 153.731 97.2649 153.731 96.8868 153.779C95.0434 153.873 93.2001 153.92 91.404 154.015C90.7423 154.062 90.0333 154.062 89.4661 153.731C88.899 153.4 88.5681 152.55 89.0408 152.03" fill="#446D3B"/>
<path d="M94.8068 154.204C94.9959 151.557 96.0357 149.005 97.7373 147.02C98.5881 146.027 99.6751 145.129 100.999 145.129C102.275 145.082 103.645 146.358 103.267 147.587C104.685 145.224 106.198 142.766 108.656 141.537C111.113 140.308 114.705 140.875 115.698 143.427C117.258 141.49 119.337 139.788 121.795 139.693C124.253 139.599 126.805 141.962 126.096 144.325C127.467 143.427 128.932 142.482 130.587 142.199C132.241 141.915 134.131 142.482 134.935 143.995C135.36 144.798 135.408 145.743 135.219 146.641C135.077 147.256 134.84 147.918 135.077 148.485C135.219 148.957 135.644 149.336 135.928 149.761C136.826 150.99 136.495 152.928 135.266 153.873C134.321 154.582 133.092 154.677 131.91 154.724C119.479 155.338 107.049 155.433 94.665 155.007" fill="#5E9154"/>
<path d="M67.3163 144.94C64.2441 142.955 62.5898 139.457 60.9355 136.149C59.2813 132.887 57.2961 129.437 53.9876 127.924C53.5149 130.524 54.602 133.171 55.6891 135.581C53.2786 132.84 50.5372 130.429 47.5595 128.35C47.1814 128.066 46.7087 127.783 46.1888 128.161C45.8579 128.397 45.6689 128.728 45.6216 129.106C45.149 132.226 47.4177 134.92 49.5446 137.188C49.0247 136.905 48.5048 136.621 47.9376 136.338C46.4724 135.581 44.7236 136.905 45.0544 138.512C45.5271 140.686 46.5196 142.766 47.9849 144.467C47.465 143.853 46.6614 143.475 45.8107 143.475C45.6216 143.475 45.4326 143.522 45.338 143.664C45.1017 143.9 45.2908 144.325 45.5271 144.609C46.945 146.5 48.5993 148.201 50.5372 149.619" fill="#446D3B"/>
<path d="M66.088 151.132C64.9064 148.059 63.1576 145.224 60.7943 142.955C59.3764 141.537 57.4858 140.308 55.5006 140.639C53.5155 140.97 52.1448 143.711 53.61 145.082C52.6647 142.388 50.9159 139.93 48.4581 138.465C46.0003 136.999 42.7863 136.716 40.3285 138.181C37.8707 139.599 36.4527 142.86 37.5398 145.507C36.0274 142.955 32.3879 141.679 29.8356 143.191C27.2833 144.704 26.8579 149.052 29.363 150.659C27.7559 149.761 25.6763 151.604 25.6763 153.495C25.6763 155.386 29.3157 154.062 30.4973 155.527C43.7316 152.124 55.217 154.204 68.7349 156C68.4985 153.448 67.4587 150.99 65.8044 149.005" fill="#5E9154"/>
<path d="M65.0772 154.062C65.9752 150.423 62.5721 149.099 60.587 150.659C60.587 150.659 60.0198 144.704 57.1839 144.751C54.3952 144.845 53.4972 148.579 53.4972 148.579C53.4972 148.579 51.8429 145.933 49.905 147.02C47.9671 148.059 49.3851 150.612 49.3851 150.612C49.3851 150.612 47.2109 149.525 46.1711 151.226C45.1785 152.928 46.9273 154.109 46.9273 154.109L65.0772 154.062Z" fill="#79BA6E"/>
<path d="M29.0794 81.4064C32.0098 81.4064 34.9875 81.4064 37.918 81.4064C38.2488 81.4064 38.6742 81.3591 38.7687 81.0282C38.8633 80.6028 38.2488 80.3665 37.7762 80.3665C37.918 79.3267 37.3508 78.2396 36.4527 77.7197C35.5547 77.1998 34.3258 77.2943 33.5223 77.9087C33.286 78.0978 33.0496 78.3814 33.1914 78.665C33.1914 77.6724 32.577 76.6798 31.679 76.3017C30.6864 75.8763 29.5048 76.2072 28.6067 76.8216C28.0868 77.1998 27.6614 77.6251 27.4251 78.2396C27.1888 78.8068 27.1888 79.5158 27.5196 80.0357C27.236 79.7048 26.7161 79.6103 26.338 79.7521C25.9126 79.8939 25.6763 80.3665 25.6763 80.7919C25.6763 81.0282 25.7708 81.2646 25.9599 81.4064C26.1489 81.5482 26.3852 81.5009 26.6216 81.5009L29.0794 81.4064Z" fill="#B9CBEA"/>
<path d="M122.127 57.3574C126.664 57.3574 131.154 57.3574 135.692 57.4047C136.212 57.4047 136.873 57.3102 136.968 56.7902C137.11 56.1285 136.164 55.7977 135.455 55.7977C135.644 54.1907 134.794 52.5364 133.423 51.7329C132.052 50.9294 130.162 51.0712 128.885 52.0637C128.507 52.3473 128.176 52.82 128.366 53.1981C128.366 51.6856 127.467 50.1731 126.05 49.5587C124.537 48.897 122.694 49.4169 121.323 50.3622C120.519 50.9294 119.858 51.6383 119.48 52.4891C119.102 53.3872 119.102 54.427 119.621 55.2305C119.149 54.7578 118.393 54.5688 117.778 54.8051C117.164 55.0414 116.738 55.7031 116.738 56.3649C116.738 56.6957 116.88 57.0738 117.211 57.2629C117.495 57.452 117.873 57.4047 118.203 57.4047L122.127 57.3574Z" fill="#B9CBEA"/>
<path d="M55.0098 42.9416C61.1543 42.9416 67.2988 42.9889 73.4432 42.9889C74.1522 42.9889 75.0503 42.8471 75.1921 42.1853C75.4284 41.24 74.105 40.8147 73.1124 40.8619C73.3487 38.6877 72.2143 36.4663 70.3237 35.3792C68.4331 34.2921 65.9281 34.4811 64.1793 35.8045C63.7066 36.1827 63.234 36.7971 63.4703 37.3643C63.4703 35.2846 62.2414 33.2522 60.3508 32.4014C58.2711 31.5034 55.8133 32.2124 53.97 33.5358C52.9301 34.2921 51.9848 35.2374 51.4649 36.4663C50.945 37.6479 50.945 39.1131 51.7013 40.2002C51.0868 39.5385 50.047 39.3022 49.1962 39.633C48.3454 39.9639 47.7782 40.8619 47.8255 41.76C47.8255 42.2326 48.0146 42.7525 48.44 42.9889C48.8181 43.2252 49.338 43.2252 49.8106 43.1779L55.0098 42.9416Z" fill="#B9CBEA"/>
<path d="M98.4462 155.338H59.2633C55.293 155.338 52.0317 152.124 52.0317 148.107V63.9274C52.0317 59.9571 55.2458 56.6958 59.2633 56.6958H98.4462C102.416 56.6958 105.678 59.9098 105.678 63.9274V148.107C105.678 152.124 102.464 155.338 98.4462 155.338Z" fill="#0A0A5E"/>
<path d="M82.7114 148.392C83.0543 146.279 81.6194 144.288 79.5065 143.945C77.3936 143.602 75.4028 145.037 75.0599 147.15C74.7169 149.263 76.1518 151.254 78.2647 151.596C80.3776 151.939 82.3684 150.504 82.7114 148.392Z" fill="#DEE8FE"/>
<path d="M101.849 65.5817H55.9077V141.726H101.849V65.5817Z" fill="#BFBBE0"/>
<path opacity="0.36" d="M92.4436 76.4053H65.2661C63.1864 76.4053 61.4849 74.7038 61.4849 72.6241C61.4849 70.5444 63.1864 68.8429 65.2661 68.8429H92.4436C94.5232 68.8429 96.2248 70.5444 96.2248 72.6241C96.2721 74.7038 94.5705 76.4053 92.4436 76.4053Z" fill="#DEE8FE"/>
<path d="M96.2721 87.229V95.2641C96.2721 97.3438 94.5706 99.0453 92.4909 99.0453H65.3134C63.2338 99.0453 61.5322 97.3438 61.5322 95.2641V87.229C61.5322 85.1494 63.2338 83.4478 65.3134 83.4478H92.4909C94.5706 83.4478 96.2721 85.1494 96.2721 87.229Z" fill="white"/>
<path d="M87.9064 60.8551H69.8511C69.1894 60.8551 68.6694 61.375 68.6694 62.0367C68.6694 62.6984 69.1894 63.2184 69.8511 63.2184H87.9064C88.5681 63.2184 89.088 62.6984 89.088 62.0367C89.088 61.375 88.5681 60.8551 87.9064 60.8551Z" fill="#391F63"/>
<path opacity="0.63" d="M96.2721 90.4431V95.2641C96.2721 97.3438 94.5706 99.0453 92.4909 99.0453H65.3134C63.2338 99.0453 61.5322 97.3438 61.5322 95.2641V92.8063H69.6618V87.4654H72.545V90.4431H76.3262V85.4802H80.6274V93.9407H84.2668V89.6868H87.8117V95.3586H92.6327V90.3958H96.2721V90.4431Z" fill="#4F66F5"/>
<path d="M96.2721 106.702V114.737C96.2721 116.817 94.5706 118.519 92.4909 118.519H65.3134C63.2338 118.519 61.5322 116.817 61.5322 114.737V106.702C61.5322 104.623 63.2338 102.921 65.3134 102.921H92.4909C94.5706 102.921 96.2721 104.623 96.2721 106.702Z" fill="white"/>
<path opacity="0.63" d="M96.2721 109.916V114.737C96.2721 116.817 94.5706 118.519 92.4909 118.519H65.3134C63.2338 118.519 61.5322 116.817 61.5322 114.737V112.28H69.6618V106.939H72.545V109.916H76.3262V104.954H80.6274V113.414H84.2668V109.16H87.8117V114.832H92.6327V109.869H96.2721V109.916Z" fill="#4F66F5"/>
<path d="M96.2721 126.128V134.163C96.2721 136.243 94.5706 137.945 92.4909 137.945H65.3134C63.2338 137.945 61.5322 136.243 61.5322 134.163V126.128C61.5322 124.049 63.2338 122.347 65.3134 122.347H92.4909C94.5706 122.347 96.2721 124.049 96.2721 126.128Z" fill="white"/>
<path opacity="0.63" d="M96.2721 129.342V134.163C96.2721 136.243 94.5706 137.945 92.4909 137.945H65.3134C63.2338 137.945 61.5322 136.243 61.5322 134.163V131.706H69.6618V126.365H72.545V129.342H76.3262V124.427H80.6274V132.887H84.2668V128.633H87.8117V134.305H92.6327V129.342H96.2721Z" fill="#4F66F5"/>
<path d="M92.2543 93.2791C95.3868 93.2791 97.9262 90.7397 97.9262 87.6072C97.9262 84.4748 95.3868 81.9354 92.2543 81.9354C89.1219 81.9354 86.5825 84.4748 86.5825 87.6072C86.5825 90.7397 89.1219 93.2791 92.2543 93.2791Z" fill="#FFBC3A"/>
<path d="M93.7087 88.445C93.5354 88.445 93.4037 88.3967 93.3137 88.3C93.2237 88.2033 93.1787 88.065 93.1787 87.885V87.01C93.1787 86.83 93.2237 86.6917 93.3137 86.595C93.4037 86.4983 93.5354 86.45 93.7087 86.45C93.882 86.45 94.0137 86.4983 94.1037 86.595C94.1937 86.6917 94.2387 86.83 94.2387 87.01V87.885C94.2387 88.065 94.1937 88.2033 94.1037 88.3C94.0137 88.3967 93.882 88.445 93.7087 88.445ZM94.9787 86.5H95.3287L93.9737 90H93.6237L94.9787 86.5ZM93.7087 88.13C93.8287 88.13 93.8887 88.0567 93.8887 87.91V86.985C93.8887 86.8383 93.8287 86.765 93.7087 86.765C93.5887 86.765 93.5287 86.8383 93.5287 86.985V87.91C93.5287 88.0567 93.5887 88.13 93.7087 88.13ZM95.2437 90.05C95.0704 90.05 94.9387 90.0017 94.8487 89.905C94.7587 89.8083 94.7137 89.67 94.7137 89.49V88.615C94.7137 88.435 94.7587 88.2967 94.8487 88.2C94.9387 88.1033 95.0704 88.055 95.2437 88.055C95.417 88.055 95.5487 88.1033 95.6387 88.2C95.7287 88.2967 95.7737 88.435 95.7737 88.615V89.49C95.7737 89.67 95.7287 89.8083 95.6387 89.905C95.5487 90.0017 95.417 90.05 95.2437 90.05ZM95.2437 89.735C95.3637 89.735 95.4237 89.6617 95.4237 89.515V88.59C95.4237 88.4433 95.3637 88.37 95.2437 88.37C95.1237 88.37 95.0637 88.4433 95.0637 88.59V89.515C95.0637 89.6617 95.1237 89.735 95.2437 89.735Z" fill="black"/>
<path d="M92.002 90.05C91.732 90.05 91.5253 89.9733 91.382 89.82C91.2387 89.6667 91.167 89.45 91.167 89.17V87.33C91.167 87.05 91.2387 86.8333 91.382 86.68C91.5253 86.5267 91.732 86.45 92.002 86.45C92.272 86.45 92.4787 86.5267 92.622 86.68C92.7653 86.8333 92.837 87.05 92.837 87.33V89.17C92.837 89.45 92.7653 89.6667 92.622 89.82C92.4787 89.9733 92.272 90.05 92.002 90.05ZM92.002 89.55C92.192 89.55 92.287 89.435 92.287 89.205V87.295C92.287 87.065 92.192 86.95 92.002 86.95C91.812 86.95 91.717 87.065 91.717 87.295V89.205C91.717 89.435 91.812 89.55 92.002 89.55Z" fill="black"/>
<path d="M90.0099 90.05C89.7433 90.05 89.5399 89.975 89.3999 89.825C89.2599 89.6717 89.1899 89.4533 89.1899 89.17V88.895H89.7099V89.21C89.7099 89.4367 89.8049 89.55 89.9949 89.55C90.1849 89.55 90.2799 89.4367 90.2799 89.21V88.425C90.2799 88.195 90.1849 88.08 89.9949 88.08C89.8049 88.08 89.7099 88.195 89.7099 88.425V88.455H89.1899L89.2899 86.5H90.7399V87H89.7799L89.7349 87.835H89.7449C89.8483 87.665 90.0066 87.58 90.2199 87.58C90.4199 87.58 90.5716 87.6483 90.6749 87.785C90.7783 87.9217 90.8299 88.12 90.8299 88.38V89.17C90.8299 89.4533 90.7599 89.6717 90.6199 89.825C90.4799 89.975 90.2766 90.05 90.0099 90.05Z" fill="black"/>
<path d="M92.2543 113.13C95.3868 113.13 97.9262 110.591 97.9262 107.459C97.9262 104.326 95.3868 101.787 92.2543 101.787C89.1219 101.787 86.5825 104.326 86.5825 107.459C86.5825 110.591 89.1219 113.13 92.2543 113.13Z" fill="#FFBC3A"/>
<path d="M93.7087 107.445C93.5354 107.445 93.4037 107.397 93.3137 107.3C93.2237 107.203 93.1787 107.065 93.1787 106.885V106.01C93.1787 105.83 93.2237 105.692 93.3137 105.595C93.4037 105.498 93.5354 105.45 93.7087 105.45C93.882 105.45 94.0137 105.498 94.1037 105.595C94.1937 105.692 94.2387 105.83 94.2387 106.01V106.885C94.2387 107.065 94.1937 107.203 94.1037 107.3C94.0137 107.397 93.882 107.445 93.7087 107.445ZM94.9787 105.5H95.3287L93.9737 109H93.6237L94.9787 105.5ZM93.7087 107.13C93.8287 107.13 93.8887 107.057 93.8887 106.91V105.985C93.8887 105.838 93.8287 105.765 93.7087 105.765C93.5887 105.765 93.5287 105.838 93.5287 105.985V106.91C93.5287 107.057 93.5887 107.13 93.7087 107.13ZM95.2437 109.05C95.0704 109.05 94.9387 109.002 94.8487 108.905C94.7587 108.808 94.7137 108.67 94.7137 108.49V107.615C94.7137 107.435 94.7587 107.297 94.8487 107.2C94.9387 107.103 95.0704 107.055 95.2437 107.055C95.417 107.055 95.5487 107.103 95.6387 107.2C95.7287 107.297 95.7737 107.435 95.7737 107.615V108.49C95.7737 108.67 95.7287 108.808 95.6387 108.905C95.5487 109.002 95.417 109.05 95.2437 109.05ZM95.2437 108.735C95.3637 108.735 95.4237 108.662 95.4237 108.515V107.59C95.4237 107.443 95.3637 107.37 95.2437 107.37C95.1237 107.37 95.0637 107.443 95.0637 107.59V108.515C95.0637 108.662 95.1237 108.735 95.2437 108.735Z" fill="black"/>
<path d="M92.002 109.05C91.732 109.05 91.5253 108.973 91.382 108.82C91.2387 108.667 91.167 108.45 91.167 108.17V106.33C91.167 106.05 91.2387 105.833 91.382 105.68C91.5253 105.527 91.732 105.45 92.002 105.45C92.272 105.45 92.4787 105.527 92.622 105.68C92.7653 105.833 92.837 106.05 92.837 106.33V108.17C92.837 108.45 92.7653 108.667 92.622 108.82C92.4787 108.973 92.272 109.05 92.002 109.05ZM92.002 108.55C92.192 108.55 92.287 108.435 92.287 108.205V106.295C92.287 106.065 92.192 105.95 92.002 105.95C91.812 105.95 91.717 106.065 91.717 106.295V108.205C91.717 108.435 91.812 108.55 92.002 108.55Z" fill="black"/>
<path d="M89.985 109.05C89.715 109.05 89.51 108.975 89.37 108.825C89.2334 108.675 89.165 108.46 89.165 108.18V107.895H89.685V108.205C89.685 108.435 89.78 108.55 89.97 108.55C90.0634 108.55 90.1334 108.522 90.18 108.465C90.23 108.405 90.255 108.302 90.255 108.155V107.87C90.255 107.71 90.2267 107.597 90.17 107.53C90.1134 107.46 90.0217 107.425 89.895 107.425H89.71V106.925H89.91C90.02 106.925 90.1017 106.897 90.155 106.84C90.2117 106.783 90.24 106.688 90.24 106.555V106.3C90.24 106.18 90.215 106.092 90.165 106.035C90.115 105.978 90.0484 105.95 89.965 105.95C89.7884 105.95 89.7 106.058 89.7 106.275V106.505H89.18V106.32C89.18 106.04 89.2484 105.825 89.385 105.675C89.525 105.525 89.725 105.45 89.985 105.45C90.2484 105.45 90.4484 105.525 90.585 105.675C90.7217 105.822 90.79 106.035 90.79 106.315V106.44C90.79 106.63 90.7584 106.783 90.695 106.9C90.6317 107.013 90.5334 107.095 90.4 107.145V107.155C90.5434 107.208 90.6467 107.295 90.71 107.415C90.7734 107.535 90.805 107.688 90.805 107.875V108.185C90.805 108.465 90.735 108.68 90.595 108.83C90.4584 108.977 90.255 109.05 89.985 109.05Z" fill="black"/>
<path d="M92.2543 132.982C95.3868 132.982 97.9262 130.442 97.9262 127.31C97.9262 124.177 95.3868 121.638 92.2543 121.638C89.1219 121.638 86.5825 124.177 86.5825 127.31C86.5825 130.442 89.1219 132.982 92.2543 132.982Z" fill="#FFBC3A"/>
<path d="M93.7092 127.445C93.5359 127.445 93.4042 127.397 93.3142 127.3C93.2242 127.203 93.1792 127.065 93.1792 126.885V126.01C93.1792 125.83 93.2242 125.692 93.3142 125.595C93.4042 125.498 93.5359 125.45 93.7092 125.45C93.8825 125.45 94.0142 125.498 94.1042 125.595C94.1942 125.692 94.2392 125.83 94.2392 126.01V126.885C94.2392 127.065 94.1942 127.203 94.1042 127.3C94.0142 127.397 93.8825 127.445 93.7092 127.445ZM94.9792 125.5H95.3292L93.9742 129H93.6242L94.9792 125.5ZM93.7092 127.13C93.8292 127.13 93.8892 127.057 93.8892 126.91V125.985C93.8892 125.838 93.8292 125.765 93.7092 125.765C93.5892 125.765 93.5292 125.838 93.5292 125.985V126.91C93.5292 127.057 93.5892 127.13 93.7092 127.13ZM95.2442 129.05C95.0709 129.05 94.9392 129.002 94.8492 128.905C94.7592 128.808 94.7142 128.67 94.7142 128.49V127.615C94.7142 127.435 94.7592 127.297 94.8492 127.2C94.9392 127.103 95.0709 127.055 95.2442 127.055C95.4175 127.055 95.5492 127.103 95.6392 127.2C95.7292 127.297 95.7742 127.435 95.7742 127.615V128.49C95.7742 128.67 95.7292 128.808 95.6392 128.905C95.5492 129.002 95.4175 129.05 95.2442 129.05ZM95.2442 128.735C95.3642 128.735 95.4242 128.662 95.4242 128.515V127.59C95.4242 127.443 95.3642 127.37 95.2442 127.37C95.1242 127.37 95.0642 127.443 95.0642 127.59V128.515C95.0642 128.662 95.1242 128.735 95.2442 128.735Z" fill="black"/>
<path d="M92.0124 129.05C91.7457 129.05 91.5424 128.975 91.4024 128.825C91.2624 128.672 91.1924 128.453 91.1924 128.17V127.895H91.7124V128.21C91.7124 128.437 91.8074 128.55 91.9974 128.55C92.1874 128.55 92.2824 128.437 92.2824 128.21V127.425C92.2824 127.195 92.1874 127.08 91.9974 127.08C91.8074 127.08 91.7124 127.195 91.7124 127.425V127.455H91.1924L91.2924 125.5H92.7424V126H91.7824L91.7374 126.835H91.7474C91.8507 126.665 92.009 126.58 92.2224 126.58C92.4224 126.58 92.574 126.648 92.6774 126.785C92.7807 126.922 92.8324 127.12 92.8324 127.38V128.17C92.8324 128.453 92.7624 128.672 92.6224 128.825C92.4824 128.975 92.279 129.05 92.0124 129.05Z" fill="black"/>
<path d="M90.1252 128.365H89.0752V127.865L90.0752 125.5H90.6752V127.865H90.9352V128.365H90.6752V129H90.1252V128.365ZM90.1252 127.865V126.5H90.1152L89.5752 127.865H90.1252Z" fill="black"/>
<path d="M126.474 117.053H116.69C115.461 117.053 114.469 116.061 114.469 114.832V94.3662C114.469 93.1373 115.461 92.1447 116.69 92.1447H126.474C127.703 92.1447 128.696 93.1373 128.696 94.3662V114.832C128.696 116.061 127.703 117.053 126.474 117.053Z" stroke="#FF9640" stroke-width="2.0216" stroke-miterlimit="10"/>
<path d="M113.24 153.4C112.295 153.4 111.586 152.644 111.586 151.746V149.477C111.586 148.532 112.342 147.823 113.24 147.823C114.186 147.823 114.895 148.579 114.895 149.477V151.746C114.942 152.644 114.186 153.4 113.24 153.4Z" fill="#391F63"/>
<path d="M129.972 153.4C129.027 153.4 128.318 152.644 128.318 151.746V149.477C128.318 148.532 129.074 147.823 129.972 147.823C130.917 147.823 131.626 148.579 131.626 149.477V151.746C131.626 152.644 130.917 153.4 129.972 153.4Z" fill="#391F63"/>
<path d="M131.059 149.336H112.106C109.601 149.336 107.616 147.303 107.616 144.845V115.21C107.616 112.705 109.648 110.72 112.106 110.72H131.059C133.564 110.72 135.549 112.752 135.549 115.21V144.845C135.597 147.351 133.564 149.336 131.059 149.336Z" fill="#FFBC3A"/>
<path d="M114.942 144.136C116.17 144.136 117.21 143.144 117.21 141.868V118.141C117.21 116.912 116.218 115.872 114.942 115.872C113.713 115.872 112.673 116.864 112.673 118.141V141.915C112.673 143.144 113.665 144.136 114.942 144.136Z" fill="#FF9640"/>
<path d="M121.606 144.136C122.835 144.136 123.875 143.144 123.875 141.868V118.141C123.875 116.912 122.882 115.872 121.606 115.872C120.377 115.872 119.337 116.864 119.337 118.141V141.915C119.337 143.144 120.377 144.136 121.606 144.136Z" fill="#FF9640"/>
<path d="M128.318 144.136C129.547 144.136 130.587 143.144 130.587 141.868V118.141C130.587 116.912 129.594 115.872 128.318 115.872C127.089 115.872 126.049 116.864 126.049 118.141V141.915C126.049 143.144 127.042 144.136 128.318 144.136Z" fill="#FF9640"/>
</g>
</svg>
