<svg width="172" height="188" viewBox="0 0 172 188" fill="none" xmlns="http://www.w3.org/2000/svg">
<mask id="mask0_63_3171" style="mask-type:alpha" maskUnits="userSpaceOnUse" x="0" y="0" width="172" height="188">
<rect width="172" height="188" fill="#D9D9D9"/>
</mask>
<g mask="url(#mask0_63_3171)">
<path d="M37.6341 109.283C31.4115 112.954 27.1987 119.989 27.1987 127.255C27.1987 134.482 31.6048 141.633 38.1752 144.686C41.3445 146.155 44.8616 146.696 48.3401 146.85C57.1136 147.314 66.2349 145.536 73.5011 140.589C75.3176 139.352 77.0955 137.806 77.8298 135.719C79.028 132.318 77.1341 128.685 75.0857 125.748C67.9355 115.544 50.8137 101.514 37.6341 109.283Z" fill="#DEE8FE"/>
<path d="M44.8618 29.4712C38.2913 31.1718 34.6583 35.114 30.9479 40.6409C28.513 44.2354 27.1989 48.4482 26.194 52.6223C24.6866 58.9995 23.8363 65.4927 23.6817 72.0631C23.5658 77.4741 23.9136 83.0396 26.078 88.0641C30.2908 97.8038 40.3784 103.756 50.1181 108.432C59.8579 113.07 70.3706 117.399 77.1343 125.67C80.1876 129.419 82.352 133.825 85.7531 137.265C91.8211 143.372 101.02 145.575 109.677 145.536C124.905 145.459 140.674 138.541 148.018 125.67C152.192 118.365 153.429 109.863 154.163 101.553C155.477 86.866 155.052 70.7104 145.467 59.1541C137.35 49.3758 124.171 44.9311 111.494 42.7667C98.7781 40.5636 85.6758 40.0998 73.4625 36.0416C68.3994 34.3797 63.5682 32.0994 58.3505 30.9785C53.1328 29.8963 49.8862 28.1571 44.8618 29.4712Z" fill="#DEE8FE"/>
<path d="M120.692 78.5176C120.692 78.5176 118.605 78.9428 118.412 81.2231C118.219 83.6194 120.422 84.2378 121.62 84.3151C122.818 84.3924 124.905 83.3875 124.712 81.1845C124.557 78.9814 123.011 78.1698 120.692 78.5176Z" fill="#8FC5FF"/>
<path d="M39.5281 53.5886C39.5281 53.5886 36.5907 54.1683 36.3202 57.1057C36.0496 60.1977 39.1802 61.0093 40.8808 61.0866C42.5814 61.1639 45.5188 59.8885 45.2483 57.0671C45.0164 54.207 42.8133 53.1634 39.5281 53.5886Z" fill="#8FC5FF"/>
<path d="M119.455 37.8195C119.146 38.322 118.914 38.9404 118.992 39.5201C119.069 40.3317 119.726 40.9888 120.422 41.3366C121.156 41.6845 121.968 41.8004 122.741 41.9937C124.944 42.4575 127.069 43.2305 129.002 44.3513C129.775 44.8151 130.664 45.3176 131.553 45.1243C132.403 44.9311 132.983 44.0808 133.253 43.2691C133.794 41.3753 133.021 39.2882 131.669 37.8968C128.345 34.5343 122.238 33.1043 119.455 37.8195Z" fill="#DEE8FE"/>
<path opacity="0.4" d="M42.736 91.8518C41.0354 98.6541 42.3495 105.186 44.2046 111.293C47.2193 121.264 51.8573 130.927 60.4375 137.111C76.2839 148.551 105.039 144.454 122.548 128.26C127.727 123.467 132.094 117.361 132.21 111.409C132.287 107.891 130.819 104.722 128.809 102.055C123.243 94.5959 113.697 90.5377 106.353 84.547C96.3431 76.3532 87.9174 63.6375 70.6797 66.0338C58.4664 67.6571 45.3255 81.5323 42.736 91.8518Z" fill="#9179B3"/>
<path d="M115.938 50.5352H115.706V37.9741C115.706 34.0705 112.421 30.8625 108.44 30.8625H62.9107C58.8912 30.8625 55.6446 34.0705 55.6446 37.9741V50.5352H55.2581C54.7556 50.5352 54.3691 50.9217 54.3691 51.4242V60.0044C54.3691 60.4682 54.7556 60.8934 55.2581 60.8934H55.6059V62.9418H55.2581C54.7556 62.9418 54.3691 63.3283 54.3691 63.8307V72.411C54.3691 72.8748 54.7556 73.2999 55.2581 73.2999H55.6059V146.928C55.6059 150.831 58.8912 154.039 62.8721 154.039H108.401C112.421 154.039 115.668 150.831 115.668 146.928V65.9951H115.899C116.402 65.9951 116.788 65.6086 116.788 65.1062V51.3855C116.827 50.9217 116.402 50.5352 115.938 50.5352Z" fill="#0A0A5E"/>
<path d="M106.546 149.208H64.6495C61.0551 149.208 58.0791 146.27 58.0791 142.637V40.1384C58.0791 36.544 61.0165 33.568 64.6495 33.568H106.546C110.14 33.568 113.116 36.5054 113.116 40.1384V142.637C113.116 146.27 110.14 149.208 106.546 149.208Z" fill="#EEFDFF"/>
<path d="M91.7821 37.1238H79.4529C79.105 37.1238 78.8345 36.8532 78.8345 36.5054V36.2735C78.8345 35.9256 79.105 35.6551 79.4529 35.6551H91.7821C92.13 35.6551 92.4005 35.9256 92.4005 36.2735V36.5054C92.4005 36.8532 92.13 37.1238 91.7821 37.1238Z" fill="#0A0A5E"/>
<path opacity="0.62" d="M83.3949 156.977C101.731 156.977 116.595 155.506 116.595 153.691C116.595 151.877 101.731 150.406 83.3949 150.406C65.059 150.406 50.1948 151.877 50.1948 153.691C50.1948 155.506 65.059 156.977 83.3949 156.977Z" fill="#C5E3FF"/>
<path d="M66.5823 41.3753H61.9057C61.6351 41.3753 61.4419 41.182 61.4419 40.9115V40.7183C61.4419 40.4477 61.6351 40.2545 61.9057 40.2545H66.5823C66.8529 40.2545 67.0461 40.4477 67.0461 40.7183V40.9115C67.0461 41.182 66.8142 41.3753 66.5823 41.3753Z" fill="#D1E3F4"/>
<path d="M66.5823 43.0373H61.9057C61.6351 43.0373 61.4419 42.844 61.4419 42.5735V42.3802C61.4419 42.1097 61.6351 41.9164 61.9057 41.9164H66.5823C66.8529 41.9164 67.0461 42.1097 67.0461 42.3802V42.5735C67.0461 42.844 66.8142 43.0373 66.5823 43.0373Z" fill="#D1E3F4"/>
<path d="M66.5823 44.6991H61.9057C61.6351 44.6991 61.4419 44.5059 61.4419 44.2354V44.0421C61.4419 43.7716 61.6351 43.5783 61.9057 43.5783H66.5823C66.8529 43.5783 67.0461 43.7716 67.0461 44.0421V44.2354C67.0461 44.5059 66.8142 44.6991 66.5823 44.6991Z" fill="#D1E3F4"/>
<path d="M105.966 138.386H65.2297C63.6451 138.386 62.3696 137.111 62.3696 135.526V130.965C62.3696 129.381 63.6451 128.105 65.2297 128.105H105.966C107.551 128.105 108.827 129.381 108.827 130.965V135.526C108.827 137.111 107.512 138.386 105.966 138.386Z" fill="#8940EB"/>
<path d="M75.0855 134.753C74.8536 134.676 74.699 134.598 74.5444 134.482L74.7763 133.941C74.8923 134.019 75.0469 134.096 75.2401 134.173C75.4334 134.25 75.588 134.25 75.7812 134.25C75.9745 134.25 76.1291 134.212 76.2064 134.173C76.2837 134.096 76.361 134.019 76.361 133.941C76.361 133.864 76.3223 133.825 76.2837 133.748C76.245 133.709 76.1677 133.671 76.0518 133.632C75.9745 133.593 75.8585 133.555 75.7039 133.555C75.472 133.516 75.2788 133.439 75.1242 133.4C74.9696 133.361 74.8536 133.246 74.7377 133.13C74.6217 133.014 74.5831 132.859 74.5831 132.627C74.5831 132.434 74.6217 132.279 74.7377 132.163C74.815 132.009 74.9696 131.893 75.1628 131.815C75.3561 131.738 75.588 131.7 75.8585 131.7C76.0518 131.7 76.245 131.738 76.4383 131.777C76.6315 131.815 76.7861 131.893 76.9407 131.97L76.7088 132.511C76.4383 132.357 76.1291 132.279 75.8585 132.279C75.6653 132.279 75.5107 132.318 75.4334 132.357C75.3561 132.434 75.2788 132.511 75.2788 132.627C75.2788 132.743 75.3174 132.82 75.4334 132.859C75.5493 132.898 75.7039 132.975 75.9358 133.014C76.1677 133.052 76.361 133.13 76.5156 133.168C76.6702 133.207 76.7861 133.323 76.9021 133.439C77.018 133.555 77.0567 133.709 77.0567 133.903C77.0567 134.096 77.018 134.25 76.9021 134.366C76.7861 134.521 76.6702 134.637 76.4769 134.714C76.2837 134.791 76.0518 134.83 75.7812 134.83C75.5493 134.869 75.3174 134.83 75.0855 134.753Z" fill="white"/>
<path d="M79.6463 132.704C79.8396 132.898 79.9169 133.13 79.9169 133.477V134.83H79.2212V133.593C79.2212 133.4 79.1825 133.284 79.1052 133.168C79.0279 133.091 78.912 133.014 78.7574 133.014C78.6028 133.014 78.4482 133.052 78.3322 133.168C78.2163 133.284 78.1776 133.439 78.1776 133.632V134.792H77.4819V131.584H78.1776V132.704C78.2549 132.627 78.3709 132.55 78.4868 132.511C78.6028 132.473 78.7574 132.434 78.912 132.434C79.2212 132.434 79.4531 132.511 79.6463 132.704Z" fill="white"/>
<path d="M80.9988 134.676C80.8055 134.56 80.6509 134.444 80.535 134.25C80.419 134.057 80.3804 133.864 80.3804 133.632C80.3804 133.4 80.419 133.207 80.535 133.014C80.6509 132.82 80.8055 132.704 80.9988 132.588C81.192 132.473 81.4239 132.434 81.6558 132.434C81.8877 132.434 82.1196 132.473 82.3129 132.588C82.5061 132.704 82.6607 132.82 82.7767 133.014C82.8926 133.207 82.9313 133.4 82.9313 133.632C82.9313 133.864 82.8926 134.057 82.7767 134.25C82.6607 134.444 82.5061 134.56 82.3129 134.676C82.1196 134.792 81.8877 134.83 81.6558 134.83C81.4239 134.83 81.192 134.792 80.9988 134.676ZM82.081 134.096C82.1969 133.98 82.2356 133.825 82.2356 133.632C82.2356 133.439 82.1969 133.284 82.081 133.168C81.965 133.052 81.8104 132.975 81.6558 132.975C81.4626 132.975 81.3466 133.052 81.2307 133.168C81.1147 133.284 81.0761 133.439 81.0761 133.632C81.0761 133.825 81.1147 133.98 81.2307 134.096C81.3466 134.212 81.5012 134.289 81.6558 134.289C81.8491 134.289 81.965 134.212 82.081 134.096Z" fill="white"/>
<path d="M85.3662 132.588C85.5594 132.704 85.6754 132.82 85.7913 133.014C85.9073 133.207 85.9459 133.4 85.9459 133.632C85.9459 133.864 85.9073 134.096 85.7913 134.25C85.6754 134.444 85.5594 134.56 85.3662 134.676C85.1729 134.792 84.9797 134.83 84.7864 134.83C84.4772 134.83 84.2453 134.753 84.0907 134.56V135.642H83.395V132.473H84.0521V132.743C84.2067 132.55 84.4772 132.434 84.7864 132.434C84.9797 132.434 85.2116 132.473 85.3662 132.588ZM85.0956 134.096C85.2116 133.98 85.2502 133.825 85.2502 133.632C85.2502 133.439 85.2116 133.284 85.0956 133.168C84.9797 133.052 84.8251 132.975 84.6705 132.975C84.5159 132.975 84.3613 133.052 84.2453 133.168C84.1294 133.284 84.0907 133.439 84.0907 133.632C84.0907 133.825 84.1294 133.98 84.2453 134.096C84.3613 134.212 84.5159 134.289 84.6705 134.289C84.8251 134.289 84.9797 134.212 85.0956 134.096Z" fill="white"/>
<path d="M90.4683 131.777V134.83H89.8886L88.3812 132.975V134.83H87.6855V131.777H88.2653L89.7726 133.632V131.777H90.4683Z" fill="white"/>
<path d="M91.5891 134.676C91.3959 134.56 91.2412 134.444 91.1253 134.25C91.0094 134.057 90.9707 133.864 90.9707 133.632C90.9707 133.4 91.0094 133.207 91.1253 133.014C91.2412 132.82 91.3959 132.704 91.5891 132.588C91.7823 132.473 92.0143 132.434 92.2462 132.434C92.478 132.434 92.7099 132.473 92.9032 132.588C93.0964 132.704 93.251 132.82 93.367 133.014C93.4829 133.207 93.5216 133.4 93.5216 133.632C93.5216 133.864 93.4829 134.057 93.367 134.25C93.251 134.444 93.0964 134.56 92.9032 134.676C92.7099 134.792 92.478 134.83 92.2462 134.83C92.0143 134.83 91.7823 134.792 91.5891 134.676ZM92.6713 134.096C92.7872 133.98 92.8259 133.825 92.8259 133.632C92.8259 133.439 92.7872 133.284 92.6713 133.168C92.5553 133.052 92.4007 132.975 92.2462 132.975C92.0916 132.975 91.937 133.052 91.821 133.168C91.7051 133.284 91.6664 133.439 91.6664 133.632C91.6664 133.825 91.7051 133.98 91.821 134.096C91.937 134.212 92.0916 134.289 92.2462 134.289C92.4007 134.289 92.5553 134.212 92.6713 134.096Z" fill="white"/>
<path d="M97.6955 132.473L96.8452 134.83H96.1882L95.6471 133.361L95.106 134.83H94.4489L93.5986 132.473H94.2557L94.7968 134.057L95.3765 132.473H95.9563L96.4974 134.057L97.0771 132.473H97.6955Z" fill="white"/>
<path d="M129.118 53.4727C129.993 53.4727 130.702 52.7632 130.702 51.888C130.702 51.0129 129.993 50.3034 129.118 50.3034C128.243 50.3034 127.533 51.0129 127.533 51.888C127.533 52.7632 128.243 53.4727 129.118 53.4727Z" fill="white"/>
<path d="M135.611 53.4726C136.486 53.4726 137.196 52.7632 137.196 51.888C137.196 51.0128 136.486 50.3033 135.611 50.3033C134.736 50.3033 134.026 51.0128 134.026 51.888C134.026 52.7632 134.736 53.4726 135.611 53.4726Z" fill="white"/>
<path d="M143.689 51.888C143.689 52.7383 142.993 53.4726 142.104 53.4726C141.254 53.4726 140.52 52.7769 140.52 51.888C140.52 51.0377 141.215 50.3033 142.104 50.3033C142.993 50.3033 143.689 51.0377 143.689 51.888Z" fill="white"/>
<path d="M37.7886 94.2094C37.7886 88.7598 33.3439 84.3151 27.8943 84.3151C22.4447 84.3151 18 88.7212 18 94.2094C18 99.6591 22.4447 104.104 27.8943 104.104C28.3195 104.104 28.7446 104.065 29.1311 104.026C29.5563 104.452 30.0587 104.799 30.4452 104.993C31.6433 105.688 33.1507 105.882 34.4648 105.534C34.5807 105.495 34.7353 105.457 34.8126 105.341C34.8899 105.225 34.8126 105.031 34.6967 104.954C34.5807 104.838 34.4261 104.799 34.3102 104.761C33.4985 104.452 32.8415 103.795 32.4163 103.022C35.6243 101.321 37.7886 98.0358 37.7886 94.2094Z" fill="#4F66F5"/>
<path d="M28.1265 91.6199C28.3197 91.3107 28.5516 91.0402 28.8222 90.8469C30.4455 89.5715 32.9577 90.731 33.035 92.8181C33.0736 93.4751 32.8804 94.0548 32.5712 94.6346C32.1847 95.3303 31.6823 95.91 31.1412 96.4511C30.4068 97.2241 29.5565 97.9198 28.7449 98.6155C28.7062 98.6542 28.6676 98.6928 28.6289 98.7315C28.3584 98.9634 27.9719 98.9634 27.7013 98.7315C27.6627 98.6928 27.624 98.6542 27.5854 98.6155C26.851 97.9585 26.078 97.3401 25.3824 96.6444C24.8413 96.1033 24.3388 95.5622 23.9137 94.9051C23.5272 94.3254 23.2953 93.707 23.2953 93.0113C23.2566 91.9678 24.0683 90.7696 25.0732 90.4604C26.2713 90.0739 27.5081 90.4991 28.1651 91.5813C28.0878 91.5813 28.0878 91.5813 28.1265 91.6199Z" fill="white"/>
<path d="M109.213 84.0446H62.6019C61.5197 84.0446 60.6694 83.1556 60.6694 82.1121V49.1439C60.6694 48.0617 61.5584 47.2114 62.6019 47.2114H109.252C110.334 47.2114 111.185 48.1004 111.185 49.1439V82.1121C111.146 83.1943 110.296 84.0446 109.213 84.0446Z" fill="#D1E3F4"/>
<path d="M108.286 83.0784H62.911C61.8288 83.0784 60.9785 82.1894 60.9785 81.1459V49.5691C60.9785 48.4869 61.8675 47.6366 62.911 47.6366H108.286C109.368 47.6366 110.218 48.5255 110.218 49.5691V81.1459C110.218 82.1894 109.368 83.0784 108.286 83.0784Z" fill="white"/>
<path d="M102.797 69.8602C102.797 68.9326 102.527 68.0823 102.063 67.3093C101.29 66.0338 99.937 65.0676 98.3137 64.7198C98.2364 64.7198 98.1591 64.6811 98.0818 64.6811C97.7726 64.6038 97.4248 64.5652 97.1156 64.5265C96.8064 58.0334 91.2409 54.2457 85.9458 54.1684C80.1097 54.0524 74.3509 58.188 74.2736 64.4879C73.9258 64.5652 73.6552 64.6038 73.346 64.6425C70.7952 65.0676 68.8627 67.0774 68.6694 69.3964V69.435C68.6694 69.5123 68.6694 69.551 68.6694 69.6283C68.6694 69.6669 68.6694 69.7442 68.6694 69.7829C68.6694 69.8215 68.6694 69.8215 68.6694 69.8602C68.6694 70.0148 68.6694 70.1694 68.6694 70.324C68.6694 70.5172 68.6694 70.7105 68.6694 70.9037C68.6694 70.981 68.6694 71.0197 68.6694 71.097C68.6694 71.2516 68.6694 71.3675 68.6694 71.5221C68.6694 71.754 68.6694 71.9859 68.6694 72.2178C68.6694 72.6043 68.6694 72.9521 68.6694 73.3386C68.6694 73.957 68.7854 74.5368 69.0173 75.1165C69.597 76.8944 71.3363 78.1699 73.3847 78.5564V78.5177C73.4233 78.5177 73.4233 78.5177 73.462 78.5177C75.3945 78.8655 76.3607 78.1699 76.3607 76.392C76.3607 72.4883 76.3607 68.5847 76.3607 64.6811C76.3607 63.9468 76.438 63.2511 76.5926 62.5554C77.5975 58.4972 82.1195 55.4825 86.5256 55.9076C91.4727 56.3714 95.0672 59.8499 95.1445 64.256C95.1831 66.4203 95.1445 68.5847 95.1445 70.7491C95.1445 72.7202 95.1445 74.6914 95.1445 76.7012C95.1445 78.0153 96.0334 78.7496 97.3862 78.6336C98.7775 78.5564 100.053 78.0153 101.019 77.2036C101.058 77.165 101.058 77.165 101.097 77.1263C101.174 77.049 101.212 77.0104 101.29 76.9331C101.328 76.8944 101.367 76.8558 101.406 76.8171C101.444 76.7398 101.522 76.7012 101.56 76.6239C101.599 76.5852 101.638 76.5466 101.676 76.4693C101.715 76.4306 101.754 76.3533 101.792 76.3147C101.831 76.276 101.87 76.1987 101.908 76.1601C101.947 76.1214 101.985 76.0441 102.024 76.0055C102.063 75.9282 102.101 75.8895 102.14 75.8122C102.179 75.7736 102.217 75.6963 102.217 75.6576C102.256 75.5803 102.295 75.503 102.333 75.4257C102.372 75.3871 102.372 75.3098 102.411 75.2711C102.449 75.1938 102.488 75.1165 102.488 75.0006C102.488 74.9619 102.527 74.9233 102.527 74.8846C102.565 74.7687 102.604 74.6141 102.604 74.4981C102.681 74.1503 102.72 73.7638 102.72 73.4159C102.72 73.2227 102.758 72.9908 102.758 72.7975C102.797 71.7927 102.758 70.8264 102.797 69.8602Z" fill="#176AAF"/>
<path d="M74.1189 63.4443C74.1962 57.1444 79.955 53.0089 85.7911 53.1249C91.0862 53.2022 96.6517 57.0285 96.9609 63.483C97.3474 63.5603 97.7339 63.5989 98.159 63.6762C100.787 64.256 102.642 66.3817 102.642 68.8167C102.642 70.3626 102.72 71.9473 102.449 73.4546C102.063 75.7349 99.7823 77.3969 97.1928 77.5901C95.8401 77.6674 94.9898 76.9331 94.9511 75.6576C94.9125 73.6865 94.9511 71.7154 94.9511 69.7056C94.9511 67.5412 94.9898 65.3768 94.9511 63.2124C94.8738 58.8064 91.2794 55.3279 86.3322 54.8641C81.9262 54.439 77.4042 57.4536 76.3993 61.5119C76.206 62.2076 76.1674 62.9419 76.1674 63.6376C76.1287 67.5412 76.1674 71.4448 76.1674 75.3484C76.1674 77.1263 75.2011 77.822 73.2686 77.4742C70.4472 76.9717 68.5147 74.846 68.5147 72.2951C68.5147 71.0583 68.4761 69.8215 68.5147 68.5848C68.5534 66.1885 70.5632 64.0627 73.1913 63.5989C73.4619 63.5603 73.7711 63.483 74.1189 63.4443Z" fill="#8FC5FF"/>
<path d="M98.1206 63.6763C98.0433 63.6763 97.966 63.6376 97.8887 63.6376V77.4742C100.13 77.0491 102.024 75.5031 102.411 73.4547C102.681 71.9473 102.604 70.3627 102.604 68.8167C102.643 66.3431 100.787 64.256 98.1206 63.6763Z" fill="#BBFFFC"/>
<path d="M72.9594 63.6763C73.0367 63.6763 73.114 63.6376 73.1913 63.6376V77.4742C70.9496 77.0491 69.0558 75.5031 68.6693 73.4547C68.3987 71.9473 68.476 70.3627 68.476 68.8167C68.476 66.3431 70.3312 64.256 72.9594 63.6763Z" fill="#BBFFFC"/>
<path d="M73.2684 77.4356C75.2009 77.7834 76.1672 77.0877 76.1672 75.3098C76.1672 73.5706 76.1672 71.7927 76.1672 70.0535C74.1574 72.1792 71.2973 73.9184 69.3262 74.962C70.1378 76.2374 71.5292 77.1264 73.2684 77.4356Z" fill="#E0E0E0"/>
<path d="M94.9897 75.8123C95.067 77.0104 95.9173 77.6675 97.1928 77.5902C99.7437 77.3969 102.024 75.735 102.449 73.4546C102.72 71.9473 102.642 70.3627 102.642 68.8167C102.642 67.7731 102.295 66.7682 101.715 65.9566C101.29 69.6283 99.7437 73.9957 94.9897 75.8123Z" fill="#E0E0E0"/>
<path d="M109.213 122.346H86.6034C85.5212 122.346 84.6709 121.457 84.6709 120.414V87.2138C84.6709 86.1316 85.5598 85.2813 86.6034 85.2813H109.213C110.296 85.2813 111.146 86.1703 111.146 87.2138V120.414C111.146 121.496 110.296 122.346 109.213 122.346Z" fill="#D1E3F4"/>
<path d="M108.17 121.226H86.951C85.8688 121.226 85.0186 120.337 85.0186 119.293V87.7163C85.0186 86.6341 85.9075 85.7838 86.951 85.7838H108.17C109.252 85.7838 110.102 86.6728 110.102 87.7163V119.293C110.102 120.337 109.252 121.226 108.17 121.226Z" fill="white"/>
<path d="M87.8786 94.7119L89.8884 97.2628C90.2362 97.6879 90.8546 97.8039 91.3184 97.4947L92.13 96.9536C92.2846 96.8376 92.5165 96.9536 92.5165 97.1468C92.5165 97.1468 92.7484 99.8137 92.7098 100.78C92.6711 101.862 92.246 105.379 92.246 105.379C92.246 105.534 92.3619 105.65 92.4779 105.65H102.952C103.3 105.65 103.57 105.379 103.532 105.031C103.532 105.031 102.952 101.514 102.875 100.316C102.797 99.002 103.107 96.7217 103.107 96.7217C103.107 96.4898 103.377 96.4125 103.532 96.5671L104.614 97.7266C104.73 97.8425 104.923 97.8039 105 97.6879L107.049 94.0162C107.087 93.9389 107.087 93.823 107.01 93.7457L104.537 91.2334C104.537 91.2334 104.537 91.2334 104.498 91.1948C103.493 90.3831 102.295 89.8807 101.019 89.6874L100.131 89.5715C100.015 89.5715 99.8986 89.6101 99.86 89.7261C99.744 90.1899 99.2416 91.3107 97.5023 91.3107C95.7631 91.3107 95.2993 90.1899 95.1834 89.7261C95.1447 89.6101 95.0288 89.5328 94.9128 89.5328L93.6374 89.6874C92.5165 89.8034 91.473 90.2672 90.6227 90.9629L90.584 91.0015L87.8013 94.48C87.8013 94.5187 87.8013 94.6346 87.8786 94.7119Z" fill="#176AAF"/>
<path d="M87.8786 93.7843L89.8884 96.3352C90.2362 96.7603 90.8546 96.8763 91.3184 96.5671L92.13 96.026C92.2846 95.91 92.5165 96.026 92.5165 96.2192C92.5165 96.2192 92.7484 98.886 92.7098 99.8523C92.6711 100.934 92.246 104.452 92.246 104.452C92.246 104.606 92.3619 104.722 92.4779 104.722H102.952C103.3 104.722 103.57 104.452 103.532 104.104C103.532 104.104 102.952 100.587 102.875 99.3885C102.797 98.0744 103.107 95.7941 103.107 95.7941C103.107 95.5622 103.377 95.4849 103.532 95.6395L104.614 96.799C104.73 96.9149 104.923 96.8763 105 96.7603L107.049 93.0886C107.087 93.0113 107.087 92.8953 107.01 92.818L104.537 90.3058C104.537 90.3058 104.537 90.3058 104.498 90.2672C103.493 89.4555 102.295 88.9531 101.019 88.7598L100.131 88.6439C100.015 88.6439 99.8986 88.6825 99.86 88.7985C99.744 89.2623 99.2416 90.3831 97.5023 90.3831C95.7631 90.3831 95.2993 89.2623 95.1834 88.7985C95.1447 88.6825 95.0288 88.6052 94.9128 88.6052L93.6374 88.7598C92.5165 88.8758 91.473 89.3396 90.6227 90.0353L90.584 90.0739L87.8013 93.5524C87.8013 93.591 87.8013 93.707 87.8786 93.7843Z" fill="#8FC5FF"/>
<path d="M91.8596 94.8278L91.048 95.3689C90.5842 95.6781 89.9658 95.5622 89.6179 95.137L88.1106 93.2045L87.9173 93.4751C87.8401 93.5524 87.8401 93.707 87.9173 93.7843L89.9271 96.3352C90.275 96.7603 90.8934 96.8763 91.3572 96.5671L92.1688 96.026C92.2075 95.9873 92.2848 95.9873 92.3234 95.9873C92.2848 95.4462 92.2461 95.0211 92.2461 95.0211C92.2461 94.8278 92.0142 94.7119 91.8596 94.8278Z" fill="#E0E0E0"/>
<path d="M107.049 92.7407L106.585 92.2383L104.769 95.4849C104.691 95.6395 104.498 95.6395 104.382 95.5235L103.3 94.364C103.145 94.2094 102.875 94.3254 102.875 94.5186C102.875 94.5186 102.527 96.8376 102.643 98.113C102.72 99.3112 103.3 102.828 103.3 102.828C103.3 103.176 103.029 103.447 102.72 103.447H92.362C92.2847 103.988 92.2461 104.374 92.2461 104.374C92.2461 104.529 92.362 104.645 92.478 104.645H102.952C103.3 104.645 103.57 104.374 103.532 104.026C103.532 104.026 102.952 100.509 102.875 99.3112C102.797 97.9971 103.107 95.7168 103.107 95.7168C103.107 95.4849 103.377 95.4076 103.532 95.5622L104.614 96.7216C104.73 96.8376 104.923 96.7989 105 96.683L107.049 93.0113C107.126 92.934 107.126 92.818 107.049 92.7407Z" fill="#E0E0E0"/>
<path d="M92.2847 109.128H102.991C103.068 109.128 103.107 109.167 103.107 109.244L104.228 119.1C104.228 119.177 104.189 119.254 104.112 119.254H98.3141C98.2368 119.254 98.1982 119.216 98.1982 119.139L97.6957 116.356C97.6571 116.201 97.4638 116.24 97.4638 116.356L97.1933 119.139C97.1933 119.216 97.116 119.254 97.0773 119.254H91.3572C91.2799 119.254 91.2412 119.177 91.2412 119.139L92.2075 109.283C92.1688 109.206 92.2074 109.128 92.2847 109.128Z" fill="#176AAF"/>
<path d="M92.2847 108.355H102.991C103.068 108.355 103.107 108.394 103.107 108.471L104.228 118.327C104.228 118.404 104.189 118.481 104.112 118.481H98.3141C98.2368 118.481 98.1982 118.443 98.1982 118.365L97.6957 115.583C97.6571 115.428 97.4638 115.467 97.4638 115.583L97.1933 118.365C97.1933 118.443 97.116 118.481 97.0773 118.481H91.3572C91.2799 118.481 91.2412 118.404 91.2412 118.365L92.2075 108.51C92.1688 108.394 92.2074 108.355 92.2847 108.355Z" fill="#BBFFFC"/>
<path d="M97.4638 113.959C97.4638 113.959 96.9227 116.935 95.8019 117.67C94.8743 118.25 92.2075 118.327 91.2412 118.365C91.2799 118.404 91.2799 118.404 91.3572 118.404H97.0773C97.1546 118.404 97.1933 118.365 97.1933 118.288L97.4638 115.505C97.4638 115.389 97.5798 115.389 97.6571 115.428L97.4638 113.959Z" fill="#E0E0E0"/>
<path d="M104.228 118.288L103.571 112.645C103.609 114.81 103.532 116.974 103.068 117.167C102.257 117.438 99.1261 117.631 98.0825 117.67L98.1985 118.327C98.1985 118.404 98.2758 118.443 98.3144 118.443H104.112C104.151 118.443 104.228 118.365 104.228 118.288Z" fill="#E0E0E0"/>
<path d="M81.463 122.346H62.6019C61.5197 122.346 60.6694 121.457 60.6694 120.414V87.2138C60.6694 86.1316 61.5584 85.2813 62.6019 85.2813H81.463C82.5452 85.2813 83.3954 86.1703 83.3954 87.2138V120.414C83.3954 121.496 82.5452 122.346 81.463 122.346Z" fill="#D1E3F4"/>
<path d="M80.4193 121.226H62.911C61.8288 121.226 60.9785 120.337 60.9785 119.293V87.7163C60.9785 86.6341 61.8675 85.7838 62.911 85.7838H80.4193C81.5015 85.7838 82.3518 86.6728 82.3518 87.7163V119.293C82.3518 120.337 81.5015 121.226 80.4193 121.226Z" fill="white"/>
<path d="M78.4479 103.099C78.0614 100.896 76.67 99.0793 74.8148 98.0358V91.9678C74.8148 91.3881 74.351 90.9243 73.7713 90.9243H69.172C68.5922 90.9243 68.1284 91.3881 68.1284 91.9678V98.0358C65.8867 99.2339 64.3794 101.592 64.3794 104.297C64.3794 107.003 65.8867 109.36 68.1284 110.558V116.626C68.1284 117.206 68.5922 117.67 69.172 117.67H73.7713C74.351 117.67 74.8148 117.206 74.8148 116.626V110.558C76.8246 109.476 78.2933 107.428 78.5252 105.031H79.1049V103.099H78.4479ZM76.0902 101.166C75.7424 100.664 75.3173 100.2 74.8148 99.8137C75.2786 100.2 75.7424 100.664 76.0902 101.166ZM68.0898 99.8137C67.5873 100.2 67.1622 100.625 66.8143 101.166C67.1235 100.664 67.5873 100.2 68.0898 99.8137ZM66.7757 107.428C67.1235 107.93 67.5487 108.394 68.0511 108.78C67.5873 108.394 67.1235 107.969 66.7757 107.428Z" fill="#176AAF"/>
<path d="M73.6556 116.588H69.0562C68.4765 116.588 68.0127 116.124 68.0127 115.544V90.8469C68.0127 90.2672 68.4765 89.8034 69.0562 89.8034H73.6556C74.2353 89.8034 74.6991 90.2672 74.6991 90.8469V115.544C74.6991 116.124 74.2353 116.588 73.6556 116.588Z" fill="#8FC5FF"/>
<path d="M74.6989 97.7266V90.8469C74.6989 90.6537 74.6216 90.4604 74.5443 90.3058L73.8486 97.7652L74.6989 97.7266Z" fill="#E0E0E0"/>
<path d="M72.2362 108.71C75.2914 108.214 77.3661 105.335 76.8703 102.28C76.3745 99.225 73.4958 97.1502 70.4406 97.646C67.3854 98.1419 65.3106 101.021 65.8065 104.076C66.3023 107.131 69.181 109.206 72.2362 108.71Z" fill="#8FC5FF"/>
<path d="M79.0279 101.978H78.3708C77.7911 98.6155 74.8923 96.0646 71.3752 96.0646C67.4329 96.0646 64.2637 99.2339 64.2637 103.176C64.2637 107.118 67.4329 110.288 71.3752 110.288C75.0469 110.288 78.0616 107.505 78.4481 103.911H79.0279V101.978ZM71.3366 108.78C68.2446 108.78 65.7324 106.268 65.7324 103.176C65.7324 100.084 68.2446 97.572 71.3366 97.572C74.4285 97.572 76.9408 100.084 76.9408 103.176C76.9408 106.268 74.4285 108.78 71.3366 108.78Z" fill="#BBFFFC"/>
<path d="M74.0033 103.679H71.1046L71.0659 99.3885C71.0659 99.2726 71.1432 99.1953 71.2592 99.1953C71.3751 99.1953 71.4524 99.2726 71.4524 99.3885L71.4911 103.331H74.0033C74.1192 103.331 74.1965 103.408 74.1965 103.524C74.1579 103.601 74.0806 103.679 74.0033 103.679Z" fill="#BBFFFC"/>
<path d="M68.0127 107.698C68.9403 108.394 70.0998 108.78 71.3366 108.78C74.4285 108.78 76.9408 106.268 76.9408 103.176C76.9408 101.746 76.3997 100.432 75.5107 99.4658C75.3948 102.249 73.9647 105.998 68.0127 107.698Z" fill="#E0E0E0"/>
<path d="M74.4286 109.09C74.4286 109.09 74.7765 113.805 73.7329 114.462C71.9937 115.544 69.3269 115.583 67.9741 115.505V115.583C67.9741 116.162 68.4379 116.626 69.0177 116.626H73.617C74.1967 116.626 74.6605 116.162 74.6605 115.583V109.515C76.6703 108.433 78.139 106.384 78.3709 103.988C78.4095 103.949 76.9795 108.239 74.4286 109.09Z" fill="#E0E0E0"/>
<path d="M133.408 43.5784C126.876 43.5784 121.581 47.7525 121.581 52.8543C121.581 56.4487 124.209 59.5793 127.997 61.1253C127.61 61.937 126.953 62.6713 126.103 63.0965C125.91 63.2124 125.639 63.367 125.755 63.5603C125.794 63.6376 125.871 63.6762 125.948 63.7149C126.644 64.0627 127.494 64.1014 128.267 63.9081C129.04 63.7149 129.697 63.3284 130.316 62.8646C130.664 62.594 130.973 62.3235 131.243 62.0143C131.939 62.1302 132.635 62.1689 133.369 62.1689C139.901 62.1689 145.196 57.9947 145.196 52.8929C145.235 47.7525 139.94 43.5784 133.408 43.5784Z" fill="#4F66F5"/>
<path d="M126.992 55.0573C127.931 55.0573 128.693 54.2959 128.693 53.3567C128.693 52.4175 127.931 51.6561 126.992 51.6561C126.053 51.6561 125.292 52.4175 125.292 53.3567C125.292 54.2959 126.053 55.0573 126.992 55.0573Z" fill="white"/>
<path d="M133.447 55.0574C134.386 55.0574 135.147 54.296 135.147 53.3568C135.147 52.4176 134.386 51.6562 133.447 51.6562C132.507 51.6562 131.746 52.4176 131.746 53.3568C131.746 54.296 132.507 55.0574 133.447 55.0574Z" fill="white"/>
<path d="M139.901 55.0574C140.84 55.0574 141.602 54.296 141.602 53.3568C141.602 52.4176 140.84 51.6562 139.901 51.6562C138.962 51.6562 138.201 52.4176 138.201 53.3568C138.201 54.296 138.962 55.0574 139.901 55.0574Z" fill="white"/>
<path opacity="0.62" d="M135.843 156.474C135.843 157.092 130.316 157.633 123.475 157.633C116.634 157.633 111.107 157.131 111.107 156.474C111.107 155.856 116.634 155.315 123.475 155.315C130.316 155.315 135.843 155.817 135.843 156.474Z" fill="#4D2684"/>
<path d="M137.389 136.763C137.273 136.608 137.08 136.531 136.925 136.531H127.92V132.434H127.186V136.531H120.113V132.434H119.378V136.531H110.373C110.18 136.531 110.025 136.608 109.909 136.763C109.793 136.917 109.716 137.11 109.755 137.304L113.001 155.546C113.04 155.894 113.31 156.126 113.62 156.126H133.679C133.988 156.126 134.259 155.856 134.297 155.546L137.544 137.342V137.304C137.544 137.072 137.505 136.879 137.389 136.763ZM128.191 148.937H119.494L118.76 143.372H128.964L128.191 148.937ZM129.659 143.372H135.689L134.684 148.937H128.925L129.659 143.372ZM128.075 149.749L127.34 155.314H120.345L119.61 149.749H128.075ZM111.533 143.372H117.948L118.683 148.937H112.499L111.533 143.372ZM118.605 142.56L117.91 137.304H129.737L129.041 142.56H118.605ZM117.137 137.304L117.832 142.56H111.378L110.45 137.304H117.137ZM112.692 149.749H118.837L119.572 155.314H113.658L112.692 149.749ZM133.563 155.314H128.075L128.809 149.749H134.529L133.563 155.314ZM135.843 142.56H129.775L130.471 137.304H136.771L135.843 142.56Z" fill="#4D2684"/>
<path d="M128.654 132.434H118.605C118.18 132.434 117.871 132.086 117.871 131.7V131.197C117.871 130.772 118.219 130.463 118.605 130.463H128.654C129.08 130.463 129.389 130.811 129.389 131.197V131.7C129.389 132.086 129.08 132.434 128.654 132.434Z" fill="#4D2684"/>
<path opacity="0.62" d="M49.2288 155.121C49.2288 156.01 43.8951 156.745 37.286 156.745C30.6769 156.745 25.3433 156.01 25.3433 155.121C25.3433 154.232 30.6769 153.498 37.286 153.498C43.8951 153.498 49.2288 154.232 49.2288 155.121Z" fill="#4D2684"/>
<path d="M26.928 123.854H23.4109C22.8311 123.854 22.29 124.086 21.9035 124.549C21.517 124.975 21.3624 125.554 21.4397 126.134L23.6814 142.947C23.7974 143.913 24.6477 144.686 25.6526 144.686H48.2626L47.6829 146.734C47.2577 148.242 45.8663 149.324 44.2817 149.324H27.9715C27.6237 149.324 27.3145 149.633 27.3145 149.981C27.3145 150.329 27.6237 150.638 27.9715 150.638H30.0973C29.6721 151.063 29.4402 151.643 29.4402 152.261C29.4402 153.537 30.4838 154.542 31.7206 154.542C32.996 154.542 34.0009 153.498 34.0009 152.261C34.0009 151.643 33.7303 151.063 33.3438 150.638H41.3443C40.9192 151.063 40.6873 151.643 40.6873 152.261C40.6873 153.537 41.7308 154.542 42.9676 154.542C44.2431 154.542 45.2479 153.498 45.2479 152.261C45.2479 151.604 44.9774 151.024 44.5522 150.638C46.562 150.483 48.3399 149.092 48.881 147.121L49.5767 144.686L53.1711 132.009L55.7993 122.771H61.7514C62.0992 122.771 62.4084 122.462 62.4084 122.114C62.4084 121.767 62.0992 121.457 61.7514 121.457H54.7944L54.0987 123.854H27.8556H26.928ZM30.7157 152.223C30.7157 151.681 31.1408 151.256 31.6819 151.256C32.223 151.256 32.6481 151.681 32.6481 152.223C32.6481 152.764 32.223 153.189 31.6819 153.189C31.1408 153.227 30.7157 152.764 30.7157 152.223ZM42.0014 152.223C42.0014 151.681 42.4265 151.256 42.9676 151.256C43.5087 151.256 43.9339 151.681 43.9339 152.223C43.9339 152.764 43.5087 153.189 42.9676 153.189C42.4265 153.227 42.0014 152.764 42.0014 152.223ZM23.4109 125.168H26.8507L27.1212 127.603H22.9857L22.7538 125.941C22.7152 125.748 22.7925 125.554 22.9084 125.4C23.0244 125.245 23.2176 125.168 23.4109 125.168ZM23.1403 128.917H27.2758L27.7396 133.13H23.7201L23.1403 128.917ZM23.8747 134.444H27.8556L28.3194 138.541H24.4158L23.8747 134.444ZM30.1359 143.333L29.7494 139.855H36.4358V143.333H30.1359ZM37.7886 143.333V139.855H45.016L44.6295 143.333H37.7886ZM28.4353 127.603L28.1648 125.168H36.4745V127.603H28.4353ZM36.4745 128.917V133.13H29.0537L28.5899 128.917H36.4745ZM37.7886 125.168H46.6007L46.3301 127.603H37.7886V125.168ZM46.1755 128.917L45.7117 133.13H37.7886V128.917H46.1755ZM47.4896 128.917H52.7073L51.5092 133.13H47.0258L47.4896 128.917ZM49.9632 138.541H46.4461L46.9099 134.444H51.1613L49.9632 138.541ZM45.132 138.541H37.7886V134.444H45.5958L45.132 138.541ZM29.6335 138.541L29.1697 134.444H36.4358V138.541H29.6335ZM53.7895 125.168L53.0938 127.603H47.6442L47.9148 125.168H53.7895ZM48.6105 143.333H45.905L46.2915 139.855H49.5767L48.6105 143.333ZM24.9955 142.753L24.609 139.855H28.474L28.8605 143.333H25.6912C25.3047 143.333 25.0342 143.101 24.9955 142.753Z" fill="#4D2684"/>
<path d="M59.6256 122.346C57.8864 122.346 56.1858 122.424 54.5239 122.54L54.1374 123.854H45.7117C44.0498 124.24 42.3879 124.665 40.8419 125.168H46.6007L46.3301 127.603H37.7886V126.211C37.3634 126.366 36.8996 126.559 36.4745 126.752V127.603H34.5806C33.6917 128.028 32.8414 128.453 31.9911 128.917H36.4745V133.13H29.0537L28.8218 130.888C28.3967 131.158 28.0102 131.468 27.585 131.777L27.7396 133.168H25.8458C25.3434 133.593 24.8796 134.018 24.4158 134.482H27.8942L28.358 138.579H24.4544L23.952 134.907C23.5655 135.333 23.179 135.719 22.7925 136.144L23.6814 142.908C23.7974 143.874 24.6477 144.647 25.6526 144.647H48.2626L47.6829 146.696C47.2577 148.203 45.8663 149.285 44.2817 149.285H27.9715C27.6237 149.285 27.3145 149.594 27.3145 149.942C27.3145 150.29 27.6237 150.599 27.9715 150.599H30.0973C29.6721 151.024 29.4402 151.604 29.4402 152.222C29.4402 153.498 30.4838 154.503 31.7206 154.503C32.996 154.503 34.0009 153.459 34.0009 152.222C34.0009 151.604 33.7303 151.024 33.3438 150.599H41.3443C40.9192 151.024 40.6873 151.604 40.6873 152.222C40.6873 153.498 41.7308 154.503 42.9676 154.503C44.2431 154.503 45.248 153.459 45.248 152.222C45.248 151.565 44.9774 150.986 44.5523 150.599C46.562 150.445 48.3399 149.053 48.881 147.082L49.5767 144.647L53.1711 131.97L55.7993 122.733H61.7514C61.9833 122.733 62.2152 122.578 62.3311 122.385C61.4422 122.385 60.5532 122.346 59.6256 122.346ZM25.6526 143.333C25.3047 143.333 25.0342 143.062 24.9955 142.753L24.609 139.855H28.474L28.8605 143.333H25.6526ZM36.4745 143.333H30.1359L29.7494 139.855H36.4358V143.333H36.4745ZM36.4745 138.54H29.6335L29.1697 134.444H36.4358V138.54H36.4745ZM31.6819 153.227C31.1408 153.227 30.7157 152.802 30.7157 152.261C30.7157 151.72 31.1408 151.295 31.6819 151.295C32.223 151.295 32.6482 151.72 32.6482 152.261C32.6868 152.764 32.223 153.227 31.6819 153.227ZM42.9676 153.227C42.4265 153.227 42.0014 152.802 42.0014 152.261C42.0014 151.72 42.4265 151.295 42.9676 151.295C43.5087 151.295 43.9339 151.72 43.9339 152.261C43.9725 152.764 43.5087 153.227 42.9676 153.227ZM44.6296 143.333H37.7886V139.855H45.0161L44.6296 143.333ZM45.132 138.54H37.7886V134.444H45.5958L45.132 138.54ZM37.7886 133.13V128.917H46.1755L45.7117 133.13H37.7886ZM48.6105 143.333H45.905L46.2915 139.855H49.5767L48.6105 143.333ZM49.9632 138.54H46.4461L46.9099 134.444H51.1614L49.9632 138.54ZM51.5092 133.13H47.0258L47.4896 128.917H52.7073L51.5092 133.13ZM53.0938 127.603H47.6442L47.9148 125.168H53.7895L53.0938 127.603Z" fill="#4D2684"/>
<path opacity="0.62" d="M68.3215 158.368C68.3215 159.257 62.9879 159.991 56.3788 159.991C49.7697 159.991 44.436 159.257 44.436 158.368C44.436 157.479 49.7697 156.745 56.3788 156.745C62.9879 156.745 68.3215 157.479 68.3215 158.368Z" fill="#C5E3FF"/>
<path d="M66.389 158.754H47.1415C46.639 158.754 46.2139 158.329 46.2139 157.827V143.41C46.2139 142.908 46.639 142.483 47.1415 142.483H66.389C66.8915 142.483 67.3166 142.908 67.3166 143.41V157.827C67.3166 158.368 66.8915 158.754 66.389 158.754Z" fill="#4F66F5"/>
<path d="M67.3165 148.86H46.2524V151.681H67.3165V148.86Z" fill="#D1E3F4"/>
<path d="M64.65 142.521H62.3696V158.754H64.65V142.521Z" fill="#D1E3F4"/>
<path d="M59.7801 142.715H49.1128C48.6877 142.715 48.3398 142.367 48.3398 141.942V134.057C48.3398 133.632 48.6877 133.284 49.1128 133.284H59.7801C60.2053 133.284 60.5531 133.632 60.5531 134.057V141.942C60.5531 142.367 60.2053 142.715 59.7801 142.715Z" fill="#8FC5FF"/>
<path d="M60.5531 141.903V137.149C58.8912 139.468 55.5287 141.787 48.8423 142.637C48.9196 142.676 48.9969 142.676 49.1128 142.676H59.7801C60.2053 142.715 60.5531 142.367 60.5531 141.903Z" fill="#D1D2D3"/>
<path d="M53.8664 133.246H50.7744V142.715H53.8664V133.246Z" fill="#D1E3F4"/>
<path d="M46.9097 158.716C46.987 158.754 47.0643 158.754 47.1802 158.754H66.4278C66.9302 158.754 67.3554 158.329 67.3554 157.827V143.41C67.3554 143.256 67.3167 143.101 67.2394 142.947C64.5339 147.546 58.3886 155.624 46.9097 158.716Z" fill="#D1D2D3"/>
</g>
</svg>
