<svg width="172" height="188" viewBox="0 0 172 188" fill="none" xmlns="http://www.w3.org/2000/svg">
<mask id="mask0_63_3173" style="mask-type:alpha" maskUnits="userSpaceOnUse" x="0" y="0" width="172" height="188">
<rect width="172" height="188" fill="#D9D9D9"/>
</mask>
<g mask="url(#mask0_63_3173)">
<path d="M18.8491 126.797C18.832 126.63 18.795 126.509 18.7779 126.342C18.3814 125.705 18.063 124.991 17.7446 124.278L18.8491 126.797Z" fill="#F6F6F8"/>
<path d="M156.549 75.4579C158.952 57.1649 151.283 40.4353 135.107 37.3449C118.892 34.2394 99.4258 42.5673 85.1958 54.5678C84.925 54.7783 84.6725 55.0492 84.4017 55.2596C75.3763 63.1252 67.6309 72.6662 58.8313 80.8336C48.9655 90.0089 36.3193 95.1093 27.4062 106.095C20.7115 114.357 15.1085 126.977 22.5522 134.602C30.6762 142.922 42.0879 148.732 52.5203 153.303C69.1974 160.57 88.5814 161.436 106.941 151.342C122.928 142.585 136.32 127.388 145.237 110.253C151.01 99.2915 154.957 87.392 156.549 75.4579Z" fill="#F6F6F8"/>
<g opacity="0.73">
<path d="M38.0059 69.2773C37.8138 69.2773 37.6218 69.2389 37.4297 69.2005L34.2035 68.3171C33.0513 68.0099 32.3984 66.8193 32.7057 65.7055L33.7811 61.7495C31.8223 60.7125 30.0556 59.3683 28.5961 57.7168L25.0626 59.7524C24.5634 60.0212 23.9872 60.098 23.4495 59.9444C22.9118 59.7908 22.451 59.4451 22.1437 58.9458L20.4922 56.0269C19.9161 54.9899 20.2618 53.684 21.2987 53.1079L24.8322 51.0723C24.1409 48.96 23.872 46.7707 24.0257 44.5431L20.0697 43.5445C18.9175 43.2373 18.2646 42.0467 18.5718 40.9329L19.4552 37.7067C19.7625 36.5544 20.9531 35.9015 22.0669 36.2088L26.0228 37.2842C27.0598 35.3254 28.4041 33.5587 30.0556 32.0992L28.02 28.5658C27.7511 28.0665 27.6743 27.4904 27.828 26.9527C27.9816 26.415 28.3273 25.9541 28.8265 25.6468L31.7455 23.9953C32.7825 23.4192 34.0883 23.7649 34.6644 24.8019L36.7 28.3353C38.8124 27.644 41.0016 27.3751 43.2292 27.5288L44.3046 23.5728C44.6119 22.4206 45.8025 21.7677 46.9163 22.075L50.1425 22.9583C51.2947 23.2656 51.9476 24.4562 51.6404 25.57L50.565 29.5259C52.5238 30.5629 54.2905 31.9072 55.7499 33.5587L59.2834 31.5231C59.7827 31.2543 60.3588 31.1774 60.8965 31.3311C61.4342 31.4847 61.8951 31.8304 62.2023 32.3297L63.8539 35.2486C64.1227 35.7479 64.1995 36.324 64.0459 36.8617C63.8923 37.3994 63.5466 37.8603 63.0473 38.1675L59.5138 40.2031C60.2052 42.3155 60.474 44.5047 60.3204 46.7323L64.2763 47.8077C64.814 47.9614 65.2749 48.307 65.5822 48.8063C65.851 49.3056 65.9278 49.8817 65.7742 50.4194L64.8908 53.6456C64.5836 54.7978 63.393 55.4508 62.2792 55.1435L58.3232 54.0681C57.2862 56.0269 55.942 57.7936 54.2905 59.2531L56.3261 62.7865C56.5949 63.2858 56.6717 63.8619 56.5181 64.3996C56.3645 64.9373 56.0188 65.3982 55.5195 65.7055L52.6006 67.357C52.1013 67.6258 51.5252 67.7026 50.9875 67.549C50.4498 67.3954 49.9889 67.0497 49.6816 66.5504L47.646 63.017C45.5336 63.7083 43.3444 63.9771 41.1168 63.8235L40.0414 67.7794C39.8878 68.3171 39.5421 68.778 39.0428 69.0853C38.7356 69.2005 38.3899 69.2773 38.0059 69.2773ZM28.865 56.2573L29.1722 56.6414C30.7085 58.4465 32.5904 59.906 34.7412 60.943L35.1637 61.135L33.8195 66.0127C33.7427 66.2816 33.7811 66.512 33.8963 66.7425C34.0115 66.9729 34.242 67.1265 34.4724 67.2033L37.6986 68.0867C37.9674 68.1635 38.1979 68.1251 38.4283 68.0099C38.6588 67.8947 38.8124 67.6642 38.8892 67.4338L40.2335 62.5945L40.6943 62.6329C43.0756 62.8249 45.4184 62.5177 47.6845 61.7495L48.1453 61.5959L50.6418 65.9743C50.757 66.2048 50.9875 66.3584 51.2179 66.4352C51.4868 66.512 51.7556 66.4736 51.9476 66.3584L54.8666 64.7069C55.097 64.5917 55.2507 64.3612 55.3275 64.1308C55.4043 63.8619 55.3659 63.6315 55.2507 63.401L52.7542 59.0226L53.1383 58.7154C54.9434 57.1791 56.4029 55.2971 57.4399 53.1463L57.6319 52.7238L62.5096 54.0681C63.0473 54.2217 63.585 53.9145 63.7002 53.3768L64.5836 50.1506C64.6604 49.8817 64.622 49.6513 64.5068 49.4208C64.3915 49.1904 64.1611 49.0368 63.9307 48.96L59.0914 47.6157L59.1298 47.1548C59.3218 44.7736 59.0146 42.4307 58.2464 40.1647L58.0928 39.7038L62.4712 37.2074C62.7016 37.0921 62.8553 36.8617 62.9321 36.6313C63.0089 36.3624 62.9705 36.132 62.8553 35.9015L61.2038 32.9826C61.0885 32.7521 60.8581 32.5985 60.6277 32.5217C60.3588 32.4449 60.1284 32.4833 59.8979 32.5985L55.5195 35.095L55.2122 34.7109C53.676 32.9058 51.794 31.4463 49.6432 30.4093L49.1823 30.102L50.5266 25.2243C50.6034 24.9555 50.565 24.725 50.4498 24.4946C50.3345 24.2642 50.1041 24.1105 49.8737 24.0337L46.6475 23.1504C46.1098 22.9967 45.5721 23.304 45.4568 23.8417L44.1126 28.681L43.6517 28.6426C41.2705 28.4505 38.9276 28.7578 36.6616 29.5259L36.2007 29.6796L33.7043 25.3012C33.589 25.0707 33.3586 24.9171 33.1281 24.8403C32.8593 24.7635 32.6289 24.8019 32.3984 24.9171L29.4795 26.5686C29.249 26.6838 29.0954 26.9143 29.0186 27.1447C28.9418 27.4135 28.9802 27.644 29.0954 27.8744L31.5919 32.2528L31.2078 32.5601C29.4027 34.0964 27.9432 35.9783 26.9062 38.1291L26.7142 38.5516L21.8364 37.2074C21.5676 37.1306 21.3372 37.169 21.1067 37.2842C20.8763 37.3994 20.7226 37.6298 20.6458 37.8603L19.7625 41.0865C19.6856 41.3553 19.7241 41.5858 19.8393 41.8162C19.9545 42.0467 20.1849 42.2003 20.4154 42.2771L25.2547 43.6214L25.2163 44.0822C25.0242 46.4635 25.3315 48.8063 26.0996 51.0723L26.2533 51.5332L21.8749 54.0297C21.6444 54.1449 21.4908 54.3754 21.414 54.6058C21.3372 54.8746 21.3756 55.1051 21.4908 55.3355L23.1423 58.2545C23.2575 58.4849 23.488 58.6385 23.7184 58.7154C23.9872 58.7922 24.2177 58.7538 24.4481 58.6385L28.865 56.2573ZM42.1922 55.2587C41.3473 55.2587 40.4639 55.1435 39.619 54.9131C37.1225 54.2217 35.0869 52.647 33.7811 50.381C32.5136 48.1534 32.168 45.5417 32.8593 43.0837C33.5506 40.5872 35.1253 38.5516 37.3913 37.2458C39.619 35.9783 42.2306 35.6327 44.6887 36.324C47.1852 37.0153 49.2207 38.59 50.5266 40.856C51.794 43.0837 52.1397 45.6953 51.4483 48.1534C50.757 50.6499 49.1823 52.6854 46.9163 53.9913C45.4568 54.8362 43.8437 55.2587 42.1922 55.2587ZM42.1538 37.169C40.6943 37.169 39.2733 37.553 37.9674 38.2828C36.0087 39.3966 34.5876 41.2401 34.0115 43.3909C33.397 45.5801 33.7043 47.8461 34.8181 49.8049C35.9319 51.7637 37.7754 53.1847 39.9262 53.7608C42.1154 54.3754 44.3814 54.0681 46.3402 52.9543C48.299 51.8405 49.72 49.9969 50.2961 47.8461C50.9106 45.6569 50.6034 43.3909 49.4896 41.4322C48.3758 39.4734 46.5322 38.0523 44.3814 37.4762C43.6517 37.2458 42.8836 37.169 42.1538 37.169Z" fill="#B8B8E7"/>
</g>
<g opacity="0.69">
<path d="M131.412 58.9074L109.674 59.2914C109.059 59.2914 108.521 58.9074 108.521 58.4081L108.252 43.967C108.252 43.4677 108.752 43.0452 109.366 43.0452L131.105 42.6611C131.719 42.6611 132.257 43.0452 132.257 43.5445L132.526 57.9856C132.526 58.4849 132.026 58.9074 131.412 58.9074ZM109.405 43.3141C108.944 43.3141 108.56 43.6213 108.56 43.967L108.829 58.4081C108.829 58.7537 109.213 59.0226 109.712 59.0226L131.45 58.6385C131.911 58.6385 132.295 58.3312 132.295 57.9856L132.026 43.5445C132.026 43.1988 131.642 42.93 131.143 42.93L109.405 43.3141Z" fill="#B8B8E7"/>
<path d="M132.017 45.5945L108.44 46.0226L108.445 46.2914L132.022 45.8633L132.017 45.5945Z" fill="#B8B8E7"/>
<path d="M110.135 45.2729C109.866 45.2729 109.635 45.0424 109.635 44.7736C109.635 44.5047 109.866 44.2743 110.135 44.2743C110.403 44.2743 110.634 44.5047 110.634 44.7736C110.634 45.0424 110.403 45.2729 110.135 45.2729ZM110.135 44.5431C110.019 44.5431 109.904 44.6584 109.904 44.7736C109.904 44.8888 110.019 45.004 110.135 45.004C110.25 45.004 110.365 44.8888 110.365 44.7736C110.365 44.6584 110.25 44.5431 110.135 44.5431Z" fill="#B8B8E7"/>
<path d="M111.517 45.2729C111.248 45.2729 111.018 45.0424 111.018 44.7736C111.018 44.5047 111.248 44.2743 111.517 44.2743C111.786 44.2743 112.016 44.5047 112.016 44.7736C112.016 45.0424 111.824 45.2729 111.517 45.2729ZM111.517 44.5047C111.402 44.5047 111.286 44.62 111.286 44.7352C111.286 44.8504 111.402 44.9656 111.517 44.9656C111.632 44.9656 111.747 44.8504 111.747 44.7352C111.747 44.62 111.632 44.5047 111.517 44.5047Z" fill="#B8B8E7"/>
<path d="M112.9 45.2344C112.631 45.2344 112.4 45.0039 112.4 44.7351C112.4 44.4662 112.631 44.2358 112.9 44.2358C113.169 44.2358 113.399 44.4662 113.399 44.7351C113.399 45.0039 113.169 45.2344 112.9 45.2344ZM112.9 44.5046C112.784 44.5046 112.669 44.6199 112.669 44.7351C112.669 44.8503 112.784 44.9655 112.9 44.9655C113.015 44.9655 113.13 44.8503 113.13 44.7351C113.13 44.5814 113.015 44.5046 112.9 44.5046Z" fill="#B8B8E7"/>
</g>
<g opacity="0.69">
<path d="M58.4769 145.131L36.7384 145.515C36.1239 145.515 35.5862 145.131 35.5862 144.632L35.3174 130.191C35.3174 129.692 35.8167 129.269 36.4312 129.269L58.1696 128.885C58.7841 128.885 59.3218 129.269 59.3218 129.769L59.5907 144.21C59.5907 144.709 59.0914 145.131 58.4769 145.131ZM36.4696 129.577C36.0087 129.577 35.6246 129.884 35.6246 130.229L35.8935 144.671C35.8935 145.016 36.2776 145.285 36.7769 145.285L58.5153 144.901C58.9762 144.901 59.3602 144.594 59.3602 144.248L59.0914 129.807C59.0914 129.461 58.7073 129.192 58.208 129.192L36.4696 129.577Z" fill="#B8B8E7"/>
<path d="M59.0846 131.816L35.5073 132.244L35.5122 132.513L59.0895 132.084L59.0846 131.816Z" fill="#B8B8E7"/>
<path d="M37.199 131.535C36.9302 131.535 36.6997 131.305 36.6997 131.036C36.6997 130.767 36.9302 130.537 37.199 130.537C37.4679 130.537 37.6983 130.767 37.6983 131.036C37.6983 131.305 37.4679 131.535 37.199 131.535ZM37.199 130.767C37.0838 130.767 36.9686 130.882 36.9686 130.998C36.9686 131.113 37.0838 131.228 37.199 131.228C37.3142 131.228 37.4294 131.113 37.4294 130.998C37.4294 130.882 37.3142 130.767 37.199 130.767Z" fill="#B8B8E7"/>
<path d="M38.5818 131.497C38.313 131.497 38.0825 131.266 38.0825 130.998C38.0825 130.729 38.313 130.498 38.5818 130.498C38.8507 130.498 39.0811 130.729 39.0811 130.998C39.1195 131.266 38.8891 131.497 38.5818 131.497ZM38.5818 130.767C38.4666 130.767 38.3514 130.882 38.3514 130.998C38.3514 131.113 38.4666 131.228 38.5818 131.228C38.697 131.228 38.8123 131.113 38.8123 130.998C38.8123 130.844 38.7354 130.767 38.5818 130.767Z" fill="#B8B8E7"/>
<path d="M39.9646 131.458C39.6958 131.458 39.4653 131.228 39.4653 130.959C39.4653 130.69 39.6958 130.46 39.9646 130.46C40.2335 130.46 40.4639 130.69 40.4639 130.959C40.4639 131.228 40.2719 131.458 39.9646 131.458ZM39.9646 130.729C39.8494 130.729 39.7342 130.844 39.7342 130.959C39.7342 131.074 39.8494 131.19 39.9646 131.19C40.0798 131.19 40.1951 131.074 40.1951 130.959C40.1951 130.844 40.0798 130.729 39.9646 130.729Z" fill="#B8B8E7"/>
</g>
<g opacity="0.55">
<path d="M148.772 104.305L146.506 102.499C147.235 101.117 147.696 99.6189 147.773 98.0826L150.654 97.7754C151.191 97.6985 151.575 97.2376 151.537 96.6999L151.307 94.5876C151.23 94.0499 150.769 93.6658 150.231 93.7042L147.351 94.0114C146.928 92.552 146.16 91.1693 145.123 89.9787L146.928 87.7127C147.274 87.2902 147.197 86.6757 146.775 86.33L145.123 85.0242C144.701 84.6785 144.086 84.7553 143.74 85.1778L141.935 87.4438C140.553 86.7141 139.055 86.2532 137.518 86.1764L137.211 83.2959C137.134 82.7582 136.673 82.3741 136.136 82.4125L134.023 82.6429C133.486 82.7198 133.102 83.1806 133.14 83.7183L133.447 86.5989C131.988 87.0214 130.605 87.7895 129.415 88.8265L127.149 87.0214C126.726 86.6757 126.112 86.7525 125.766 87.175L124.46 88.8265C124.114 89.249 124.191 89.8635 124.614 90.2091L126.88 92.0143C126.15 93.3969 125.689 94.8948 125.612 96.4311L122.732 96.7384C122.194 96.8152 121.81 97.2761 121.848 97.8138L122.079 99.9261C122.156 100.464 122.616 100.848 123.154 100.81L126.035 100.502C126.457 101.962 127.225 103.344 128.262 104.535L126.457 106.801C126.112 107.224 126.188 107.838 126.611 108.184L128.262 109.49C128.685 109.835 129.299 109.758 129.645 109.336L131.45 107.07C132.833 107.8 134.331 108.261 135.867 108.337L136.174 111.218C136.251 111.756 136.712 112.14 137.25 112.101L139.362 111.871C139.9 111.794 140.284 111.333 140.245 110.795L139.938 107.915C141.398 107.492 142.78 106.724 143.971 105.687L146.237 107.492C146.659 107.838 147.274 107.761 147.62 107.339L148.925 105.687C149.271 105.265 149.194 104.65 148.772 104.305ZM133.14 101.731C130.682 99.7725 130.298 96.1623 132.257 93.7042C134.215 91.2461 137.826 90.8621 140.284 92.8208C142.742 94.7796 143.126 98.3899 141.167 100.848C139.208 103.306 135.598 103.69 133.14 101.731Z" fill="white"/>
<path d="M137.173 112.293C136.904 112.293 136.635 112.216 136.443 112.024C136.213 111.832 136.059 111.564 136.021 111.218L135.714 108.529C134.254 108.414 132.833 107.992 131.527 107.3L129.837 109.413C129.645 109.643 129.376 109.797 129.031 109.835C128.723 109.874 128.416 109.797 128.147 109.566L126.496 108.261C126.265 108.069 126.112 107.8 126.073 107.454C126.035 107.147 126.112 106.839 126.342 106.571L128.032 104.458C127.072 103.344 126.381 102.039 125.92 100.618L123.231 100.925C122.924 100.963 122.617 100.886 122.348 100.656C122.117 100.464 121.964 100.195 121.925 99.8494L121.695 97.737C121.657 97.4297 121.733 97.1225 121.964 96.8536C122.156 96.6232 122.425 96.4696 122.77 96.4312L125.459 96.1239C125.574 94.6644 125.997 93.2434 126.688 91.9375L124.576 90.2476C124.345 90.0556 124.191 89.7867 124.153 89.441C124.115 89.1338 124.191 88.8265 124.422 88.5577L125.728 86.9062C125.92 86.6757 126.189 86.5221 126.534 86.4837C126.842 86.4453 127.149 86.5221 127.418 86.7525L129.53 88.4425C130.644 87.4823 131.95 86.791 133.371 86.3301L133.063 83.6416C132.987 82.9886 133.448 82.4125 134.1 82.3357L136.213 82.1053C136.866 82.0285 137.442 82.4894 137.519 83.1423L137.826 85.8308C139.285 85.946 140.707 86.3685 142.012 87.0598L143.702 84.9474C144.125 84.4481 144.854 84.3713 145.354 84.7554L147.005 86.0612C147.236 86.2533 147.389 86.5221 147.428 86.8678C147.466 87.175 147.389 87.4823 147.159 87.7511L145.469 89.8635C146.429 90.9773 147.121 92.2832 147.581 93.7042L150.27 93.397C150.577 93.3586 150.884 93.4354 151.153 93.6658C151.384 93.8579 151.537 94.1267 151.576 94.4724L151.806 96.5848C151.845 96.892 151.768 97.1993 151.537 97.4681C151.345 97.6986 151.076 97.8522 150.731 97.8906L148.042 98.1979C147.927 99.6573 147.505 101.078 146.813 102.384L148.926 104.074C149.156 104.266 149.31 104.535 149.348 104.881C149.387 105.188 149.31 105.495 149.079 105.764L147.773 107.416C147.351 107.915 146.621 107.992 146.122 107.608L144.01 105.918C142.896 106.878 141.59 107.569 140.169 108.03L140.476 110.719C140.514 111.026 140.438 111.333 140.207 111.602C140.015 111.832 139.746 111.986 139.401 112.024L137.288 112.255C137.25 112.293 137.211 112.293 137.173 112.293ZM131.412 106.839L131.566 106.916C132.91 107.646 134.369 108.069 135.906 108.184H136.059L136.405 111.218C136.443 111.41 136.52 111.602 136.712 111.756C136.866 111.871 137.096 111.948 137.288 111.909L139.401 111.679C139.593 111.64 139.785 111.564 139.938 111.372C140.054 111.218 140.13 110.987 140.092 110.795L139.746 107.761L139.9 107.723C141.359 107.262 142.704 106.532 143.856 105.534L143.971 105.418L146.352 107.339C146.698 107.608 147.197 107.569 147.466 107.224L148.772 105.572C148.887 105.418 148.964 105.188 148.926 104.996C148.887 104.804 148.81 104.612 148.618 104.458L146.237 102.538L146.314 102.384C147.044 101.04 147.466 99.5805 147.581 98.0442V97.8906L150.616 97.545C150.808 97.5065 151 97.4297 151.153 97.2377C151.268 97.0841 151.345 96.8536 151.307 96.6616L151.076 94.5492C151.038 94.3572 150.961 94.1651 150.769 94.0115C150.616 93.8963 150.385 93.8195 150.193 93.8579L147.159 94.2035L147.121 94.0499C146.66 92.5904 145.93 91.2462 144.931 90.094L144.816 89.9787L146.736 87.5975C146.852 87.4439 146.928 87.2134 146.89 87.0214C146.852 86.8294 146.775 86.6373 146.583 86.4837L144.931 85.1779C144.586 84.909 144.086 84.9474 143.817 85.2931L141.897 87.6743L141.744 87.5975C140.399 86.8678 138.94 86.4453 137.404 86.3301H137.25L136.904 83.2959C136.866 82.8734 136.443 82.5662 136.021 82.6046L133.908 82.835C133.716 82.8734 133.524 82.9502 133.371 83.1423C133.256 83.2959 133.179 83.5264 133.217 83.7184L133.563 86.7525L133.409 86.791C131.95 87.2518 130.605 87.9816 129.453 88.9802L129.338 89.0954L126.957 87.175C126.803 87.0598 126.573 86.983 126.381 87.0214C126.189 87.0598 125.997 87.1366 125.843 87.3287L124.537 88.9802C124.422 89.1338 124.345 89.3642 124.383 89.5563C124.422 89.7483 124.499 89.9403 124.691 90.094L127.072 92.0143L126.995 92.168C126.265 93.5122 125.843 94.9717 125.728 96.508V96.6616L122.694 97.0073C122.502 97.0457 122.309 97.1225 122.156 97.3145C122.041 97.4681 121.964 97.6986 122.002 97.8906L122.233 100.003C122.271 100.195 122.348 100.387 122.54 100.541C122.694 100.656 122.924 100.733 123.116 100.694L126.15 100.349L126.189 100.502C126.65 101.962 127.379 103.306 128.378 104.458L128.493 104.573L126.573 106.955C126.457 107.108 126.381 107.339 126.419 107.531C126.457 107.723 126.534 107.915 126.726 108.069L128.378 109.374C128.531 109.49 128.762 109.566 128.954 109.528C129.146 109.49 129.338 109.413 129.492 109.221L131.412 106.839ZM136.712 103.191C135.406 103.191 134.1 102.768 133.025 101.885C131.796 100.886 131.028 99.5037 130.836 97.929C130.644 96.3543 131.105 94.818 132.103 93.589C133.102 92.36 134.485 91.5919 136.059 91.3998C137.634 91.2078 139.17 91.6687 140.399 92.6672C142.934 94.7028 143.357 98.4283 141.321 100.963C140.13 102.423 138.44 103.191 136.712 103.191ZM136.712 91.7455C136.52 91.7455 136.29 91.7455 136.098 91.7839C134.638 91.9375 133.332 92.6672 132.372 93.8195C130.452 96.2007 130.836 99.6958 133.217 101.578C135.598 103.498 139.093 103.114 140.975 100.733C142.896 98.3515 142.512 94.8565 140.13 92.9745C139.17 92.168 137.98 91.7455 136.712 91.7455Z" fill="white"/>
</g>
<g opacity="0.38">
<path d="M163.098 121.396H141.359C140.975 121.396 140.668 121.05 140.668 120.589V112.601C140.668 112.14 140.975 111.794 141.359 111.794H163.098C163.482 111.794 163.789 112.14 163.789 112.601V120.589C163.789 121.012 163.482 121.396 163.098 121.396ZM141.359 112.14C141.206 112.14 141.052 112.332 141.052 112.562V120.551C141.052 120.781 141.206 120.973 141.359 120.973H163.098C163.251 120.973 163.405 120.781 163.405 120.551V112.562C163.405 112.332 163.251 112.14 163.098 112.14H141.359Z" fill="white"/>
<path d="M159.872 114.867H145.162V115.251H159.872V114.867Z" fill="white"/>
<path d="M159.871 115.443H145.161C144.931 115.443 144.777 115.289 144.777 115.059C144.777 114.828 144.931 114.675 145.161 114.675H159.871C160.102 114.675 160.255 114.828 160.255 115.059C160.255 115.251 160.063 115.443 159.871 115.443Z" fill="white"/>
<path d="M151.729 116.595H145.162V116.979H151.729V116.595Z" fill="white"/>
<path d="M151.729 117.171H145.161C144.931 117.171 144.777 117.017 144.777 116.787C144.777 116.557 144.931 116.403 145.161 116.403H151.729C151.959 116.403 152.113 116.557 152.113 116.787C152.113 117.017 151.921 117.171 151.729 117.171Z" fill="white"/>
<path d="M159.872 116.595H153.304V116.979H159.872V116.595Z" fill="white"/>
<path d="M159.872 117.171H153.304C153.074 117.171 152.92 117.017 152.92 116.787C152.92 116.557 153.074 116.403 153.304 116.403H159.872C160.102 116.403 160.256 116.557 160.256 116.787C160.256 117.017 160.064 117.171 159.872 117.171Z" fill="white"/>
<path d="M159.872 118.438H145.162V118.823H159.872V118.438Z" fill="white"/>
<path d="M159.871 119.015H145.161C144.931 119.015 144.777 118.861 144.777 118.63C144.777 118.4 144.931 118.246 145.161 118.246H159.871C160.102 118.246 160.255 118.4 160.255 118.63C160.255 118.823 160.063 119.015 159.871 119.015Z" fill="white"/>
</g>
<g opacity="0.55">
<path d="M102.53 156.961C102.222 156.961 101.953 156.846 101.685 156.654C101.416 156.423 101.224 156.116 101.185 155.77L100.916 153.312C99.5722 153.158 98.3047 152.813 97.1141 152.198L95.5778 154.119C95.1169 154.695 94.272 154.772 93.6959 154.311L92.0828 153.043C91.8139 152.813 91.6219 152.506 91.5835 152.16C91.5451 151.814 91.6603 151.469 91.8523 151.161L93.3886 149.241C92.5437 148.204 91.8908 147.013 91.4683 145.746L89.0102 146.015C88.2805 146.092 87.6276 145.554 87.5507 144.824L87.3203 142.789C87.2435 142.059 87.7812 141.406 88.5109 141.329L90.969 141.06C91.1226 139.716 91.4683 138.449 92.0828 137.258L90.1624 135.722C89.5863 135.261 89.5095 134.416 89.9704 133.84L91.2378 132.227C91.4683 131.958 91.7755 131.766 92.1212 131.727C92.4669 131.689 92.8125 131.804 93.1198 131.996L95.0401 133.532C96.0771 132.687 97.2677 132.035 98.5352 131.612L98.2663 129.154C98.2279 128.808 98.3431 128.463 98.5352 128.155C98.7656 127.887 99.0729 127.695 99.4185 127.656L101.454 127.426C101.8 127.387 102.145 127.503 102.453 127.695C102.722 127.925 102.914 128.232 102.952 128.578L103.221 131.036C104.565 131.19 105.833 131.535 107.023 132.15L108.559 130.229C109.02 129.653 109.865 129.577 110.441 130.037L112.055 131.305C112.323 131.535 112.515 131.843 112.554 132.188C112.592 132.534 112.477 132.88 112.285 133.187L110.749 135.107C111.594 136.144 112.247 137.335 112.669 138.602L115.127 138.333C115.857 138.257 116.51 138.794 116.587 139.524L116.817 141.56C116.894 142.289 116.356 142.942 115.626 143.019L113.168 143.288C113.015 144.632 112.669 145.9 112.055 147.09L113.975 148.626C114.244 148.857 114.436 149.164 114.474 149.51C114.513 149.855 114.397 150.201 114.205 150.508L112.938 152.237C112.707 152.506 112.4 152.698 112.055 152.736C111.709 152.774 111.363 152.659 111.056 152.467L109.136 150.931C108.099 151.776 106.908 152.429 105.641 152.851L105.909 155.309C105.986 156.039 105.448 156.692 104.719 156.769L102.683 156.999C102.645 156.961 102.606 156.961 102.53 156.961ZM96.9221 151.238L97.1909 151.392C98.4584 152.083 99.841 152.467 101.301 152.582L101.608 152.621L101.953 155.693C101.953 155.847 102.03 155.962 102.145 156.077C102.261 156.154 102.414 156.231 102.568 156.193L104.604 155.962C104.757 155.962 104.872 155.885 104.988 155.77C105.064 155.655 105.141 155.501 105.103 155.348L104.757 152.275L105.064 152.198C106.447 151.776 107.714 151.084 108.828 150.124L109.059 149.932L111.478 151.891C111.594 151.968 111.747 152.045 111.901 152.006C112.054 152.006 112.17 151.929 112.285 151.814L113.552 150.201C113.629 150.086 113.706 149.932 113.668 149.779C113.668 149.625 113.591 149.51 113.476 149.395L111.056 147.436L111.21 147.167C111.901 145.9 112.285 144.517 112.4 143.057L112.439 142.75L115.511 142.404C115.818 142.366 116.049 142.097 116.01 141.79L115.78 139.754C115.742 139.447 115.473 139.217 115.165 139.255L112.093 139.601L112.016 139.293C111.594 137.911 110.902 136.643 109.942 135.53L109.75 135.299L111.709 132.88C111.786 132.764 111.862 132.611 111.824 132.457C111.824 132.303 111.747 132.188 111.632 132.073L110.019 130.806C109.788 130.613 109.404 130.652 109.212 130.882L107.254 133.302L106.985 133.148C105.717 132.457 104.335 132.073 102.875 131.958L102.568 131.881L102.222 128.808C102.222 128.655 102.145 128.54 102.03 128.424C101.915 128.347 101.761 128.271 101.608 128.309L99.5722 128.539C99.4186 128.539 99.3033 128.616 99.1881 128.732C99.1113 128.847 99.0345 129 99.0729 129.154L99.4185 132.227L99.1113 132.303C97.7286 132.726 96.4612 133.417 95.3474 134.377L95.117 134.569L92.6973 132.611C92.5821 132.534 92.4285 132.457 92.2748 132.495C92.1212 132.495 92.006 132.572 91.8908 132.687L90.6233 134.301C90.5465 134.416 90.4697 134.569 90.5081 134.723C90.5081 134.877 90.5849 134.992 90.7001 135.107L93.1198 137.066L92.9661 137.335C92.2748 138.602 91.8907 139.985 91.7755 141.444L91.7371 141.752L88.6645 142.097C88.3573 142.136 88.1269 142.404 88.1653 142.712L88.3957 144.747C88.4341 145.055 88.703 145.285 89.0102 145.247L92.0828 144.901L92.1596 145.208C92.5821 146.591 93.2734 147.858 94.2336 148.972L94.4256 149.203L92.4669 151.622C92.39 151.737 92.3132 151.891 92.3516 152.045C92.3516 152.198 92.4284 152.314 92.5437 152.429L94.1568 153.696C94.3872 153.888 94.7713 153.85 94.9633 153.619L96.9221 151.238ZM102.107 148.127C100.801 148.127 99.4954 147.705 98.42 146.821C97.1909 145.823 96.4228 144.44 96.2308 142.865C96.0387 141.291 96.4996 139.754 97.4982 138.525C98.4968 137.296 99.8794 136.528 101.454 136.336C103.029 136.144 104.565 136.605 105.794 137.604C107.023 138.602 107.791 139.985 107.983 141.56C108.175 143.134 107.714 144.67 106.716 145.9C105.564 147.397 103.835 148.127 102.107 148.127ZM102.107 137.104C101.915 137.104 101.723 137.104 101.531 137.143C100.148 137.296 98.9577 137.949 98.0743 139.025C97.2293 140.1 96.8069 141.444 96.9605 142.789C97.1141 144.171 97.767 145.362 98.8424 146.245C101.07 148.012 104.296 147.666 106.063 145.439C106.908 144.363 107.33 143.019 107.177 141.675C107.023 140.292 106.37 139.101 105.295 138.218C104.411 137.488 103.259 137.104 102.107 137.104Z" fill="#B8B8E7"/>
</g>
<g opacity="0.61">
<path opacity="0.74" d="M52.7542 64.515L53.4455 123.009C53.4455 123.739 52.8694 124.353 52.1397 124.353L16.9972 124.776C16.2674 124.776 15.6529 124.2 15.6529 123.47L15 64.9758C15 64.2461 15.5761 63.6316 16.3058 63.6316L51.4484 63.2091C52.1397 63.2091 52.7542 63.7852 52.7542 64.515Z" fill="#6D6CD4"/>
<path d="M52.8694 64.5149L52.9079 67.9715L15.1536 68.4324L15.1152 64.8989C15.1152 64.2076 15.6529 63.6315 16.3443 63.6315L51.5252 63.209C52.2549 63.1706 52.8694 63.7467 52.8694 64.5149Z" fill="#3E479B"/>
<path d="M17.7271 66.704C17.3046 66.704 16.959 66.3583 16.959 65.9359C16.959 65.5134 17.3046 65.1677 17.7271 65.1677C18.1496 65.1677 18.4953 65.5134 18.4953 65.9359C18.4953 66.3583 18.1496 66.704 17.7271 66.704ZM17.6887 65.475C17.4199 65.475 17.2278 65.7054 17.2278 65.9359C17.2278 66.2047 17.4583 66.3968 17.6887 66.3968C17.9576 66.3968 18.1496 66.1663 18.1496 65.9359C18.188 65.667 17.9576 65.4366 17.6887 65.475Z" fill="white"/>
<path d="M20.2999 66.6657C19.8774 66.6657 19.5317 66.32 19.5317 65.8975C19.5317 65.4751 19.8774 65.1294 20.2999 65.1294C20.7224 65.1294 21.068 65.4751 21.068 65.8975C21.068 66.32 20.7224 66.6657 20.2999 66.6657ZM20.2999 65.4367C20.031 65.4367 19.839 65.6671 19.839 65.8975C19.839 66.1664 20.0694 66.3584 20.2999 66.3584C20.5687 66.3584 20.7608 66.128 20.7608 65.8975C20.7608 65.6287 20.5687 65.4367 20.2999 65.4367Z" fill="white"/>
<path d="M22.835 66.6657C22.4126 66.6657 22.0669 66.32 22.0669 65.8975C22.0669 65.4751 22.4126 65.1294 22.835 65.1294C23.2575 65.1294 23.6032 65.4751 23.6032 65.8975C23.6032 66.32 23.2575 66.6657 22.835 66.6657ZM22.835 65.4367C22.5662 65.4367 22.3741 65.6671 22.3741 65.8975C22.3741 66.1664 22.6046 66.3584 22.835 66.3584C23.1039 66.3584 23.2959 66.128 23.2959 65.8975C23.2959 65.6287 23.0655 65.3982 22.835 65.4367Z" fill="white"/>
<path d="M35.8549 73.8093L18.4181 73.9246C18.2645 73.9246 18.1108 73.7709 18.1108 73.6173C18.1108 73.4637 18.2645 73.31 18.4181 73.31L35.8549 73.1948C36.0086 73.1948 36.1622 73.3485 36.1622 73.5021C36.1622 73.6941 36.0086 73.8093 35.8549 73.8093Z" fill="white"/>
<path d="M41.6548 73.7709L38.0446 73.8094C37.8909 73.8094 37.7373 73.6557 37.7373 73.5021C37.7373 73.3485 37.8909 73.1948 38.0446 73.1948L41.6548 73.1564C41.8085 73.1564 41.9621 73.3101 41.9621 73.4637C41.9621 73.6557 41.8469 73.7709 41.6548 73.7709Z" fill="#3E479B"/>
<path d="M35.9707 88.3272L18.5338 88.4424C18.3802 88.4424 18.2266 88.2888 18.2266 88.1352C18.2266 87.9816 18.3802 87.8279 18.5338 87.8279L35.9707 87.7127C36.1243 87.7127 36.2779 87.8663 36.2779 88.02C36.2779 88.1736 36.1243 88.3272 35.9707 88.3272Z" fill="white"/>
<path d="M41.7701 88.2889L38.1598 88.3273C38.0062 88.3273 37.8525 88.1737 37.8525 88.02C37.8525 87.8664 38.0062 87.7128 38.1598 87.7128L41.7701 87.6744C41.9237 87.6744 42.0773 87.828 42.0773 87.9816C42.0773 88.1353 41.9621 88.2889 41.7701 88.2889Z" fill="#599AF2"/>
<path d="M35.8935 80.7611L18.4567 80.8763C18.303 80.8763 18.1494 80.7227 18.1494 80.5691C18.1494 80.4155 18.303 80.2618 18.4567 80.2618L35.8935 80.1466C36.0471 80.1466 36.2008 80.3002 36.2008 80.4539C36.2008 80.6075 36.0855 80.7611 35.8935 80.7611Z" fill="#599AF2"/>
<path d="M41.7315 80.6842L38.1212 80.7226C37.9676 80.7226 37.814 80.569 37.814 80.4154C37.814 80.2617 37.9676 80.1081 38.1212 80.1081L41.7315 80.0697C41.8851 80.0697 42.0387 80.2233 42.0387 80.377C42.0387 80.569 41.8851 80.6842 41.7315 80.6842Z" fill="white"/>
<path d="M47.6846 80.6459L44.0743 80.6843C43.9207 80.6843 43.7671 80.5307 43.7671 80.377C43.7671 80.2234 43.9207 80.0698 44.0743 80.0698L47.6846 80.0314C47.8383 80.0314 47.9919 80.185 47.9919 80.3386C47.9919 80.5307 47.8383 80.6459 47.6846 80.6459Z" fill="#3E479B"/>
<path d="M30.0555 77.266L18.4181 77.3428C18.2645 77.3428 18.1108 77.1892 18.1108 77.0356C18.1108 76.8819 18.2645 76.7283 18.4181 76.7283L30.0555 76.6515C30.2091 76.6515 30.3627 76.8051 30.3627 76.9587C30.3627 77.1508 30.2091 77.266 30.0555 77.266Z" fill="#3E479B"/>
<path d="M37.3148 77.2277L32.2067 77.2661C32.053 77.2661 31.8994 77.1124 31.8994 76.9588C31.8994 76.8052 32.053 76.6516 32.2067 76.6516L37.3148 76.6132C37.4684 76.6132 37.6221 76.7668 37.6221 76.9204C37.6221 77.074 37.4684 77.2277 37.3148 77.2277Z" fill="#F7A9B4"/>
<path d="M37.3528 84.525L25.7155 84.6018C25.5618 84.6018 25.4082 84.4482 25.4082 84.2945C25.4082 84.1409 25.5618 83.9873 25.7155 83.9873L37.3528 83.9105C37.5064 83.9105 37.6601 84.0641 37.6601 84.2177C37.6601 84.3713 37.5064 84.525 37.3528 84.525Z" fill="#3E479B"/>
<path d="M23.5648 84.6017L18.4567 84.6401C18.303 84.6401 18.1494 84.4865 18.1494 84.3328C18.1494 84.1792 18.303 84.0256 18.4567 84.0256L23.5648 83.9872C23.7185 83.9872 23.8721 84.1408 23.8721 84.2944C23.8721 84.4865 23.7569 84.6017 23.5648 84.6017Z" fill="#F7A9B4"/>
<path d="M36.0087 93.2049L18.5719 93.3201C18.4183 93.3201 18.2646 93.1665 18.2646 93.0129C18.2646 92.8592 18.4183 92.7056 18.5719 92.7056L36.0087 92.5904C36.1624 92.5904 36.316 92.744 36.316 92.8976C36.316 93.0513 36.1624 93.2049 36.0087 93.2049Z" fill="#F7A9B4"/>
<path d="M41.8082 93.1666L38.1979 93.205C38.0443 93.205 37.8906 93.0514 37.8906 92.8977C37.8906 92.7441 38.0443 92.5905 38.1979 92.5905L41.8082 92.5521C41.9618 92.5521 42.1154 92.7057 42.1154 92.8593C42.1154 93.0129 42.0002 93.1666 41.8082 93.1666Z" fill="#3E479B"/>
<path d="M36.0859 107.684L18.6491 107.8C18.4954 107.8 18.3418 107.646 18.3418 107.492C18.3418 107.339 18.4954 107.185 18.6491 107.185L36.0859 107.07C36.2395 107.07 36.3932 107.224 36.3932 107.377C36.3932 107.569 36.2779 107.684 36.0859 107.684Z" fill="white"/>
<path d="M41.9234 107.646L38.3131 107.685C38.1595 107.685 38.0059 107.531 38.0059 107.377C38.0059 107.224 38.1595 107.07 38.3131 107.07L41.9234 107.032C42.077 107.032 42.2306 107.185 42.2306 107.339C42.2306 107.493 42.077 107.646 41.9234 107.646Z" fill="#599AF2"/>
<path d="M36.0473 100.118L18.6105 100.234C18.4569 100.234 18.3032 100.08 18.3032 99.9263C18.3032 99.7726 18.4569 99.619 18.6105 99.619L36.0473 99.5038C36.2009 99.5038 36.3546 99.6574 36.3546 99.811C36.3546 99.9647 36.2009 100.118 36.0473 100.118Z" fill="#599AF2"/>
<path d="M41.8467 100.08L38.2365 100.118C38.0828 100.118 37.9292 99.9646 37.9292 99.811C37.9292 99.6574 38.0828 99.5037 38.2365 99.5037L41.8467 99.4653C42.0004 99.4653 42.154 99.619 42.154 99.7726C42.154 99.9262 42.0388 100.08 41.8467 100.08Z" fill="white"/>
<path d="M47.8379 100.041L44.2277 100.08C44.074 100.08 43.9204 99.9262 43.9204 99.7726C43.9204 99.619 44.074 99.4654 44.2277 99.4654L47.8379 99.4269C47.9916 99.4269 48.1452 99.5806 48.1452 99.7342C48.1452 99.8878 47.9916 100.041 47.8379 100.041Z" fill="#3E479B"/>
<path d="M30.2093 96.6616L18.5719 96.7384C18.4183 96.7384 18.2646 96.5848 18.2646 96.4312C18.2646 96.2776 18.4183 96.1239 18.5719 96.1239L30.2093 96.0471C30.3629 96.0471 30.5165 96.2007 30.5165 96.3544C30.5165 96.508 30.3629 96.6616 30.2093 96.6616Z" fill="#3E479B"/>
<path d="M37.4296 96.5847L32.3214 96.6231C32.1678 96.6231 32.0142 96.4695 32.0142 96.3159C32.0142 96.1622 32.1678 96.0086 32.3214 96.0086L37.4296 95.9702C37.5832 95.9702 37.7368 96.1238 37.7368 96.2775C37.7368 96.4695 37.6216 96.5847 37.4296 96.5847Z" fill="#F7A9B4"/>
<path d="M37.5066 103.882L25.8693 103.959C25.7156 103.959 25.562 103.805 25.562 103.652C25.562 103.498 25.7156 103.344 25.8693 103.344L37.5066 103.268C37.6603 103.268 37.8139 103.421 37.8139 103.575C37.8139 103.728 37.6603 103.882 37.5066 103.882Z" fill="#3E479B"/>
<path d="M23.7186 103.997L18.6105 104.036C18.4569 104.036 18.3032 103.882 18.3032 103.729C18.3032 103.575 18.4569 103.421 18.6105 103.421L23.7186 103.383C23.8723 103.383 24.0259 103.537 24.0259 103.69C24.0259 103.844 23.9107 103.997 23.7186 103.997Z" fill="#F7A9B4"/>
<path d="M36.124 112.178L18.6871 112.293C18.5335 112.293 18.3799 112.14 18.3799 111.986C18.3799 111.832 18.5335 111.679 18.6871 111.679L36.124 111.564C36.2776 111.564 36.4312 111.717 36.4312 111.871C36.4312 112.024 36.316 112.178 36.124 112.178Z" fill="#F7A9B4"/>
<path d="M41.962 112.14L38.3517 112.178C38.1981 112.178 38.0444 112.024 38.0444 111.871C38.0444 111.717 38.1981 111.564 38.3517 111.564L41.962 111.525C42.1156 111.525 42.2692 111.679 42.2692 111.832C42.2692 111.986 42.1156 112.14 41.962 112.14Z" fill="#3E479B"/>
<path d="M42.0386 121.281L38.4284 121.319C38.2747 121.319 38.1211 121.165 38.1211 121.012C38.1211 120.858 38.2747 120.704 38.4284 120.704L42.0386 120.666C42.1922 120.666 42.3459 120.82 42.3459 120.973C42.3459 121.127 42.1922 121.281 42.0386 121.281Z" fill="white"/>
<path d="M47.9917 121.242L44.3815 121.281C44.2278 121.281 44.0742 121.127 44.0742 120.973C44.0742 120.82 44.2278 120.666 44.3815 120.666L47.9917 120.628C48.1454 120.628 48.299 120.781 48.299 120.935C48.299 121.089 48.1454 121.242 47.9917 121.242Z" fill="#3E479B"/>
<path d="M30.3245 115.635L18.6871 115.712C18.5335 115.712 18.3799 115.558 18.3799 115.404C18.3799 115.251 18.5335 115.097 18.6871 115.097L30.3245 115.02C30.4781 115.02 30.6318 115.174 30.6318 115.328C30.6702 115.481 30.5165 115.635 30.3245 115.635Z" fill="#3E479B"/>
<path d="M37.5834 115.558L32.4752 115.596C32.3216 115.596 32.168 115.443 32.168 115.289C32.168 115.135 32.3216 114.982 32.4752 114.982L37.5834 114.943C37.737 114.943 37.8906 115.097 37.8906 115.251C37.8906 115.443 37.7754 115.558 37.5834 115.558Z" fill="#F7A9B4"/>
</g>
<path d="M47.7998 34.7109V42.4307V44.2359V65.7055V107.723V129.192V130.998V136.221C47.7998 138.564 49.2977 140.599 51.3717 141.368C51.9862 141.598 52.6391 141.713 53.292 141.713H57.2096H100.379C101.531 141.713 102.607 141.368 103.49 140.753C104.95 139.754 105.871 138.103 105.871 136.221L105.833 34.7493C105.833 33.0594 105.065 31.5615 103.874 30.5245C102.914 29.718 101.685 29.2187 100.341 29.2187L53.2536 29.2571C50.2579 29.1803 47.7998 31.6767 47.7998 34.7109Z" fill="#4C65BA"/>
<path d="M48.1836 36.6313V44.1207V45.849V66.6272V107.262V128.04V129.769V134.838C48.1836 137.104 49.6431 139.063 51.7171 139.831C52.2932 140.062 52.9461 140.177 53.6374 140.177H57.5165H100.11C101.262 140.177 102.299 139.831 103.183 139.255C104.604 138.295 105.525 136.682 105.525 134.877L105.487 36.7081C105.487 35.0566 104.719 33.5971 103.567 32.6369C102.607 31.8688 101.416 31.4079 100.072 31.4079L53.6374 31.4463C50.6032 31.2927 48.1836 33.6739 48.1836 36.6313Z" fill="#0A0A5E"/>
<path d="M102.876 44.6199L102.914 126.158C102.914 126.888 102.338 127.464 101.608 127.464L52.2168 127.502C51.4871 127.502 50.911 126.926 50.911 126.197L50.8726 44.6583C50.8726 43.9285 51.4487 43.3524 52.1784 43.3524L101.57 43.314C102.261 43.314 102.876 43.9285 102.876 44.6199Z" fill="white"/>
<path d="M102.876 44.6199V49.9201L50.834 49.9585V44.6199C50.834 43.9285 51.4101 43.3524 52.1014 43.3524L101.531 43.314C102.261 43.2756 102.876 43.8901 102.876 44.6199Z" fill="#599AF2"/>
<path d="M96.4235 45.849C96.3083 45.849 96.2314 45.7722 96.2314 45.657C96.2314 45.5418 96.3083 45.465 96.4235 45.465H100.341C100.456 45.465 100.533 45.5418 100.533 45.657C100.533 45.7722 100.456 45.849 100.341 45.849H96.4235Z" fill="white"/>
<path d="M96.4235 46.8475C96.3083 46.8475 96.2314 46.7707 96.2314 46.6555C96.2314 46.5403 96.3083 46.4634 96.4235 46.4634H100.341C100.456 46.4634 100.533 46.5403 100.533 46.6555C100.533 46.7707 100.456 46.8475 100.341 46.8475H96.4235Z" fill="white"/>
<path d="M96.4235 47.8461C96.3083 47.8461 96.2314 47.7693 96.2314 47.6541C96.2314 47.5389 96.3083 47.462 96.4235 47.462H100.341C100.456 47.462 100.533 47.5389 100.533 47.6541C100.533 47.7693 100.456 47.8461 100.341 47.8461H96.4235Z" fill="white"/>
<path d="M55.4814 48.4606C55.443 48.4606 55.3662 48.4606 55.3278 48.4222L53.9067 47.0011C53.7915 46.8859 53.7915 46.6939 53.9067 46.5402L55.251 45.1576C55.3278 45.0808 55.443 45.0808 55.5198 45.1576C55.5966 45.2344 55.5966 45.3496 55.5198 45.4264L54.214 46.7323L55.5966 48.1149C55.6735 48.1917 55.6735 48.307 55.5966 48.3838C55.5966 48.4606 55.5198 48.4606 55.4814 48.4606Z" fill="white"/>
<path d="M76.9123 38.4364C76.1441 38.4364 75.4912 37.8219 75.4912 37.0153C75.4912 36.2472 76.1057 35.5942 76.9123 35.5942C77.6804 35.5942 78.3333 36.2088 78.3333 37.0153C78.2949 37.8219 77.6804 38.4364 76.9123 38.4364ZM76.9123 36.2088C76.4514 36.2088 76.1057 36.5544 76.1057 37.0153C76.1057 37.4762 76.4514 37.8219 76.9123 37.8219C77.1427 37.8219 77.3348 37.745 77.4884 37.5914C77.642 37.4378 77.7188 37.2457 77.7188 37.0153C77.7188 36.7849 77.642 36.5928 77.4884 36.4392C77.2963 36.2856 77.1043 36.2088 76.9123 36.2088Z" fill="white"/>
<path d="M75.5683 137.642C75.069 137.642 74.6465 137.22 74.6465 136.72V134.032C74.6465 133.532 75.069 133.11 75.5683 133.11H78.2568C78.756 133.11 79.1785 133.532 79.1785 134.032V136.72C79.1785 137.22 78.756 137.642 78.2568 137.642H75.5683ZM78.2183 133.571H75.5298C75.261 133.571 74.9921 133.801 74.9921 134.109V136.797C74.9921 137.066 75.2226 137.335 75.5298 137.335H78.2183C78.4872 137.335 78.756 137.104 78.756 136.797V134.109C78.756 133.801 78.5256 133.571 78.2183 133.571Z" fill="white"/>
<path d="M59.4757 133.993C59.3605 133.993 59.2837 133.917 59.2837 133.801C59.2837 133.686 59.3605 133.609 59.4757 133.609H62.049C62.1642 133.609 62.241 133.686 62.241 133.801C62.241 133.917 62.1642 133.993 62.049 133.993H59.4757Z" fill="white"/>
<path d="M59.4757 135.376C59.3605 135.376 59.2837 135.299 59.2837 135.184C59.2837 135.069 59.3605 134.992 59.4757 134.992H62.049C62.1642 134.992 62.241 135.069 62.241 135.184C62.241 135.299 62.1642 135.376 62.049 135.376H59.4757Z" fill="white"/>
<path d="M59.4757 136.797C59.3605 136.797 59.2837 136.72 59.2837 136.605C59.2837 136.49 59.3605 136.413 59.4757 136.413H62.049C62.1642 136.413 62.241 136.49 62.241 136.605C62.241 136.72 62.1642 136.797 62.049 136.797H59.4757Z" fill="white"/>
<path d="M94.9641 137.642C94.9257 137.642 94.8489 137.642 94.8105 137.604L92.7749 135.568L94.7337 133.609C94.8105 133.532 94.9257 133.532 95.0025 133.609C95.0793 133.686 95.0793 133.801 95.0025 133.878L93.3126 135.568L95.0793 137.335C95.1561 137.412 95.1561 137.527 95.0793 137.604C95.0409 137.642 95.0025 137.642 94.9641 137.642Z" fill="white"/>
<path opacity="0.36" d="M102.876 49.9969H50.9111V67.0113H102.876V49.9969Z" fill="#599AF2"/>
<path opacity="0.43" d="M74.3779 57.6399H55.712C55.4048 57.6399 55.1743 57.4094 55.1743 57.1022V53.9528C55.1743 53.6455 55.4048 53.4151 55.712 53.4151H74.3779C74.6851 53.4151 74.9156 53.6455 74.9156 53.9528V57.1022C74.9156 57.4094 74.6467 57.6399 74.3779 57.6399Z" fill="white"/>
<path opacity="0.43" d="M84.6326 62.0951H55.712C55.4048 62.0951 55.1743 61.8647 55.1743 61.5574V60.5204C55.1743 60.2132 55.4048 59.9827 55.712 59.9827H84.6326C84.9398 59.9827 85.1703 60.2132 85.1703 60.5204V61.5574C85.1703 61.8647 84.9014 62.0951 84.6326 62.0951Z" fill="white"/>
<path opacity="0.43" d="M96.4623 61.7495C95.3869 61.7495 94.3883 61.327 93.6586 60.5973C92.8904 59.8292 92.5063 58.8306 92.5063 57.7936C92.5063 56.7182 92.9288 55.7196 93.6586 54.9899C94.4267 54.2217 95.4253 53.8376 96.4623 53.8376C97.5377 53.8376 98.5363 54.2601 99.266 54.9899C100.034 55.758 100.418 56.7566 100.418 57.7936C100.418 58.869 99.9957 59.8676 99.266 60.5973C98.5363 61.327 97.5377 61.7495 96.4623 61.7495ZM96.4623 54.529C95.6173 54.529 94.7724 54.8746 94.1963 55.4892C93.5818 56.1037 93.2361 56.9102 93.2361 57.7552C93.2361 58.6001 93.5818 59.4067 94.1963 60.0212C94.8108 60.6357 95.6173 60.9814 96.4623 60.9814C97.3072 60.9814 98.1138 60.6357 98.7283 60.0212C99.3428 59.4067 99.6885 58.6001 99.6885 57.7552C99.6885 56.9102 99.3428 56.1037 98.7283 55.4892C98.1522 54.8746 97.3457 54.529 96.4623 54.529Z" fill="white"/>
<path d="M65.8509 85.2547H57.2477C56.2875 85.2547 55.481 84.4866 55.481 83.488V74.8848C55.481 73.9246 56.2491 73.118 57.2477 73.118H65.8509C66.8111 73.118 67.6176 73.8862 67.6176 74.8848V83.488C67.6176 84.4866 66.8111 85.2547 65.8509 85.2547Z" fill="#4C65BA"/>
<g opacity="0.36">
<path d="M64.1614 79.2632C64.1614 80.7226 63.0091 81.8749 61.5497 81.8749C60.0902 81.8749 58.938 80.7226 58.938 79.2632C58.938 77.8037 60.0902 76.6515 61.5497 76.6515C63.0091 76.6515 64.1614 77.8421 64.1614 79.2632Z" fill="#599AF2"/>
</g>
<g opacity="0.26">
<path d="M76.9505 77.2275H70.1525C69.922 77.2275 69.73 77.0355 69.73 76.805V75.4992C69.73 75.2688 69.922 75.0767 70.1525 75.0767H76.9505C77.181 75.0767 77.373 75.2688 77.373 75.4992V76.805C77.373 77.0355 77.181 77.2275 76.9505 77.2275Z" fill="#0A0A5E"/>
<path d="M69.7303 80.569C69.4998 80.569 69.3462 80.4154 69.3462 80.1849C69.3462 79.9545 69.4998 79.8008 69.7303 79.8008H82.8271C83.0575 79.8008 83.2112 79.9545 83.2112 80.1849C83.2112 80.4154 83.0575 80.569 82.8271 80.569H69.7303Z" fill="#0A0A5E"/>
<path d="M69.7303 83.2959C69.4998 83.2959 69.3462 83.1423 69.3462 82.9118C69.3462 82.6814 69.4998 82.5278 69.7303 82.5278H91.0846C91.3151 82.5278 91.4687 82.6814 91.4687 82.9118C91.4687 83.1423 91.3151 83.2959 91.0846 83.2959H69.7303Z" fill="#0A0A5E"/>
<path d="M85.7459 80.569C85.5154 80.569 85.3618 80.4154 85.3618 80.1849C85.3618 79.9545 85.5154 79.8008 85.7459 79.8008H98.8427C99.0732 79.8008 99.2268 79.9545 99.2268 80.1849C99.2268 80.4154 99.0732 80.569 98.8427 80.569H85.7459Z" fill="#0A0A5E"/>
</g>
<path d="M65.8895 120.436H57.2863C56.3261 120.436 55.5195 119.667 55.5195 118.669V110.066C55.5195 109.105 56.2877 108.299 57.2863 108.299H65.8895C66.8496 108.299 67.6562 109.067 67.6562 110.066V118.669C67.6178 119.667 66.8496 120.436 65.8895 120.436Z" fill="#599AF2"/>
<g opacity="0.57">
<path d="M64.1994 114.444C64.1994 115.904 63.0472 117.056 61.5878 117.056C60.1283 117.056 58.9761 115.904 58.9761 114.444C58.9761 112.985 60.1283 111.832 61.5878 111.832C63.0088 111.871 64.1994 113.023 64.1994 114.444Z" fill="#0A0A5E"/>
</g>
<g opacity="0.26">
<path d="M76.9891 112.408H70.191C69.9606 112.408 69.7686 112.216 69.7686 111.986V110.68C69.7686 110.45 69.9606 110.258 70.191 110.258H76.9891C77.2195 110.258 77.4116 110.45 77.4116 110.68V111.986C77.4116 112.216 77.2195 112.408 76.9891 112.408Z" fill="#0A0A5E"/>
<path d="M69.7303 115.75C69.4998 115.75 69.3462 115.596 69.3462 115.366C69.3462 115.135 69.4998 114.982 69.7303 114.982H82.8271C83.0575 114.982 83.2112 115.135 83.2112 115.366C83.2112 115.596 83.0575 115.75 82.8271 115.75H69.7303Z" fill="#0A0A5E"/>
<path d="M69.7303 118.477C69.4998 118.477 69.3462 118.323 69.3462 118.093C69.3462 117.862 69.4998 117.709 69.7303 117.709H91.0846C91.3151 117.709 91.4687 117.862 91.4687 118.093C91.4687 118.323 91.3151 118.477 91.0846 118.477H69.7303Z" fill="#0A0A5E"/>
<path d="M85.7459 115.75C85.5154 115.75 85.3618 115.596 85.3618 115.366C85.3618 115.135 85.5154 114.982 85.7459 114.982H98.8427C99.0732 114.982 99.2268 115.135 99.2268 115.366C99.2268 115.596 99.0732 115.75 98.8427 115.75H85.7459Z" fill="#0A0A5E"/>
</g>
<path d="M65.8895 102.807H57.2863C56.3261 102.807 55.5195 102.039 55.5195 101.04V92.4368C55.5195 91.4767 56.2877 90.6701 57.2863 90.6701H65.8895C66.8496 90.6701 67.6562 91.4382 67.6562 92.4368V101.04C67.6178 102.039 66.8496 102.807 65.8895 102.807Z" fill="#F7A9B4"/>
<path opacity="0.43" d="M61.5878 99.427C63.0302 99.427 64.1994 98.2577 64.1994 96.8153C64.1994 95.3729 63.0302 94.2036 61.5878 94.2036C60.1454 94.2036 58.9761 95.3729 58.9761 96.8153C58.9761 98.2577 60.1454 99.427 61.5878 99.427Z" fill="white"/>
<g opacity="0.26">
<path d="M76.9505 94.7798H70.1525C69.922 94.7798 69.73 94.5877 69.73 94.3573V93.0514C69.73 92.821 69.922 92.629 70.1525 92.629H76.9505C77.181 92.629 77.373 92.821 77.373 93.0514V94.3573C77.4114 94.5877 77.2194 94.7798 76.9505 94.7798Z" fill="#0A0A5E"/>
<path d="M69.7303 98.1212C69.4998 98.1212 69.3462 97.9675 69.3462 97.7371C69.3462 97.5067 69.4998 97.353 69.7303 97.353H75.7986C76.029 97.353 76.1827 97.5067 76.1827 97.7371C76.1827 97.9675 76.029 98.1212 75.7986 98.1212H69.7303Z" fill="#0A0A5E"/>
<path d="M69.7303 100.848C69.4998 100.848 69.3462 100.694 69.3462 100.464C69.3462 100.233 69.4998 100.08 69.7303 100.08H82.1742C82.4046 100.08 82.5582 100.233 82.5582 100.464C82.5582 100.694 82.4046 100.848 82.1742 100.848H69.7303Z" fill="#0A0A5E"/>
<path d="M78.3333 98.1212C78.1028 98.1212 77.9492 97.9675 77.9492 97.7371C77.9492 97.5067 78.1028 97.353 78.3333 97.353H90.4315C90.662 97.353 90.8156 97.5067 90.8156 97.7371C90.8156 97.9675 90.662 98.1212 90.4315 98.1212H78.3333Z" fill="#0A0A5E"/>
<path d="M92.6595 98.0827C92.429 98.0827 92.2754 97.929 92.2754 97.6986C92.2754 97.4681 92.429 97.3145 92.6595 97.3145H98.7278C98.9582 97.3145 99.1119 97.4681 99.1119 97.6986C99.1119 97.929 98.9582 98.0827 98.7278 98.0827H92.6595Z" fill="#0A0A5E"/>
</g>
<path opacity="0.39" d="M142.32 102.999L142.819 144.363C142.819 145.093 142.243 145.708 141.513 145.708L116.932 146.015C116.203 146.015 115.588 145.439 115.588 144.709L115.089 103.345C115.089 102.615 115.665 102 116.395 102L140.975 101.693C141.705 101.693 142.32 102.269 142.32 102.999Z" fill="white"/>
<path opacity="0.39" d="M142.32 102.999L142.819 144.363C142.819 145.093 142.243 145.708 141.513 145.708L116.932 146.015C116.203 146.015 115.588 145.439 115.588 144.709L115.089 103.345C115.089 102.615 115.665 102 116.395 102L140.975 101.693C141.705 101.693 142.32 102.269 142.32 102.999Z" fill="#F7A9B4"/>
<path d="M142.435 102.999L142.473 105.111L115.281 105.457L115.243 103.268C115.243 102.576 115.78 102 116.472 102L141.091 101.693C141.82 101.655 142.397 102.269 142.435 102.999Z" fill="#F7A9B4"/>
<path d="M117.086 104.189C116.779 104.189 116.51 103.959 116.51 103.652C116.51 103.344 116.741 103.076 117.048 103.076C117.355 103.076 117.624 103.306 117.624 103.613C117.624 103.959 117.394 104.189 117.086 104.189ZM117.086 103.306C116.894 103.306 116.741 103.46 116.741 103.652C116.741 103.844 116.894 103.997 117.086 103.997C117.278 103.997 117.432 103.844 117.432 103.652C117.432 103.46 117.278 103.306 117.086 103.306Z" fill="white"/>
<path d="M118.968 104.189C118.661 104.189 118.392 103.959 118.392 103.652C118.392 103.344 118.623 103.076 118.93 103.076C119.237 103.076 119.506 103.306 119.506 103.613C119.506 103.921 119.275 104.189 118.968 104.189ZM118.93 103.306C118.738 103.306 118.584 103.46 118.584 103.652C118.584 103.844 118.738 103.997 118.93 103.997C119.122 103.997 119.275 103.844 119.275 103.652C119.275 103.46 119.122 103.306 118.93 103.306Z" fill="white"/>
<path d="M120.773 104.189C120.466 104.189 120.197 103.959 120.197 103.652C120.197 103.344 120.427 103.076 120.734 103.076C121.042 103.076 121.311 103.306 121.311 103.613C121.349 103.921 121.08 104.189 120.773 104.189ZM120.773 103.268C120.581 103.268 120.427 103.421 120.427 103.613C120.427 103.805 120.581 103.959 120.773 103.959C120.965 103.959 121.119 103.805 121.119 103.613C121.119 103.421 120.965 103.268 120.773 103.268Z" fill="white"/>
<path d="M130.145 109.336L117.585 109.413C117.47 109.413 117.355 109.298 117.355 109.182C117.355 109.067 117.47 108.952 117.585 108.952L130.145 108.875C130.26 108.875 130.375 108.99 130.375 109.106C130.375 109.221 130.26 109.336 130.145 109.336Z" fill="white"/>
<path d="M134.331 109.298L131.72 109.336C131.604 109.336 131.489 109.221 131.489 109.106C131.489 108.99 131.604 108.875 131.72 108.875L134.331 108.837C134.447 108.837 134.562 108.952 134.562 109.067C134.562 109.182 134.447 109.298 134.331 109.298Z" fill="white"/>
<path d="M130.222 119.783L117.663 119.86C117.547 119.86 117.432 119.744 117.432 119.629C117.432 119.514 117.547 119.399 117.663 119.399L130.222 119.322C130.337 119.322 130.452 119.437 130.452 119.552C130.452 119.668 130.337 119.783 130.222 119.783Z" fill="white"/>
<path d="M134.408 119.744L131.796 119.783C131.681 119.783 131.566 119.668 131.566 119.552C131.566 119.437 131.681 119.322 131.796 119.322L134.408 119.283C134.523 119.283 134.638 119.399 134.638 119.514C134.638 119.629 134.523 119.744 134.408 119.744Z" fill="white"/>
<path d="M130.183 114.329L117.624 114.406C117.509 114.406 117.394 114.29 117.394 114.175C117.394 114.06 117.509 113.945 117.624 113.945L130.183 113.868C130.298 113.868 130.414 113.983 130.414 114.098C130.414 114.214 130.298 114.329 130.183 114.329Z" fill="white"/>
<path d="M134.369 114.291L131.758 114.329C131.643 114.329 131.527 114.214 131.527 114.099C131.527 113.983 131.643 113.868 131.758 113.868L134.369 113.83C134.485 113.83 134.6 113.945 134.6 114.06C134.6 114.175 134.485 114.291 134.369 114.291Z" fill="white"/>
<path d="M138.671 114.252L136.059 114.291C135.944 114.291 135.829 114.175 135.829 114.06C135.829 113.945 135.944 113.83 136.059 113.83L138.671 113.791C138.786 113.791 138.901 113.906 138.901 114.022C138.901 114.137 138.786 114.252 138.671 114.252Z" fill="white"/>
<path d="M125.958 111.833L117.585 111.909C117.47 111.909 117.355 111.794 117.355 111.679C117.355 111.564 117.47 111.448 117.585 111.448L125.958 111.372C126.073 111.372 126.189 111.487 126.189 111.602C126.189 111.717 126.112 111.833 125.958 111.833Z" fill="white"/>
<path d="M131.182 111.794L127.495 111.832C127.379 111.832 127.264 111.717 127.264 111.602C127.264 111.487 127.379 111.372 127.495 111.372L131.182 111.333C131.297 111.333 131.412 111.448 131.412 111.564C131.412 111.679 131.297 111.794 131.182 111.794Z" fill="white"/>
<path d="M131.22 117.017L122.847 117.094C122.732 117.094 122.617 116.979 122.617 116.864C122.617 116.748 122.732 116.633 122.847 116.633L131.22 116.556C131.335 116.556 131.45 116.672 131.45 116.787C131.45 116.941 131.335 117.017 131.22 117.017Z" fill="white"/>
<path d="M121.311 117.094L117.624 117.133C117.509 117.133 117.394 117.017 117.394 116.902C117.394 116.787 117.509 116.672 117.624 116.672L121.311 116.633C121.426 116.633 121.542 116.749 121.542 116.864C121.542 117.017 121.426 117.094 121.311 117.094Z" fill="white"/>
<path d="M130.26 123.278L117.701 123.355C117.585 123.355 117.47 123.239 117.47 123.124C117.47 123.009 117.585 122.894 117.701 122.894L130.26 122.817C130.375 122.817 130.49 122.932 130.49 123.047C130.452 123.201 130.375 123.278 130.26 123.278Z" fill="white"/>
<path d="M134.446 123.239L131.834 123.278C131.719 123.278 131.604 123.163 131.604 123.047C131.604 122.932 131.719 122.817 131.834 122.817L134.446 122.779C134.561 122.779 134.677 122.894 134.677 123.009C134.677 123.163 134.561 123.239 134.446 123.239Z" fill="white"/>
<path d="M130.336 133.724L117.777 133.801C117.662 133.801 117.547 133.686 117.547 133.571C117.547 133.456 117.662 133.34 117.777 133.34L130.336 133.264C130.452 133.264 130.567 133.379 130.567 133.494C130.567 133.609 130.452 133.724 130.336 133.724Z" fill="white"/>
<path d="M134.523 133.686L131.912 133.725C131.796 133.725 131.681 133.609 131.681 133.494C131.681 133.379 131.796 133.264 131.912 133.264L134.523 133.225C134.639 133.225 134.754 133.34 134.754 133.456C134.754 133.609 134.639 133.686 134.523 133.686Z" fill="white"/>
<path d="M130.298 128.271L117.739 128.348C117.624 128.348 117.509 128.232 117.509 128.117C117.509 128.002 117.624 127.887 117.739 127.887L130.298 127.81C130.414 127.81 130.529 127.925 130.529 128.04C130.529 128.155 130.414 128.271 130.298 128.271Z" fill="white"/>
<path d="M134.485 128.232L131.873 128.271C131.758 128.271 131.643 128.155 131.643 128.04C131.643 127.925 131.758 127.81 131.873 127.81L134.485 127.771C134.6 127.771 134.715 127.887 134.715 128.002C134.715 128.117 134.6 128.232 134.485 128.232Z" fill="white"/>
<path d="M138.786 128.194L136.175 128.232C136.06 128.232 135.944 128.117 135.944 128.002C135.944 127.887 136.06 127.771 136.175 127.771L138.786 127.733C138.902 127.733 139.017 127.848 139.017 127.963C138.978 128.117 138.902 128.194 138.786 128.194Z" fill="white"/>
<path d="M126.073 125.774L117.701 125.851C117.585 125.851 117.47 125.736 117.47 125.621C117.47 125.505 117.585 125.39 117.701 125.39L126.073 125.313C126.189 125.313 126.304 125.429 126.304 125.544C126.304 125.659 126.189 125.774 126.073 125.774Z" fill="white"/>
<path d="M131.297 125.736L127.61 125.774C127.495 125.774 127.379 125.659 127.379 125.544C127.379 125.429 127.495 125.313 127.61 125.313L131.297 125.275C131.412 125.275 131.527 125.39 131.527 125.505C131.527 125.621 131.412 125.736 131.297 125.736Z" fill="white"/>
<path d="M131.335 130.998L122.962 131.074C122.847 131.074 122.732 130.959 122.732 130.844C122.732 130.729 122.847 130.614 122.962 130.614L131.335 130.537C131.45 130.537 131.566 130.652 131.566 130.767C131.566 130.882 131.45 130.998 131.335 130.998Z" fill="white"/>
<path d="M121.426 131.036L117.739 131.074C117.624 131.074 117.509 130.959 117.509 130.844C117.509 130.729 117.624 130.614 117.739 130.614L121.426 130.575C121.542 130.575 121.657 130.69 121.657 130.806C121.618 130.959 121.542 131.036 121.426 131.036Z" fill="white"/>
<path d="M130.336 136.951L117.777 137.028C117.662 137.028 117.547 136.912 117.547 136.797C117.547 136.682 117.662 136.567 117.777 136.567L130.336 136.49C130.452 136.49 130.567 136.605 130.567 136.72C130.567 136.836 130.49 136.951 130.336 136.951Z" fill="white"/>
<path d="M134.523 136.912L131.912 136.951C131.796 136.951 131.681 136.836 131.681 136.72C131.681 136.605 131.796 136.49 131.912 136.49L134.523 136.451C134.639 136.451 134.754 136.567 134.754 136.682C134.754 136.836 134.677 136.912 134.523 136.912Z" fill="white"/>
<path d="M134.6 143.518L131.988 143.557C131.873 143.557 131.758 143.441 131.758 143.326C131.758 143.211 131.873 143.096 131.988 143.096L134.6 143.057C134.715 143.057 134.83 143.173 134.83 143.288C134.83 143.403 134.715 143.518 134.6 143.518Z" fill="white"/>
<path d="M138.902 143.48L136.29 143.518C136.175 143.518 136.06 143.403 136.06 143.288C136.06 143.173 136.175 143.058 136.29 143.058L138.902 143.019C139.017 143.019 139.132 143.134 139.132 143.25C139.094 143.365 139.017 143.48 138.902 143.48Z" fill="white"/>
<path d="M126.189 139.447L117.816 139.524C117.701 139.524 117.585 139.409 117.585 139.294C117.585 139.178 117.701 139.063 117.816 139.063L126.189 138.986C126.304 138.986 126.419 139.102 126.419 139.217C126.419 139.332 126.304 139.447 126.189 139.447Z" fill="white"/>
<path d="M131.412 139.409L127.725 139.447C127.609 139.447 127.494 139.332 127.494 139.217C127.494 139.102 127.609 138.986 127.725 138.986L131.412 138.948C131.527 138.948 131.642 139.063 131.642 139.178C131.604 139.294 131.527 139.409 131.412 139.409Z" fill="white"/>
<path opacity="0.22" d="M149.963 39.8961L150.463 89.3644C150.463 90.0942 149.887 90.6703 149.157 90.7087L119.583 91.0159C118.854 91.0159 118.277 90.4398 118.239 89.7101L117.74 40.2417C117.74 39.512 118.316 38.9359 119.046 38.8975L148.619 38.5902C149.387 38.5902 149.963 39.1663 149.963 39.8961Z" fill="#3E479B"/>
<path d="M148.235 37.63L148.734 87.0983C148.734 87.8281 148.158 88.4042 147.428 88.4426L117.855 88.7499C117.125 88.7499 116.549 88.1737 116.511 87.444L116.011 37.9372C116.011 37.2075 116.587 36.6314 117.317 36.593L146.891 36.2857C147.62 36.2857 148.196 36.9002 148.235 37.63Z" fill="white"/>
<path d="M148.312 37.5916L148.35 40.3569L116.127 40.7026L116.088 37.8605C116.088 37.1691 116.626 36.593 117.356 36.593L146.968 36.2858C147.736 36.2858 148.312 36.8619 148.312 37.5916Z" fill="#599AF2"/>
<path d="M144.356 37.9757C144.24 37.9757 144.164 37.8989 144.164 37.7837C144.164 37.6684 144.24 37.5916 144.356 37.5916L146.775 37.5532C146.852 37.5532 146.967 37.63 146.967 37.7453C146.967 37.8605 146.89 37.9373 146.775 37.9373L144.356 37.9757Z" fill="white"/>
<path d="M144.356 38.5902C144.24 38.5902 144.164 38.5134 144.164 38.3982C144.164 38.2829 144.24 38.2061 144.356 38.2061L146.775 38.1677C146.852 38.1677 146.967 38.2445 146.967 38.3598C146.967 38.475 146.89 38.5518 146.775 38.5518L144.356 38.5902Z" fill="white"/>
<path d="M144.356 39.2047C144.24 39.2047 144.164 39.1279 144.164 39.0127C144.164 38.8974 144.24 38.8206 144.356 38.8206L146.775 38.7822C146.89 38.7822 146.967 38.859 146.967 38.9743C146.967 39.0895 146.89 39.1663 146.775 39.1663L144.356 39.2047Z" fill="white"/>
<path d="M119.007 39.8576C118.969 39.8576 118.892 39.8576 118.892 39.8192L118.009 38.9359C117.894 38.8206 117.894 38.667 118.009 38.5518L118.854 37.7068C118.931 37.63 119.046 37.63 119.123 37.7068C119.199 37.7837 119.199 37.8989 119.123 37.9757L118.354 38.7438L119.161 39.512C119.238 39.5888 119.238 39.704 119.161 39.7808C119.123 39.8192 119.046 39.8576 119.007 39.8576Z" fill="white"/>
<path opacity="0.36" d="M147.352 88.5194L117.663 88.6731C116.933 88.6731 116.357 88.097 116.357 87.3672L116.28 77.0741L148.542 76.8821L148.619 87.1752C148.657 87.9433 148.081 88.5194 147.352 88.5194Z" fill="#599AF2"/>
<path d="M138.748 47.6926L125.767 47.7694C125.536 47.7694 125.344 47.5774 125.344 47.3469V45.9259C125.344 45.6954 125.536 45.5034 125.767 45.5034L138.748 45.4266C138.979 45.4266 139.171 45.6186 139.171 45.8491V47.2701C139.209 47.5006 139.017 47.6926 138.748 47.6926Z" fill="#4C65BA"/>
<path opacity="0.32" d="M142.897 56.9872L121.773 57.1024C120.774 57.1024 119.968 56.2959 119.929 55.2973V54.8364C119.929 53.8378 120.736 53.0313 121.734 52.9928L142.858 52.8776C143.857 52.8776 144.663 53.6842 144.702 54.6828V55.1436C144.702 56.1806 143.895 56.9872 142.897 56.9872Z" fill="#599AF2"/>
<path opacity="0.43" d="M123.347 55.0668C123.347 55.7581 122.809 56.3343 122.079 56.3343C121.388 56.3343 120.812 55.7965 120.812 55.0668C120.812 54.3755 121.35 53.7994 122.079 53.7994C122.771 53.8378 123.347 54.3755 123.347 55.0668Z" fill="white"/>
<path d="M122.54 54.7212C122.54 54.9901 122.348 55.1821 122.079 55.1821C121.81 55.1821 121.618 54.9901 121.618 54.7212C121.618 54.4524 121.81 54.2603 122.079 54.2603C122.309 54.2603 122.54 54.4524 122.54 54.7212Z" fill="white"/>
<path d="M122.771 55.8733H121.426V55.7197C121.426 55.3356 121.734 55.0284 122.118 55.0284C122.463 55.0284 122.771 55.2972 122.771 55.6429V55.8733Z" fill="white"/>
<path opacity="0.32" d="M142.935 63.6317L121.811 63.7469C120.812 63.7469 120.006 62.9403 119.967 61.9417V61.4809C119.967 60.4823 120.774 59.6757 121.772 59.6373L142.896 59.5221C143.895 59.5221 144.701 60.3286 144.74 61.3272V61.7881C144.74 62.8251 143.933 63.6317 142.935 63.6317Z" fill="#599AF2"/>
<path opacity="0.43" d="M123.385 61.7112C123.385 62.4025 122.847 62.9786 122.118 62.9786C121.426 62.9786 120.85 62.4409 120.85 61.7112C120.85 61.0198 121.388 60.4437 122.118 60.4437C122.809 60.4821 123.385 61.0198 123.385 61.7112Z" fill="white"/>
<path d="M122.54 62.5178H121.695C121.618 62.5178 121.58 62.4794 121.58 62.4026V61.6344C121.58 61.5576 121.618 61.5192 121.695 61.5192H122.54C122.617 61.5192 122.655 61.5576 122.655 61.6344V62.4026C122.655 62.4794 122.617 62.5178 122.54 62.5178Z" fill="white"/>
<path d="M121.657 61.5961V61.2888C121.657 61.212 121.695 61.1352 121.734 61.0584C121.81 60.9816 121.887 60.9816 121.964 60.9816H122.233C122.31 60.9816 122.386 61.02 122.425 61.0584C122.463 61.0968 122.502 61.1736 122.502 61.2504V61.5961H122.386V61.2504C122.386 61.212 122.386 61.1736 122.348 61.1352C122.31 61.0968 122.271 61.0968 122.233 61.0968H121.964C121.926 61.0968 121.849 61.1352 121.81 61.1736C121.772 61.212 121.734 61.2504 121.734 61.3272V61.6345L121.657 61.5961Z" fill="white"/>
<path d="M137.366 71.0826L128.263 71.121C127.149 71.121 126.266 70.2376 126.266 69.1238C126.266 68.01 127.149 67.1267 128.263 67.1267L137.366 67.0883C138.48 67.0883 139.363 67.9716 139.363 69.0854C139.363 70.1608 138.48 71.0442 137.366 71.0826Z" fill="#F7A9B4"/>
<path d="M123.654 81.3372C123.462 81.3372 123.27 81.1836 123.27 80.9531C123.27 80.7227 123.424 80.5691 123.654 80.5691L141.283 80.4539C141.475 80.4539 141.667 80.6075 141.667 80.8379C141.667 81.0684 141.513 81.222 141.283 81.222L123.654 81.3372Z" fill="white"/>
<path d="M127.226 83.9875C127.034 83.9875 126.842 83.8338 126.842 83.6034C126.842 83.373 126.996 83.2193 127.226 83.2193L137.711 83.1425C137.904 83.1425 138.096 83.2961 138.096 83.5266C138.096 83.757 137.942 83.9107 137.711 83.9107L127.226 83.9875Z" fill="white"/>
<path opacity="0.22" d="M127.457 73.5021L127.956 122.97C127.956 123.7 127.38 124.276 126.65 124.315L97.0769 124.622C96.3472 124.622 95.7711 124.046 95.7327 123.316L95.2334 73.8477C95.2334 73.118 95.8095 72.5419 96.5392 72.5035L126.113 72.1962C126.842 72.1962 127.457 72.7723 127.457 73.5021Z" fill="#3E479B"/>
<path d="M125.69 71.1977L126.189 120.666C126.189 121.396 125.613 121.972 124.883 122.01L95.3099 122.318C94.5801 122.318 94.004 121.741 93.9656 121.012L93.4663 71.5433C93.4663 70.8136 94.0424 70.2375 94.7722 70.1991L124.346 69.8918C125.075 69.8918 125.69 70.468 125.69 71.1977Z" fill="white"/>
<path opacity="0.42" d="M125.69 71.1977L126.189 120.666C126.189 121.396 125.613 121.972 124.883 122.01L95.3099 122.318C94.5801 122.318 94.004 121.741 93.9656 121.012L93.4663 71.5433C93.4663 70.8136 94.0424 70.2375 94.7722 70.1991L124.346 69.8918C125.075 69.8918 125.69 70.468 125.69 71.1977Z" fill="#599AF2"/>
<path d="M125.805 71.1977L125.844 73.963L93.62 74.3087L93.5815 71.4665C93.5815 70.7752 94.1192 70.1991 94.849 70.1991L124.461 69.8918C125.191 69.8534 125.805 70.4679 125.805 71.1977Z" fill="#599AF2"/>
<path d="M121.811 71.5818C121.695 71.5818 121.619 71.505 121.619 71.3897C121.619 71.2745 121.695 71.1977 121.811 71.1977L124.23 71.1593C124.307 71.1593 124.422 71.2361 124.422 71.3513C124.422 71.4666 124.346 71.5434 124.23 71.5434L121.811 71.5818Z" fill="white"/>
<path d="M121.849 72.1962C121.734 72.1962 121.657 72.1194 121.657 72.0042C121.657 71.889 121.734 71.8122 121.849 71.8122L124.268 71.7737C124.384 71.7737 124.46 71.8506 124.46 71.9658C124.46 72.081 124.384 72.1578 124.268 72.1578L121.849 72.1962Z" fill="white"/>
<path d="M121.849 72.8108C121.734 72.8108 121.657 72.734 121.657 72.6187C121.657 72.5035 121.734 72.4267 121.849 72.4267L124.268 72.3883C124.384 72.3883 124.46 72.4651 124.46 72.5803C124.46 72.6956 124.384 72.7724 124.268 72.7724L121.849 72.8108Z" fill="white"/>
<path d="M96.5 73.4253C96.4616 73.4253 96.3848 73.4253 96.3848 73.3869L95.5015 72.5035C95.3862 72.3883 95.3862 72.2346 95.5015 72.1194L96.3464 71.2745C96.4232 71.1977 96.5384 71.1977 96.6153 71.2745C96.6921 71.3513 96.6921 71.4665 96.6153 71.5433L95.8471 72.3115L96.6537 73.0796C96.7305 73.1564 96.7305 73.2716 96.6537 73.3485C96.5769 73.4253 96.5385 73.4253 96.5 73.4253Z" fill="white"/>
<g opacity="0.36">
<path d="M124.845 122.126L95.1561 122.279C94.4264 122.279 93.8502 121.703 93.8502 120.973L93.7734 110.68L126.035 110.488L126.112 120.781C126.112 121.511 125.536 122.126 124.845 122.126Z" fill="white"/>
<path d="M95.1562 122.471C94.7722 122.471 94.3881 122.318 94.1192 122.049C93.8504 121.78 93.6968 121.396 93.6584 121.012L93.5815 110.527L126.228 110.335L126.304 120.82C126.304 121.626 125.651 122.318 124.807 122.318L95.1562 122.471ZM93.9656 110.911L94.004 121.012C94.004 121.319 94.1192 121.588 94.3497 121.78C94.5417 121.972 94.849 122.087 95.1178 122.087L124.807 121.933C125.421 121.933 125.92 121.434 125.92 120.82L125.882 110.719L93.9656 110.911Z" fill="white"/>
</g>
<path d="M122.387 81.9133L99.1125 81.8749C98.6901 81.8749 98.3444 81.5292 98.3828 81.1067V78.8023C98.3828 78.3798 98.7285 78.0342 99.1509 78.0726L122.426 78.111C122.848 78.111 123.194 78.4566 123.155 78.8791V81.1835C123.117 81.5676 122.81 81.9133 122.387 81.9133Z" fill="white"/>
<path d="M122.502 84.8707L98.9973 84.8323C98.6517 84.8323 98.3828 84.5634 98.3828 84.2178C98.3828 83.8721 98.6517 83.6033 98.9973 83.6033L122.502 83.6417C122.848 83.6417 123.117 83.9105 123.117 84.2562C123.117 84.6019 122.848 84.8707 122.502 84.8707Z" fill="white"/>
<path d="M122.502 87.7897L98.9973 87.7512C98.6517 87.7512 98.3828 87.4824 98.3828 87.1367C98.3828 86.7911 98.6517 86.5222 98.9973 86.5222L122.502 86.5606C122.848 86.5606 123.117 86.8295 123.117 87.1751C123.117 87.5208 122.848 87.7897 122.502 87.7897Z" fill="white"/>
<path d="M101.532 92.0912C101.532 92.9746 100.802 93.6659 99.9189 93.6659C99.0356 93.6659 98.3442 92.9361 98.3442 92.0528C98.3442 91.1694 99.074 90.4781 99.9573 90.4781C100.841 90.4781 101.532 91.2078 101.532 92.0912Z" fill="#F7A9B4"/>
<path d="M101.532 99.3118C101.532 100.195 100.802 100.886 99.9189 100.886C99.0356 100.886 98.3442 100.157 98.3442 99.2734C98.3442 98.39 99.074 97.6987 99.9573 97.6987C100.841 97.6987 101.532 98.4284 101.532 99.3118Z" fill="#F7A9B4"/>
<path d="M101.532 106.302C101.532 107.185 100.802 107.877 99.9189 107.877C99.0356 107.877 98.3442 107.147 98.3442 106.263C98.3442 105.38 99.074 104.689 99.9573 104.689C100.802 104.727 101.532 105.419 101.532 106.302Z" fill="#F7A9B4"/>
<path d="M117.701 91.5151H102.454C102.339 91.5151 102.262 91.4383 102.262 91.3231C102.262 91.2079 102.339 91.131 102.454 91.131H117.701C117.817 91.131 117.893 91.2079 117.893 91.3231C117.893 91.4383 117.778 91.5151 117.701 91.5151Z" fill="white"/>
<path d="M110.058 93.1282H102.454C102.339 93.1282 102.262 93.0514 102.262 92.9362C102.262 92.821 102.339 92.7441 102.454 92.7441H110.058C110.174 92.7441 110.25 92.821 110.25 92.9362C110.25 93.0514 110.174 93.1282 110.058 93.1282Z" fill="white"/>
<path d="M117.663 98.966H102.416C102.3 98.966 102.224 98.8892 102.224 98.774C102.224 98.6588 102.3 98.582 102.416 98.582H117.663C117.779 98.582 117.855 98.6588 117.855 98.774C117.855 98.8892 117.779 98.966 117.663 98.966Z" fill="white"/>
<path d="M110.058 100.579H102.454C102.339 100.579 102.262 100.502 102.262 100.387C102.262 100.272 102.339 100.195 102.454 100.195H110.058C110.174 100.195 110.25 100.272 110.25 100.387C110.25 100.502 110.174 100.579 110.058 100.579Z" fill="white"/>
<path d="M117.663 105.764H102.416C102.3 105.764 102.224 105.687 102.224 105.572C102.224 105.457 102.3 105.38 102.416 105.38H117.663C117.779 105.38 117.855 105.457 117.855 105.572C117.855 105.687 117.779 105.764 117.663 105.764Z" fill="white"/>
<path d="M110.058 107.377H102.454C102.339 107.377 102.262 107.3 102.262 107.185C102.262 107.07 102.339 106.993 102.454 106.993H110.058C110.174 106.993 110.25 107.07 110.25 107.185C110.25 107.3 110.174 107.377 110.058 107.377Z" fill="white"/>
<path d="M101.11 114.943C100.918 114.943 100.726 114.79 100.726 114.559C100.726 114.329 100.879 114.175 101.11 114.175L118.739 114.06C118.931 114.06 119.123 114.214 119.123 114.444C119.123 114.675 118.969 114.828 118.739 114.828L101.11 114.943Z" fill="white"/>
<path d="M104.72 117.593C104.527 117.593 104.335 117.44 104.335 117.209C104.335 116.979 104.489 116.825 104.72 116.825L115.205 116.749C115.397 116.749 115.589 116.902 115.589 117.133C115.589 117.363 115.435 117.517 115.205 117.517L104.72 117.593Z" fill="white"/>
<path d="M57.6705 62.9401H30.1326C29.7869 62.9401 29.5181 62.6712 29.5181 62.3255V54.3369C29.5181 53.9912 29.7869 53.7224 30.1326 53.7224H57.6705C58.0162 53.7224 58.285 53.9912 58.285 54.3369V62.3255C58.285 62.6712 58.0162 62.9401 57.6705 62.9401Z" fill="#599AF2"/>
<path d="M34.3568 61.135C32.7053 61.135 31.3994 59.7908 31.3994 58.1777C31.3994 56.5262 32.7437 55.2203 34.3568 55.2203C36.0083 55.2203 37.3141 56.5646 37.3141 58.1777C37.3141 59.7908 35.9699 61.135 34.3568 61.135Z" fill="#F7A9B4"/>
<path d="M34.0881 59.2914L32.9743 57.7551C32.8975 57.6399 32.8975 57.4479 33.0511 57.3327C33.1279 57.2943 33.2047 57.2558 33.2815 57.2943C33.3584 57.2943 33.4352 57.3327 33.4736 57.4095L34.1649 58.4081L37.6984 54.8746C37.7368 54.8362 37.8136 54.7978 37.8904 54.7978C37.9672 54.7978 38.044 54.8362 38.0824 54.8746C38.1977 54.9898 38.1977 55.1819 38.0824 55.2971L34.0881 59.2914Z" fill="white"/>
<path opacity="0.38" d="M54.5592 56.987H39.8493C39.734 56.987 39.6572 56.9102 39.6572 56.7949C39.6572 56.6797 39.734 56.6029 39.8493 56.6029H54.5592C54.6744 56.6029 54.7512 56.6797 54.7512 56.7949C54.7512 56.9102 54.6744 56.987 54.5592 56.987Z" fill="white"/>
<path opacity="0.38" d="M46.4169 58.7538H39.8493C39.734 58.7538 39.6572 58.6769 39.6572 58.5617C39.6572 58.4465 39.734 58.3697 39.8493 58.3697H46.4169C46.5321 58.3697 46.6089 58.4465 46.6089 58.5617C46.6089 58.6385 46.5321 58.7538 46.4169 58.7538Z" fill="white"/>
<path opacity="0.38" d="M54.5595 58.7538H47.9918C47.8766 58.7538 47.7998 58.6769 47.7998 58.5617C47.7998 58.4465 47.8766 58.3697 47.9918 58.3697H54.5595C54.6747 58.3697 54.7515 58.4465 54.7515 58.5617C54.7515 58.6385 54.6747 58.7538 54.5595 58.7538Z" fill="white"/>
<path opacity="0.38" d="M54.5592 60.5589H39.8493C39.734 60.5589 39.6572 60.4821 39.6572 60.3669C39.6572 60.2517 39.734 60.1749 39.8493 60.1749H54.5592C54.6744 60.1749 54.7512 60.2517 54.7512 60.3669C54.7512 60.4821 54.6744 60.5589 54.5592 60.5589Z" fill="white"/>
<path d="M162.983 105.418H135.445C135.099 105.418 134.83 105.15 134.83 104.804V96.8152C134.83 96.4695 135.099 96.2007 135.445 96.2007H162.983C163.328 96.2007 163.597 96.4695 163.597 96.8152V104.804C163.597 105.15 163.29 105.418 162.983 105.418Z" fill="#599AF2"/>
<path d="M139.67 103.575C138.018 103.575 136.712 102.23 136.712 100.617C136.712 98.9659 138.057 97.66 139.67 97.66C141.283 97.66 142.627 99.0043 142.627 100.617C142.627 102.269 141.283 103.575 139.67 103.575Z" fill="#F7A9B4"/>
<path d="M139.401 101.731L138.287 100.195C138.248 100.118 138.21 100.041 138.248 99.9646C138.248 99.8877 138.287 99.8109 138.364 99.7725C138.44 99.7341 138.517 99.6957 138.594 99.7341C138.671 99.7341 138.748 99.7725 138.786 99.8493L139.477 100.81L143.011 97.2761C143.126 97.1608 143.318 97.1608 143.433 97.2761C143.549 97.3913 143.549 97.5833 143.433 97.6985L139.401 101.731Z" fill="white"/>
<path opacity="0.38" d="M159.872 99.4652H145.162C145.047 99.4652 144.97 99.3884 144.97 99.2732C144.97 99.158 145.047 99.0812 145.162 99.0812H159.872C159.987 99.0812 160.064 99.158 160.064 99.2732C160.064 99.3884 159.987 99.4652 159.872 99.4652Z" fill="white"/>
<path opacity="0.38" d="M151.729 101.194H145.162C145.047 101.194 144.97 101.117 144.97 101.002C144.97 100.886 145.047 100.81 145.162 100.81H151.729C151.845 100.81 151.921 100.886 151.921 101.002C151.921 101.117 151.845 101.194 151.729 101.194Z" fill="white"/>
<path opacity="0.38" d="M159.871 101.194H153.304C153.189 101.194 153.112 101.117 153.112 101.002C153.112 100.886 153.189 100.81 153.304 100.81H159.871C159.987 100.81 160.064 100.886 160.064 101.002C160.064 101.117 159.987 101.194 159.871 101.194Z" fill="white"/>
<path opacity="0.38" d="M159.872 103.037H145.162C145.047 103.037 144.97 102.96 144.97 102.845C144.97 102.73 145.047 102.653 145.162 102.653H159.872C159.987 102.653 160.064 102.73 160.064 102.845C160.064 102.96 159.987 103.037 159.872 103.037Z" fill="white"/>
</g>
</svg>
