<svg width="30" height="30" viewBox="0 0 30 30" fill="none" xmlns="http://www.w3.org/2000/svg">
<g clip-path="url(#clip0_63_523)">
<path fill-rule="evenodd" clip-rule="evenodd" d="M29.3727 15.6144V15.6275C29.3727 15.8275 29.2727 15.9981 29.1258 16.1125L17.2889 27.9494C17.0508 28.1875 16.6652 28.1875 16.4258 27.9494C16.1877 27.7106 16.1877 27.3244 16.4258 27.0863L28.1227 15.3894V11.2525C28.1227 10.9075 28.4033 10.6275 28.7477 10.6275C29.0933 10.6275 29.3727 10.9075 29.3727 11.2525V15.6106C29.3727 15.6119 29.3727 15.6125 29.3727 15.6144ZM12.3789 29.1094C12.3589 29.1394 12.3458 29.1731 12.3196 29.1994C12.1964 29.3219 12.0339 29.3788 11.8727 29.375C11.7114 29.3788 11.5489 29.3219 11.4258 29.1994C11.3996 29.1731 11.3871 29.1394 11.3664 29.1094L0.890801 18.6331C0.860801 18.6131 0.827676 18.6 0.800801 18.5738C0.677676 18.4506 0.622051 18.2888 0.625176 18.1275C0.621426 17.9663 0.677676 17.8038 0.800801 17.6806C0.827676 17.6544 0.860801 17.6419 0.890801 17.6213L15.1383 3.37377C15.2527 3.22752 15.4227 3.12689 15.6227 3.12689H15.6358C15.6371 3.12689 15.6383 3.12689 15.6396 3.12689H18.1577C18.2408 2.18814 18.6239 1.36439 19.2014 0.825017L19.2114 0.836267C19.3333 0.706892 19.5008 0.626892 19.6852 0.626892C20.0552 0.626892 20.3552 0.946892 20.3552 1.34127C20.3552 1.57564 20.2427 1.77314 20.0795 1.90314C19.7802 2.17939 19.5671 2.61502 19.4958 3.12689H22.4802C22.4814 3.12689 22.4827 3.12689 22.4852 3.12689H22.4977C22.6977 3.12689 22.8689 3.22689 22.9821 3.37377L26.6258 7.01752C26.7721 7.13189 26.8727 7.30252 26.8727 7.50252V7.51564C26.8727 7.51689 26.8727 7.51814 26.8727 7.51939V14.36C26.8727 14.3613 26.8727 14.3625 26.8727 14.3644V14.3775C26.8727 14.5775 26.7727 14.7481 26.6258 14.8619L12.3789 29.1094ZM25.6227 7.74064L22.2596 4.37752H19.6264C19.7364 4.65502 19.8914 4.89127 20.0795 5.06502C20.1052 5.08564 20.1371 5.09814 20.1589 5.12252L20.1702 5.11127C20.8208 5.71939 21.2483 6.67877 21.2483 7.77002C21.2483 7.79627 21.2421 7.81939 21.2408 7.84502C21.9889 8.27689 22.4983 9.07627 22.4983 10.0025C22.4983 11.3831 21.3789 12.5025 19.9983 12.5025C18.6177 12.5025 17.4983 11.3831 17.4983 10.0025C17.4983 8.66064 18.5577 7.57439 19.8858 7.51377C19.8295 6.95877 19.6102 6.48377 19.2927 6.19002C19.267 6.16939 19.2352 6.15689 19.2121 6.13252L19.202 6.14377C18.737 5.70939 18.3939 5.09064 18.2314 4.37752H15.8608L2.1108 18.1275L11.8727 27.8894L25.6227 14.1394V7.74064ZM19.2921 9.35064C19.4471 9.20752 19.5739 9.01502 19.6777 8.79877C19.1433 8.94127 18.7477 9.42377 18.7477 10.0019C18.7477 10.6919 19.3077 11.2519 19.9977 11.2519C20.6883 11.2519 21.2477 10.6919 21.2477 10.0019C21.2477 9.70627 21.1414 9.43877 20.9696 9.22439C20.5852 10.19 20.1589 10.4175 20.1589 10.4175C20.0383 10.5469 19.8708 10.6263 19.6852 10.6263C19.3152 10.6263 19.0164 10.3063 19.0164 9.91189C19.0164 9.67877 19.1283 9.48127 19.2921 9.35064ZM7.67643 17.0556C7.91518 16.8175 8.30143 16.8175 8.53955 17.0556L12.9452 21.4613C13.1833 21.6994 13.1833 22.0856 12.9452 22.3244C12.7071 22.5625 12.3202 22.5625 12.0821 22.3244L7.67643 17.9188C7.4383 17.6806 7.4383 17.2944 7.67643 17.0556ZM10.1764 14.5556C10.4152 14.3175 10.8014 14.3175 11.0396 14.5556L15.4452 18.9613C15.6827 19.1994 15.6827 19.5856 15.4452 19.8244C15.2071 20.0625 14.8202 20.0625 14.5821 19.8244L10.1764 15.4188C9.9383 15.1806 9.9383 14.7944 10.1764 14.5556Z" fill="url(#paint0_linear_63_523)"/>
</g>
<defs>
<linearGradient id="paint0_linear_63_523" x1="0.625" y1="15.0011" x2="29.3727" y2="15.0011" gradientUnits="userSpaceOnUse">
<stop stop-color="#903BE9"/>
<stop offset="1" stop-color="#406EF7"/>
</linearGradient>
<clipPath id="clip0_63_523">
<rect width="30" height="30" fill="white"/>
</clipPath>
</defs>
</svg>
